{
.appVersion = "1277";
copyright = "Copyright © 2019 Yusei Magic Project";
customParameters = (
{
name = vendorID;
value = UKWN;
},
{
name = unicodeRanges;
value = (
0,
1,
2,
3,
4,
5,
6,
7,
9,
29,
31,
32,
33,
34,
35,
36,
37,
38,
39,
41,
42,
43,
44,
45,
46,
47,
48,
49,
50,
54,
55,
59,
61,
62,
65,
68
);
},
{
name = codePageRanges;
value = (
"1252",
"1251",
"1253",
"932"
);
},
{
name = ROS;
value = "Adobe-Identity-0";
},
{
name = localizedFamilyName;
value = "Japanese;Yusei Magic";
},
{
name = localizedDesigner;
value = "Japanese;Yusei Magicプロジェクト";
},
{
name = panose;
value = (
2,
0,
6,
0,
0,
0,
0,
0,
0,
0
);
},
{
name = glyphOrder;
value = (
.notdef,
space
);
},
{
name = "Disable Subroutines";
value = 1;
},
{
name = note;
value = "";
},
{
name = licenseURL;
value = "http://scripts.sil.org/OFL";
},
{
name = license;
value = "This Font Software is licensed under the SIL Open Font License, Version 1.1. This license is available with a FAQ at: http://scripts.sil.org/OFL";
}
);
date = "2019-12-09 23:47:26 +0000";
designer = Tanukizamurai;
designerURL = "https://tanukifont.com";
familyName = "Yusei Magic";
fontMaster = (
{
ascender = 880;
capHeight = 760;
customParameters = (
{
name = "CJK Guide";
value = "kata:81";
},
{
name = "CJK Guide";
value = "hira:72";
},
{
name = "CJK Guide";
value = "han:68";
},
{
name = "CJK Guide";
value = "han:82";
},
{
name = "CJK Guide";
value = "han:90";
},
{
name = hheaAscender;
value = 880;
},
{
name = hheaDescender;
value = -120;
},
{
name = hheaLineGap;
value = 500;
},
{
name = vheaVertAscender;
value = 500;
},
{
name = vheaVertDescender;
value = -500;
},
{
name = vheaVertLineGap;
value = 500;
},
{
name = typoAscender;
value = 880;
},
{
name = typoDescender;
value = -120;
},
{
name = typoLineGap;
value = 0;
},
{
name = winAscent;
value = 880;
},
{
name = winDescent;
value = -120;
}
);
descender = -120;
id = "47F7128E-F1A6-4572-9BDC-88462FF34A66";
weightValue = 400;
xHeight = 510;
}
);
glyphs = (
{
color = 5;
glyphname = A;
lastChange = "2019-12-11 06:40:48 +0000";
layers = (
{
layerId = "47F7128E-F1A6-4572-9BDC-88462FF34A66";
paths = (
{
closed = 1;
nodes = (
"217 756 LINE SMOOTH",
"204 756 OFFCURVE",
"199 745 OFFCURVE",
"194 724 CURVE SMOOTH",
"188 704 OFFCURVE",
"39 49 OFFCURVE",
"32 26 CURVE SMOOTH",
"24 0 OFFCURVE",
"25 -24 OFFCURVE",
"44 -24 CURVE SMOOTH",
"105 -24 LINE SMOOTH",
"124 -24 OFFCURVE",
"135 -6 OFFCURVE",
"140 12 CURVE SMOOTH",
"144 30 OFFCURVE",
"292 720 OFFCURVE",
"297 731 CURVE SMOOTH",
"301 742 OFFCURVE",
"295 756 OFFCURVE",
"282 756 CURVE SMOOTH"
);
},
{
closed = 1;
nodes = (
"214 756 OFFCURVE",
"208 742 OFFCURVE",
"212 731 CURVE SMOOTH",
"216 720 OFFCURVE",
"365 30 OFFCURVE",
"369 12 CURVE SMOOTH",
"373 -6 OFFCURVE",
"385 -24 OFFCURVE",
"404 -24 CURVE SMOOTH",
"465 -24 LINE SMOOTH",
"484 -24 OFFCURVE",
"485 0 OFFCURVE",
"477 26 CURVE SMOOTH",
"470 49 OFFCURVE",
"321 704 OFFCURVE",
"315 724 CURVE SMOOTH",
"309 745 OFFCURVE",
"305 756 OFFCURVE",
"292 756 CURVE SMOOTH",
"227 756 LINE SMOOTH"
);
},
{
closed = 1;
nodes = (
"116 188 OFFCURVE",
"135 176 OFFCURVE",
"159 176 CURVE SMOOTH",
"351 176 LINE SMOOTH",
"375 176 OFFCURVE",
"394 188 OFFCURVE",
"394 204 CURVE SMOOTH",
"394 220 OFFCURVE",
"375 231 OFFCURVE",
"351 231 CURVE SMOOTH",
"159 231 LINE SMOOTH",
"135 231 OFFCURVE",
"116 220 OFFCURVE",
"116 204 CURVE SMOOTH"
);
}
);
userData = {
assembly = "SVTCA[0]\011/* SetFreedomAndProjectionVectorToAxis */
IUP[0]\011/* InterpolateUntPts */
IUP[1]\011/* InterpolateUntPts */";
};
width = 500;
}
);
note = uni0041;
unicode = 0041;
},
{
color = 5;
glyphname = AE;
lastChange = "2019-12-11 06:40:48 +0000";
layers = (
{
components = (
{
name = E;
transform = "{1, 0, 0, 1, 287, 0}";
}
);
layerId = "47F7128E-F1A6-4572-9BDC-88462FF34A66";
paths = (
{
closed = 1;
nodes = (
"356 754 LINE SMOOTH",
"343 754 OFFCURVE",
"336 743 OFFCURVE",
"327 722 CURVE SMOOTH",
"318 702 OFFCURVE",
"53 48 OFFCURVE",
"42 25 CURVE SMOOTH",
"29 -1 OFFCURVE",
"26 -25 OFFCURVE",
"45 -25 CURVE SMOOTH",
"106 -25 LINE SMOOTH",
"125 -25 OFFCURVE",
"139 -7 OFFCURVE",
"148 11 CURVE SMOOTH",
"157 28 OFFCURVE",
"424 718 OFFCURVE",
"431 729 CURVE SMOOTH",
"438 740 OFFCURVE",
"434 754 OFFCURVE",
"421 754 CURVE SMOOTH"
);
},
{
closed = 1;
nodes = (
"146 188 OFFCURVE",
"165 176 OFFCURVE",
"189 176 CURVE SMOOTH",
"381 176 LINE SMOOTH",
"405 176 OFFCURVE",
"424 188 OFFCURVE",
"424 204 CURVE SMOOTH",
"424 220 OFFCURVE",
"405 231 OFFCURVE",
"381 231 CURVE SMOOTH",
"189 231 LINE SMOOTH",
"165 231 OFFCURVE",
"146 220 OFFCURVE",
"146 204 CURVE SMOOTH"
);
}
);
width = 769;
}
);
unicode = 00C6;
},
{
color = 5;
glyphname = B;
lastChange = "2019-12-11 06:40:48 +0000";
layers = (
{
layerId = "47F7128E-F1A6-4572-9BDC-88462FF34A66";
paths = (
{
closed = 1;
nodes = (
"60 8 LINE SMOOTH",
"60 -11 OFFCURVE",
"75 -26 OFFCURVE",
"94 -26 CURVE SMOOTH",
"143 -26 LINE SMOOTH",
"162 -26 OFFCURVE",
"178 -11 OFFCURVE",
"178 8 CURVE SMOOTH",
"178 721 LINE SMOOTH",
"178 740 OFFCURVE",
"162 755 OFFCURVE",
"143 755 CURVE SMOOTH",
"94 755 LINE SMOOTH",
"75 755 OFFCURVE",
"60 740 OFFCURVE",
"60 721 CURVE SMOOTH"
);
},
{
closed = 1;
nodes = (
"240 756 OFFCURVE",
"147 756 OFFCURVE",
"137 756 CURVE SMOOTH",
"127 756 OFFCURVE",
"118 744 OFFCURVE",
"118 728 CURVE SMOOTH",
"118 712 OFFCURVE",
"149 699 OFFCURVE",
"235 699 CURVE SMOOTH",
"321 699 OFFCURVE",
"353 646 OFFCURVE",
"353 571 CURVE SMOOTH",
"353 496 OFFCURVE",
"307 413 OFFCURVE",
"229 413 CURVE SMOOTH",
"151 413 OFFCURVE",
"126 401 OFFCURVE",
"126 382 CURVE SMOOTH",
"126 363 OFFCURVE",
"133 339 OFFCURVE",
"228 339 CURVE SMOOTH",
"323 339 OFFCURVE",
"353 227 OFFCURVE",
"353 180 CURVE SMOOTH",
"353 98 OFFCURVE",
"310 16 OFFCURVE",
"217 16 CURVE SMOOTH",
"97 16 OFFCURVE",
"93 8 OFFCURVE",
"93 0 CURVE SMOOTH",
"93 -8 OFFCURVE",
"96 -27 OFFCURVE",
"215 -27 CURVE SMOOTH",
"284 -27 OFFCURVE",
"468 -20 OFFCURVE",
"468 183 CURVE SMOOTH",
"468 386 OFFCURVE",
"274 391 OFFCURVE",
"229 391 CURVE SMOOTH",
"184 391 OFFCURVE",
"183 368 OFFCURVE",
"228 368 CURVE SMOOTH",
"273 368 OFFCURVE",
"471 347 OFFCURVE",
"471 557 CURVE SMOOTH",
"471 760 OFFCURVE",
"297 756 OFFCURVE",
"282 756 CURVE"
);
}
);
userData = {
assembly = "SVTCA[0]\011/* SetFreedomAndProjectionVectorToAxis */
IUP[0]\011/* InterpolateUntPts */
IUP[1]\011/* InterpolateUntPts */";
};
width = 500;
}
);
note = uni0042;
unicode = 0042;
},
{
color = 5;
glyphname = C;
lastChange = "2019-12-11 06:40:48 +0000";
layers = (
{
layerId = "47F7128E-F1A6-4572-9BDC-88462FF34A66";
paths = (
{
closed = 1;
nodes = (
"319 -37 OFFCURVE",
"450 7 OFFCURVE",
"450 89 CURVE SMOOTH",
"450 125 OFFCURVE",
"439 132 OFFCURVE",
"406 132 CURVE SMOOTH",
"384 132 OFFCURVE",
"336 128 OFFCURVE",
"336 89 CURVE SMOOTH",
"336 62 OFFCURVE",
"304 29 OFFCURVE",
"275 29 CURVE SMOOTH",
"171 29 OFFCURVE",
"145 165 OFFCURVE",
"145 341 CURVE SMOOTH",
"145 464 OFFCURVE",
"196 691 OFFCURVE",
"257 691 CURVE SMOOTH",
"282 691 OFFCURVE",
"339 609 OFFCURVE",
"339 569 CURVE SMOOTH",
"339 522 OFFCURVE",
"363 512 OFFCURVE",
"409 512 CURVE SMOOTH",
"444 512 OFFCURVE",
"464 519 OFFCURVE",
"464 550 CURVE SMOOTH",
"464 610 OFFCURVE",
"347 765 OFFCURVE",
"255 765 CURVE SMOOTH",
"86 765 OFFCURVE",
"35 530 OFFCURVE",
"35 321 CURVE SMOOTH",
"35 22 OFFCURVE",
"125 -37 OFFCURVE",
"268 -37 CURVE SMOOTH"
);
}
);
userData = {
assembly = "SVTCA[0]\011/* SetFreedomAndProjectionVectorToAxis */
PUSHB[ ]\011/* 8 values pushed */
60 70 29 0 60 73 27 0 
CALL[ ]\011/* CallFunction */
CALL[ ]\011/* CallFunction */
IUP[0]\011/* InterpolateUntPts */
IUP[1]\011/* InterpolateUntPts */";
};
width = 500;
}
);
note = uni0043;
unicode = 0043;
},
{
color = 5;
glyphname = D;
lastChange = "2019-12-11 06:40:48 +0000";
layers = (
{
layerId = "47F7128E-F1A6-4572-9BDC-88462FF34A66";
paths = (
{
closed = 1;
nodes = (
"308 17 OFFCURVE",
"179 17 CURVE SMOOTH",
"166 17 OFFCURVE",
"165 42 OFFCURVE",
"165 76 CURVE SMOOTH",
"165 193 OFFCURVE",
"165 550 OFFCURVE",
"165 667 CURVE SMOOTH",
"165 685 OFFCURVE",
"169 695 OFFCURVE",
"194 695 CURVE SMOOTH",
"307 695 OFFCURVE",
"352 505 OFFCURVE",
"352 366 CURVE SMOOTH",
"352 169 OFFCURVE"
);
},
{
closed = 1;
nodes = (
"62 -25 OFFCURVE",
"114 -25 CURVE SMOOTH",
"414 -25 OFFCURVE",
"461 88 OFFCURVE",
"461 366 CURVE SMOOTH",
"461 611 OFFCURVE",
"369 757 OFFCURVE",
"98 757 CURVE SMOOTH",
"66 757 OFFCURVE",
"52 741 OFFCURVE",
"52 721 CURVE SMOOTH",
"52 560 OFFCURVE",
"52 37 OFFCURVE",
"52 27 CURVE SMOOTH",
"52 -9 OFFCURVE"
);
}
);
userData = {
assembly = "PUSHB[ ]\011/* 5 values pushed */
95 112 6 7 4 
CALL[ ]\011/* CallFunction */
SVTCA[0]\011/* SetFreedomAndProjectionVectorToAxis */
IUP[0]\011/* InterpolateUntPts */
IUP[1]\011/* InterpolateUntPts */";
};
width = 500;
}
);
note = uni0044;
unicode = 0044;
},
{
color = 5;
glyphname = Eth;
lastChange = "2019-12-11 06:40:48 +0000";
layers = (
{
components = (
{
name = D;
transform = "{1, 0, 0, 1, 59, 0}";
}
);
layerId = "47F7128E-F1A6-4572-9BDC-88462FF34A66";
paths = (
{
closed = 1;
nodes = (
"44 385 LINE SMOOTH",
"44 366 OFFCURVE",
"59 351 OFFCURVE",
"78 351 CURVE SMOOTH",
"315 351 LINE SMOOTH",
"334 351 OFFCURVE",
"349 366 OFFCURVE",
"349 385 CURVE SMOOTH",
"349 385 LINE SMOOTH",
"349 404 OFFCURVE",
"334 419 OFFCURVE",
"315 419 CURVE SMOOTH",
"78 419 LINE SMOOTH",
"59 419 OFFCURVE",
"44 404 OFFCURVE",
"44 385 CURVE SMOOTH"
);
}
);
width = 577;
}
);
unicode = 00D0;
},
{
color = 5;
glyphname = E;
lastChange = "2019-12-11 06:40:48 +0000";
layers = (
{
layerId = "47F7128E-F1A6-4572-9BDC-88462FF34A66";
paths = (
{
closed = 1;
nodes = (
"84 754 LINE SMOOTH",
"65 754 OFFCURVE",
"61 749 OFFCURVE",
"61 726 CURVE SMOOTH",
"61 12 LINE SMOOTH",
"61 -11 OFFCURVE",
"68 -27 OFFCURVE",
"89 -27 CURVE SMOOTH",
"402 -27 LINE SMOOTH",
"419 -27 OFFCURVE",
"428 -13 OFFCURVE",
"428 5 CURVE SMOOTH",
"428 23 OFFCURVE",
"415 32 OFFCURVE",
"402 32 CURVE SMOOTH",
"164 32 LINE",
"188 11 LINE",
"188 727 LINE",
"157 694 LINE",
"402 694 LINE SMOOTH",
"433 694 OFFCURVE",
"447 694 OFFCURVE",
"447 718 CURVE SMOOTH",
"447 742 OFFCURVE",
"436 754 OFFCURVE",
"402 754 CURVE SMOOTH"
);
},
{
closed = 1;
nodes = (
"129 368 OFFCURVE",
"144 356 OFFCURVE",
"163 356 CURVE SMOOTH",
"400 356 LINE SMOOTH",
"419 356 OFFCURVE",
"434 368 OFFCURVE",
"434 384 CURVE SMOOTH",
"434 400 OFFCURVE",
"419 412 OFFCURVE",
"400 412 CURVE SMOOTH",
"163 412 LINE SMOOTH",
"144 412 OFFCURVE",
"129 400 OFFCURVE",
"129 384 CURVE SMOOTH"
);
}
);
userData = {
assembly = "SVTCA[0]\011/* SetFreedomAndProjectionVectorToAxis */
IUP[0]\011/* InterpolateUntPts */
IUP[1]\011/* InterpolateUntPts */";
};
width = 500;
}
);
note = uni0045;
unicode = 0045;
},
{
color = 5;
glyphname = F;
lastChange = "2019-12-11 06:40:48 +0000";
layers = (
{
layerId = "47F7128E-F1A6-4572-9BDC-88462FF34A66";
paths = (
{
closed = 1;
nodes = (
"74 754 LINE SMOOTH",
"55 754 OFFCURVE",
"51 749 OFFCURVE",
"51 726 CURVE SMOOTH",
"51 10 LINE SMOOTH",
"51 -12 OFFCURVE",
"58 -27 OFFCURVE",
"79 -27 CURVE SMOOTH",
"134 -27 LINE SMOOTH",
"153 -27 OFFCURVE",
"168 -13 OFFCURVE",
"168 10 CURVE SMOOTH",
"168 727 LINE",
"137 694 LINE",
"402 694 LINE SMOOTH",
"433 694 OFFCURVE",
"447 694 OFFCURVE",
"447 718 CURVE SMOOTH",
"447 742 OFFCURVE",
"436 754 OFFCURVE",
"402 754 CURVE SMOOTH"
);
},
{
closed = 1;
nodes = (
"119 368 OFFCURVE",
"134 356 OFFCURVE",
"153 356 CURVE SMOOTH",
"380 356 LINE SMOOTH",
"399 356 OFFCURVE",
"414 368 OFFCURVE",
"414 384 CURVE SMOOTH",
"414 400 OFFCURVE",
"399 412 OFFCURVE",
"380 412 CURVE SMOOTH",
"153 412 LINE SMOOTH",
"134 412 OFFCURVE",
"119 400 OFFCURVE",
"119 384 CURVE SMOOTH"
);
}
);
userData = {
assembly = "PUSHB[ ]\011/* 6 values pushed */
108 125 16 11 12 8 
CALL[ ]\011/* CallFunction */
SVTCA[0]\011/* SetFreedomAndProjectionVectorToAxis */
IUP[0]\011/* InterpolateUntPts */
IUP[1]\011/* InterpolateUntPts */";
};
width = 468;
}
);
note = uni0046;
unicode = 0046;
},
{
color = 5;
glyphname = G;
lastChange = "2019-12-11 06:40:48 +0000";
layers = (
{
layerId = "47F7128E-F1A6-4572-9BDC-88462FF34A66";
paths = (
{
closed = 1;
nodes = (
"240 295 LINE SMOOTH",
"221 295 OFFCURVE",
"206 283 OFFCURVE",
"206 266 CURVE SMOOTH",
"206 249 OFFCURVE",
"221 236 OFFCURVE",
"240 236 CURVE SMOOTH",
"344 236 LINE",
"344 124 OFFCURVE",
"310 37 OFFCURVE",
"269 37 CURVE SMOOTH",
"180 37 OFFCURVE",
"145 199 OFFCURVE",
"145 347 CURVE SMOOTH",
"145 456 OFFCURVE",
"178 688 OFFCURVE",
"269 688 CURVE SMOOTH",
"292 688 OFFCURVE",
"344 617 OFFCURVE",
"344 560 CURVE SMOOTH",
"344 542 OFFCURVE",
"359 529 OFFCURVE",
"376 529 CURVE SMOOTH",
"423 529 LINE SMOOTH",
"443 529 OFFCURVE",
"457 545 OFFCURVE",
"457 566 CURVE SMOOTH",
"457 652 OFFCURVE",
"349 752 OFFCURVE",
"263 752 CURVE SMOOTH",
"104 752 OFFCURVE",
"41 567 OFFCURVE",
"41 347 CURVE SMOOTH",
"41 174 OFFCURVE",
"104 -25 OFFCURVE",
"217 -25 CURVE SMOOTH",
"366 -25 OFFCURVE",
"455 64 OFFCURVE",
"455 266 CURVE SMOOTH",
"455 286 OFFCURVE",
"444 295 OFFCURVE",
"420 295 CURVE SMOOTH"
);
}
);
userData = {
assembly = "SVTCA[0]\011/* SetFreedomAndProjectionVectorToAxis */
IUP[0]\011/* InterpolateUntPts */
IUP[1]\011/* InterpolateUntPts */";
};
width = 500;
}
);
note = uni0047;
unicode = 0047;
},
{
color = 5;
glyphname = H;
lastChange = "2019-12-11 06:40:48 +0000";
layers = (
{
layerId = "47F7128E-F1A6-4572-9BDC-88462FF34A66";
paths = (
{
closed = 1;
nodes = (
"76 759 LINE SMOOTH",
"62 759 OFFCURVE",
"49 744 OFFCURVE",
"49 721 CURVE SMOOTH",
"49 21 LINE SMOOTH",
"49 0 OFFCURVE",
"50 -30 OFFCURVE",
"69 -30 CURVE SMOOTH",
"138 -30 LINE SMOOTH",
"152 -30 OFFCURVE",
"165 -15 OFFCURVE",
"165 17 CURVE SMOOTH",
"165 728 LINE SMOOTH",
"165 750 OFFCURVE",
"163 759 OFFCURVE",
"141 759 CURVE SMOOTH"
);
},
{
closed = 1;
nodes = (
"366 759 LINE SMOOTH",
"352 759 OFFCURVE",
"339 744 OFFCURVE",
"339 721 CURVE SMOOTH",
"339 21 LINE SMOOTH",
"339 0 OFFCURVE",
"340 -30 OFFCURVE",
"359 -30 CURVE SMOOTH",
"428 -30 LINE SMOOTH",
"442 -30 OFFCURVE",
"455 -13 OFFCURVE",
"455 17 CURVE SMOOTH",
"455 728 LINE SMOOTH",
"455 750 OFFCURVE",
"453 759 OFFCURVE",
"431 759 CURVE SMOOTH"
);
},
{
closed = 1;
nodes = (
"108 327 OFFCURVE",
"123 315 OFFCURVE",
"142 315 CURVE SMOOTH",
"358 315 LINE SMOOTH",
"377 315 OFFCURVE",
"392 327 OFFCURVE",
"392 343 CURVE SMOOTH",
"392 359 OFFCURVE",
"377 371 OFFCURVE",
"358 371 CURVE SMOOTH",
"142 371 LINE SMOOTH",
"123 371 OFFCURVE",
"108 359 OFFCURVE",
"108 343 CURVE SMOOTH"
);
}
);
userData = {
assembly = "NPUSHB[ ]\011/* 10 values pushed */
63 121 51 0 28 27 26 122 12 2 
CALL[ ]\011/* CallFunction */
CALL[ ]\011/* CallFunction */
SVTCA[0]\011/* SetFreedomAndProjectionVectorToAxis */
IUP[0]\011/* InterpolateUntPts */
IUP[1]\011/* InterpolateUntPts */";
};
width = 500;
}
);
note = uni0048;
unicode = 0048;
},
{
color = 5;
glyphname = I;
lastChange = "2019-12-11 06:40:48 +0000";
layers = (
{
layerId = "47F7128E-F1A6-4572-9BDC-88462FF34A66";
paths = (
{
closed = 1;
nodes = (
"117 753 LINE SMOOTH",
"60 753 OFFCURVE",
"55 750 OFFCURVE",
"55 726 CURVE SMOOTH",
"55 705 OFFCURVE",
"59 697 OFFCURVE",
"75 697 CURVE SMOOTH",
"91 697 OFFCURVE",
"100 697 OFFCURVE",
"110 697 CURVE SMOOTH",
"120 697 OFFCURVE",
"127 688 OFFCURVE",
"127 656 CURVE SMOOTH",
"127 624 OFFCURVE",
"127 94 OFFCURVE",
"127 69 CURVE SMOOTH",
"127 44 OFFCURVE",
"122 28 OFFCURVE",
"110 28 CURVE SMOOTH",
"98 28 OFFCURVE",
"83 28 OFFCURVE",
"70 28 CURVE SMOOTH",
"57 28 OFFCURVE",
"44 23 OFFCURVE",
"44 6 CURVE SMOOTH",
"44 -11 OFFCURVE",
"52 -21 OFFCURVE",
"67 -21 CURVE SMOOTH",
"214 -21 LINE",
"214 753 LINE"
);
},
{
closed = 1;
nodes = (
"144 -21 LINE",
"291 -21 LINE SMOOTH",
"306 -21 OFFCURVE",
"314 -11 OFFCURVE",
"314 6 CURVE SMOOTH",
"314 23 OFFCURVE",
"301 28 OFFCURVE",
"288 28 CURVE SMOOTH",
"275 28 OFFCURVE",
"260 28 OFFCURVE",
"248 28 CURVE SMOOTH",
"236 28 OFFCURVE",
"231 44 OFFCURVE",
"231 69 CURVE SMOOTH",
"231 94 OFFCURVE",
"231 624 OFFCURVE",
"231 656 CURVE SMOOTH",
"231 688 OFFCURVE",
"238 697 OFFCURVE",
"248 697 CURVE SMOOTH",
"258 697 OFFCURVE",
"267 697 OFFCURVE",
"283 697 CURVE SMOOTH",
"299 697 OFFCURVE",
"303 705 OFFCURVE",
"303 726 CURVE SMOOTH",
"303 750 OFFCURVE",
"298 753 OFFCURVE",
"241 753 CURVE SMOOTH",
"144 753 LINE"
);
}
);
userData = {
assembly = "SVTCA[0]\011/* SetFreedomAndProjectionVectorToAxis */
IUP[0]\011/* InterpolateUntPts */
IUP[1]\011/* InterpolateUntPts */";
};
width = 360;
}
);
note = uni0049;
unicode = 0049;
},
{
color = 5;
glyphname = J;
lastChange = "2019-12-11 06:40:48 +0000";
layers = (
{
layerId = "47F7128E-F1A6-4572-9BDC-88462FF34A66";
paths = (
{
closed = 1;
nodes = (
"131 -28 OFFCURVE",
"265 -28 CURVE SMOOTH",
"367 -28 OFFCURVE",
"440 24 OFFCURVE",
"440 118 CURVE SMOOTH",
"440 217 OFFCURVE",
"440 541 OFFCURVE",
"440 673 CURVE SMOOTH",
"440 723 OFFCURVE",
"432 746 OFFCURVE",
"414 746 CURVE SMOOTH",
"402 746 OFFCURVE",
"386 746 OFFCURVE",
"363 746 CURVE SMOOTH",
"336 746 OFFCURVE",
"321 746 OFFCURVE",
"321 711 CURVE SMOOTH",
"321 602 OFFCURVE",
"321 433 OFFCURVE",
"321 338 CURVE SMOOTH",
"321 206 OFFCURVE",
"319 24 OFFCURVE",
"240 24 CURVE SMOOTH",
"178 24 OFFCURVE",
"148 94 OFFCURVE",
"148 171 CURVE SMOOTH",
"148 217 OFFCURVE",
"137 232 OFFCURVE",
"86 225 CURVE SMOOTH",
"47 218 OFFCURVE",
"37 209 OFFCURVE",
"37 181 CURVE SMOOTH",
"37 -5 OFFCURVE"
);
}
);
userData = {
assembly = "NPUSHB[ ]\011/* 13 values pushed */
69 127 55 0 77 119 48 0 77 121 45 46 4 
CALL[ ]\011/* CallFunction */
CALL[ ]\011/* CallFunction */
CALL[ ]\011/* CallFunction */
SVTCA[0]\011/* SetFreedomAndProjectionVectorToAxis */
IUP[0]\011/* InterpolateUntPts */
IUP[1]\011/* InterpolateUntPts */";
};
width = 500;
}
);
note = uni004A;
unicode = 004A;
},
{
color = 5;
glyphname = K;
lastChange = "2019-12-11 06:40:48 +0000";
layers = (
{
layerId = "47F7128E-F1A6-4572-9BDC-88462FF34A66";
paths = (
{
closed = 1;
nodes = (
"49 9 LINE SMOOTH",
"49 -10 OFFCURVE",
"63 -25 OFFCURVE",
"80 -25 CURVE SMOOTH",
"125 -25 LINE SMOOTH",
"143 -25 OFFCURVE",
"157 -10 OFFCURVE",
"157 9 CURVE SMOOTH",
"157 721 LINE SMOOTH",
"157 740 OFFCURVE",
"143 755 OFFCURVE",
"125 755 CURVE SMOOTH",
"80 755 LINE SMOOTH",
"63 755 OFFCURVE",
"49 740 OFFCURVE",
"49 721 CURVE SMOOTH"
);
},
{
closed = 1;
nodes = (
"428 724 OFFCURVE",
"380 724 OFFCURVE",
"362 724 CURVE SMOOTH",
"354 724 OFFCURVE",
"346 717 OFFCURVE",
"326 687 CURVE SMOOTH",
"317 674 OFFCURVE",
"153 444 OFFCURVE",
"141 428 CURVE",
"141 258 LINE",
"245 399 OFFCURVE",
"441 662 OFFCURVE",
"454 681 CURVE SMOOTH",
"467 700 OFFCURVE",
"481 724 OFFCURVE",
"455 724 CURVE"
);
},
{
closed = 1;
nodes = (
"451 -22 OFFCURVE",
"437 3 OFFCURVE",
"424 23 CURVE SMOOTH",
"411 44 OFFCURVE",
"215 322 OFFCURVE",
"111 471 CURVE",
"111 291 LINE",
"123 274 OFFCURVE",
"287 31 OFFCURVE",
"296 17 CURVE SMOOTH",
"317 -15 OFFCURVE",
"324 -22 OFFCURVE",
"332 -22 CURVE SMOOTH",
"350 -22 OFFCURVE",
"398 -22 OFFCURVE",
"425 -22 CURVE"
);
}
);
userData = {
assembly = "PUSHB[ ]\011/* 5 values pushed */
32 123 18 19 4 
CALL[ ]\011/* CallFunction */
SVTCA[0]\011/* SetFreedomAndProjectionVectorToAxis */
IUP[0]\011/* InterpolateUntPts */
IUP[1]\011/* InterpolateUntPts */";
};
width = 500;
}
);
note = uni004B;
unicode = 004B;
},
{
color = 5;
glyphname = L;
lastChange = "2019-12-11 06:40:48 +0000";
layers = (
{
layerId = "47F7128E-F1A6-4572-9BDC-88462FF34A66";
paths = (
{
closed = 1;
nodes = (
"131 753 OFFCURVE",
"95 753 OFFCURVE",
"75 753 CURVE SMOOTH",
"59 753 OFFCURVE",
"52 739 OFFCURVE",
"52 709 CURVE SMOOTH",
"52 683 OFFCURVE",
"52 60 OFFCURVE",
"52 30 CURVE SMOOTH",
"52 -3 OFFCURVE",
"64 -18 OFFCURVE",
"90 -18 CURVE SMOOTH",
"113 -18 OFFCURVE",
"355 -18 OFFCURVE",
"380 -18 CURVE SMOOTH",
"410 -18 OFFCURVE",
"424 -13 OFFCURVE",
"424 -1 CURVE SMOOTH",
"424 20 OFFCURVE",
"411 30 OFFCURVE",
"382 30 CURVE SMOOTH",
"351 30 OFFCURVE",
"232 30 OFFCURVE",
"204 30 CURVE SMOOTH",
"179 30 OFFCURVE",
"168 45 OFFCURVE",
"168 78 CURVE SMOOTH",
"168 109 OFFCURVE",
"168 682 OFFCURVE",
"168 712 CURVE SMOOTH",
"168 740 OFFCURVE",
"163 753 OFFCURVE",
"153 753 CURVE"
);
}
);
userData = {
assembly = "SVTCA[0]\011/* SetFreedomAndProjectionVectorToAxis */
PUSHB[ ]\011/* 4 values pushed */
70 61 58 0 
CALL[ ]\011/* CallFunction */
IUP[0]\011/* InterpolateUntPts */
IUP[1]\011/* InterpolateUntPts */";
};
width = 463;
}
);
note = uni004C;
unicode = 004C;
},
{
color = 5;
glyphname = M;
lastChange = "2019-12-11 06:40:48 +0000";
layers = (
{
layerId = "47F7128E-F1A6-4572-9BDC-88462FF34A66";
paths = (
{
closed = 1;
nodes = (
"132 746 OFFCURVE",
"105 746 OFFCURVE",
"88 746 CURVE SMOOTH",
"67 746 OFFCURVE",
"58 735 OFFCURVE",
"58 710 CURVE SMOOTH",
"58 635 OFFCURVE",
"58 35 OFFCURVE",
"58 8 CURVE SMOOTH",
"58 -20 OFFCURVE",
"66 -31 OFFCURVE",
"82 -31 CURVE SMOOTH",
"100 -31 OFFCURVE",
"113 -31 OFFCURVE",
"128 -31 CURVE SMOOTH",
"143 -31 OFFCURVE",
"163 -14 OFFCURVE",
"163 13 CURVE SMOOTH",
"163 40 OFFCURVE",
"163 261 OFFCURVE",
"163 291 CURVE SMOOTH",
"163 321 OFFCURVE",
"177 319 OFFCURVE",
"181 294 CURVE SMOOTH",
"183 282 OFFCURVE",
"201 184 OFFCURVE",
"205 163 CURVE SMOOTH",
"208 142 OFFCURVE",
"213 130 OFFCURVE",
"224 130 CURVE SMOOTH",
"234 130 OFFCURVE",
"269 130 OFFCURVE",
"278 130 CURVE SMOOTH",
"287 130 OFFCURVE",
"301 149 OFFCURVE",
"289 191 CURVE SMOOTH",
"278 233 OFFCURVE",
"193 659 OFFCURVE",
"186 695 CURVE SMOOTH",
"178 731 OFFCURVE",
"172 746 OFFCURVE",
"157 746 CURVE"
);
},
{
closed = 1;
nodes = (
"333 746 OFFCURVE",
"326 731 OFFCURVE",
"319 695 CURVE SMOOTH",
"311 659 OFFCURVE",
"226 233 OFFCURVE",
"215 191 CURVE SMOOTH",
"204 149 OFFCURVE",
"217 130 OFFCURVE",
"226 130 CURVE SMOOTH",
"236 130 OFFCURVE",
"271 130 OFFCURVE",
"281 130 CURVE SMOOTH",
"291 130 OFFCURVE",
"296 142 OFFCURVE",
"300 163 CURVE SMOOTH",
"303 184 OFFCURVE",
"321 282 OFFCURVE",
"323 294 CURVE SMOOTH",
"327 319 OFFCURVE",
"341 321 OFFCURVE",
"341 291 CURVE SMOOTH",
"341 261 OFFCURVE",
"341 40 OFFCURVE",
"341 13 CURVE SMOOTH",
"341 -14 OFFCURVE",
"362 -31 OFFCURVE",
"377 -31 CURVE SMOOTH",
"392 -31 OFFCURVE",
"404 -31 OFFCURVE",
"422 -31 CURVE SMOOTH",
"439 -31 OFFCURVE",
"446 -20 OFFCURVE",
"446 8 CURVE SMOOTH",
"446 35 OFFCURVE",
"446 635 OFFCURVE",
"446 710 CURVE SMOOTH",
"446 735 OFFCURVE",
"437 746 OFFCURVE",
"416 746 CURVE SMOOTH",
"399 746 OFFCURVE",
"372 746 OFFCURVE",
"348 746 CURVE"
);
}
);
userData = {
assembly = "SVTCA[0]\011/* SetFreedomAndProjectionVectorToAxis */
IUP[0]\011/* InterpolateUntPts */
IUP[1]\011/* InterpolateUntPts */";
};
width = 500;
}
);
note = uni004D;
unicode = 004D;
},
{
color = 5;
glyphname = N;
lastChange = "2019-12-11 06:40:48 +0000";
layers = (
{
layerId = "47F7128E-F1A6-4572-9BDC-88462FF34A66";
paths = (
{
closed = 1;
nodes = (
"143 755 OFFCURVE",
"80 755 OFFCURVE",
"63 755 CURVE SMOOTH",
"46 755 OFFCURVE",
"43 723 OFFCURVE",
"43 703 CURVE SMOOTH",
"43 683 OFFCURVE",
"43 30 OFFCURVE",
"43 15 CURVE SMOOTH",
"43 0 OFFCURVE",
"49 -17 OFFCURVE",
"58 -17 CURVE SMOOTH",
"67 -17 OFFCURVE",
"124 -17 OFFCURVE",
"140 -17 CURVE SMOOTH",
"156 -17 OFFCURVE",
"164 -2 OFFCURVE",
"164 21 CURVE SMOOTH",
"164 44 OFFCURVE",
"164 392 OFFCURVE",
"164 417 CURVE SMOOTH",
"164 442 OFFCURVE",
"178 440 OFFCURVE",
"186 419 CURVE SMOOTH",
"194 398 OFFCURVE",
"329 5 OFFCURVE",
"334 -7 CURVE SMOOTH",
"339 -19 OFFCURVE",
"346 -25 OFFCURVE",
"358 -25 CURVE SMOOTH",
"370 -25 OFFCURVE",
"421 -25 OFFCURVE",
"434 -25 CURVE SMOOTH",
"447 -25 OFFCURVE",
"452 -18 OFFCURVE",
"452 2 CURVE SMOOTH",
"452 22 OFFCURVE",
"452 692 OFFCURVE",
"452 713 CURVE SMOOTH",
"452 734 OFFCURVE",
"447 748 OFFCURVE",
"427 748 CURVE SMOOTH",
"407 748 OFFCURVE",
"371 748 OFFCURVE",
"355 748 CURVE SMOOTH",
"339 748 OFFCURVE",
"329 735 OFFCURVE",
"329 713 CURVE SMOOTH",
"329 691 OFFCURVE",
"333 452 OFFCURVE",
"333 428 CURVE SMOOTH",
"333 404 OFFCURVE",
"319 403 OFFCURVE",
"310 426 CURVE SMOOTH",
"297 459 OFFCURVE",
"201 708 OFFCURVE",
"196 730 CURVE SMOOTH",
"191 752 OFFCURVE",
"184 755 OFFCURVE",
"170 755 CURVE"
);
}
);
userData = {
assembly = "SVTCA[0]\011/* SetFreedomAndProjectionVectorToAxis */
IUP[0]\011/* InterpolateUntPts */
IUP[1]\011/* InterpolateUntPts */";
};
width = 500;
}
);
note = uni004E;
unicode = 004E;
},
{
color = 5;
glyphname = O;
lastChange = "2019-12-11 06:40:48 +0000";
layers = (
{
layerId = "47F7128E-F1A6-4572-9BDC-88462FF34A66";
paths = (
{
closed = 1;
nodes = (
"186 46 OFFCURVE",
"145 199 OFFCURVE",
"145 347 CURVE SMOOTH",
"145 456 OFFCURVE",
"178 688 OFFCURVE",
"269 688 CURVE SMOOTH",
"319 688 OFFCURVE",
"356 450 OFFCURVE",
"356 347 CURVE SMOOTH",
"356 185 OFFCURVE",
"328 46 OFFCURVE",
"275 46 CURVE SMOOTH"
);
},
{
closed = 1;
nodes = (
"455 -25 OFFCURVE",
"455 96 OFFCURVE",
"455 347 CURVE SMOOTH",
"455 555 OFFCURVE",
"434 752 OFFCURVE",
"263 752 CURVE SMOOTH",
"104 752 OFFCURVE",
"41 567 OFFCURVE",
"41 347 CURVE SMOOTH",
"41 174 OFFCURVE",
"104 -25 OFFCURVE",
"217 -25 CURVE SMOOTH"
);
}
);
userData = {
assembly = "SVTCA[0]\011/* SetFreedomAndProjectionVectorToAxis */
IUP[0]\011/* InterpolateUntPts */
IUP[1]\011/* InterpolateUntPts */";
};
width = 500;
}
);
note = uni004F;
unicode = 004F;
},
{
color = 5;
glyphname = Oslash;
lastChange = "2019-12-11 06:40:48 +0000";
layers = (
{
components = (
{
name = O;
}
);
layerId = "47F7128E-F1A6-4572-9BDC-88462FF34A66";
paths = (
{
closed = 1;
nodes = (
"415 850 OFFCURVE",
"388 850 OFFCURVE",
"376 850 CURVE SMOOTH",
"364 850 OFFCURVE",
"344 834 OFFCURVE",
"338 814 CURVE SMOOTH",
"332 794 OFFCURVE",
"50 -42 OFFCURVE",
"45 -56 CURVE SMOOTH",
"40 -70 OFFCURVE",
"37 -105 OFFCURVE",
"54 -105 CURVE SMOOTH",
"71 -105 OFFCURVE",
"92 -105 OFFCURVE",
"102 -105 CURVE SMOOTH",
"112 -105 OFFCURVE",
"129 -94 OFFCURVE",
"141 -67 CURVE SMOOTH",
"153 -40 OFFCURVE",
"433 766 OFFCURVE",
"442 788 CURVE SMOOTH",
"451 810 OFFCURVE",
"459 850 OFFCURVE",
"440 850 CURVE"
);
}
);
width = 489;
}
);
unicode = 00D8;
},
{
color = 5;
glyphname = P;
lastChange = "2019-12-11 06:40:48 +0000";
layers = (
{
layerId = "47F7128E-F1A6-4572-9BDC-88462FF34A66";
paths = (
{
closed = 1;
nodes = (
"134 697 LINE",
"147 697 OFFCURVE",
"163 697 OFFCURVE",
"207 697 CURVE SMOOTH",
"266 697 OFFCURVE",
"338 659 OFFCURVE",
"338 525 CURVE SMOOTH",
"338 403 OFFCURVE",
"279 340 OFFCURVE",
"204 340 CURVE SMOOTH",
"128 340 LINE",
"128 292 LINE",
"153 292 OFFCURVE",
"165 292 OFFCURVE",
"204 292 CURVE SMOOTH",
"296 292 OFFCURVE",
"458 299 OFFCURVE",
"458 529 CURVE SMOOTH",
"458 710 OFFCURVE",
"346 743 OFFCURVE",
"206 743 CURVE SMOOTH",
"128 743 LINE",
"89 743 LINE SMOOTH",
"70 743 OFFCURVE",
"55 727 OFFCURVE",
"55 708 CURVE SMOOTH",
"55 34 LINE SMOOTH",
"55 15 OFFCURVE",
"70 0 OFFCURVE",
"89 0 CURVE SMOOTH",
"128 0 LINE SMOOTH",
"147 0 OFFCURVE",
"162 15 OFFCURVE",
"162 34 CURVE SMOOTH",
"162 712 LINE"
);
}
);
userData = {
assembly = "PUSHB[ ]\011/* 8 values pushed */
104 103 102 101 120 13 12 7 
CALL[ ]\011/* CallFunction */
SVTCA[0]\011/* SetFreedomAndProjectionVectorToAxis */
IUP[0]\011/* InterpolateUntPts */
IUP[1]\011/* InterpolateUntPts */";
};
width = 500;
}
);
note = uni0050;
unicode = 0050;
},
{
color = 5;
glyphname = Thorn;
lastChange = "2019-12-11 06:40:48 +0000";
layers = (
{
layerId = "47F7128E-F1A6-4572-9BDC-88462FF34A66";
paths = (
{
closed = 1;
nodes = (
"77 34 LINE SMOOTH",
"77 15 OFFCURVE",
"92 0 OFFCURVE",
"111 0 CURVE SMOOTH",
"155 0 LINE SMOOTH",
"174 0 OFFCURVE",
"189 15 OFFCURVE",
"189 34 CURVE SMOOTH",
"189 708 LINE SMOOTH",
"189 727 OFFCURVE",
"174 742 OFFCURVE",
"155 742 CURVE SMOOTH",
"111 742 LINE SMOOTH",
"92 742 OFFCURVE",
"77 727 OFFCURVE",
"77 708 CURVE SMOOTH"
);
},
{
closed = 1;
nodes = (
"145 573 LINE",
"145 531 LINE",
"199 531 OFFCURVE",
"225 531 OFFCURVE",
"307 531 CURVE SMOOTH",
"389 531 OFFCURVE",
"419 476 OFFCURVE",
"419 374 CURVE SMOOTH",
"419 272 OFFCURVE",
"379 203 OFFCURVE",
"290 203 CURVE SMOOTH",
"143 203 LINE",
"143 158 LINE",
"192 158 OFFCURVE",
"201 158 OFFCURVE",
"291 158 CURVE SMOOTH",
"381 158 OFFCURVE",
"525 167 OFFCURVE",
"525 375 CURVE SMOOTH",
"525 553 OFFCURVE",
"327 573 OFFCURVE",
"297 573 CURVE"
);
}
);
width = 600;
}
);
unicode = 00DE;
},
{
color = 5;
glyphname = Q;
lastChange = "2019-12-11 06:40:48 +0000";
layers = (
{
layerId = "47F7128E-F1A6-4572-9BDC-88462FF34A66";
paths = (
{
closed = 1;
nodes = (
"176 46 OFFCURVE",
"135 199 OFFCURVE",
"135 347 CURVE SMOOTH",
"135 456 OFFCURVE",
"168 688 OFFCURVE",
"259 688 CURVE SMOOTH",
"309 688 OFFCURVE",
"346 450 OFFCURVE",
"346 347 CURVE SMOOTH",
"346 185 OFFCURVE",
"318 46 OFFCURVE",
"265 46 CURVE SMOOTH"
);
},
{
closed = 1;
nodes = (
"445 -25 OFFCURVE",
"445 96 OFFCURVE",
"445 347 CURVE SMOOTH",
"445 555 OFFCURVE",
"424 752 OFFCURVE",
"253 752 CURVE SMOOTH",
"94 752 OFFCURVE",
"31 567 OFFCURVE",
"31 347 CURVE SMOOTH",
"31 174 OFFCURVE",
"94 -25 OFFCURVE",
"207 -25 CURVE SMOOTH"
);
},
{
closed = 1;
nodes = (
"235 324 OFFCURVE",
"209 324 OFFCURVE",
"193 324 CURVE SMOOTH",
"178 324 OFFCURVE",
"167 293 OFFCURVE",
"177 275 CURVE SMOOTH",
"187 257 OFFCURVE",
"331 4 OFFCURVE",
"342 -12 CURVE SMOOTH",
"353 -28 OFFCURVE",
"359 -36 OFFCURVE",
"374 -36 CURVE SMOOTH",
"390 -36 OFFCURVE",
"417 -36 OFFCURVE",
"429 -36 CURVE SMOOTH",
"441 -36 OFFCURVE",
"441 2 OFFCURVE",
"428 21 CURVE SMOOTH",
"415 40 OFFCURVE",
"292 278 OFFCURVE",
"284 297 CURVE SMOOTH",
"276 316 OFFCURVE",
"271 324 OFFCURVE",
"253 324 CURVE"
);
}
);
userData = {
assembly = "SVTCA[0]\011/* SetFreedomAndProjectionVectorToAxis */
IUP[0]\011/* InterpolateUntPts */
IUP[1]\011/* InterpolateUntPts */";
};
width = 500;
}
);
note = uni0051;
unicode = 0051;
},
{
color = 5;
glyphname = R;
lastChange = "2019-12-11 06:40:48 +0000";
layers = (
{
layerId = "47F7128E-F1A6-4572-9BDC-88462FF34A66";
paths = (
{
closed = 1;
nodes = (
"154 702 LINE",
"167 702 OFFCURVE",
"183 702 OFFCURVE",
"227 702 CURVE SMOOTH",
"286 702 OFFCURVE",
"338 668 OFFCURVE",
"338 547 CURVE SMOOTH",
"338 438 OFFCURVE",
"299 381 OFFCURVE",
"224 381 CURVE SMOOTH",
"148 381 LINE",
"148 338 LINE",
"173 338 OFFCURVE",
"185 338 OFFCURVE",
"224 338 CURVE SMOOTH",
"316 338 OFFCURVE",
"458 344 OFFCURVE",
"458 551 CURVE SMOOTH",
"458 713 OFFCURVE",
"366 743 OFFCURVE",
"226 743 CURVE SMOOTH",
"148 743 LINE",
"109 743 LINE SMOOTH",
"90 743 OFFCURVE",
"75 729 OFFCURVE",
"75 712 CURVE SMOOTH",
"75 34 LINE SMOOTH",
"75 15 OFFCURVE",
"90 0 OFFCURVE",
"109 0 CURVE SMOOTH",
"148 0 LINE SMOOTH",
"167 0 OFFCURVE",
"182 15 OFFCURVE",
"182 34 CURVE SMOOTH",
"182 715 LINE"
);
},
{
closed = 1;
nodes = (
"227 349 OFFCURVE",
"201 349 OFFCURVE",
"185 349 CURVE SMOOTH",
"170 349 OFFCURVE",
"159 319 OFFCURVE",
"169 302 CURVE SMOOTH",
"179 285 OFFCURVE",
"315 54 OFFCURVE",
"334 23 CURVE SMOOTH",
"344 7 OFFCURVE",
"351 0 OFFCURVE",
"366 0 CURVE SMOOTH",
"382 0 OFFCURVE",
"409 0 OFFCURVE",
"421 0 CURVE SMOOTH",
"433 0 OFFCURVE",
"435 28 OFFCURVE",
"420 54 CURVE SMOOTH",
"405 80 OFFCURVE",
"284 305 OFFCURVE",
"276 323 CURVE SMOOTH",
"268 341 OFFCURVE",
"263 349 OFFCURVE",
"245 349 CURVE"
);
}
);
userData = {
assembly = "PUSHB[ ]\011/* 8 values pushed */
40 115 103 0 126 108 11 0 
CALL[ ]\011/* CallFunction */
CALL[ ]\011/* CallFunction */
SVTCA[0]\011/* SetFreedomAndProjectionVectorToAxis */
IUP[0]\011/* InterpolateUntPts */
IUP[1]\011/* InterpolateUntPts */";
};
width = 500;
}
);
note = uni0052;
unicode = 0052;
},
{
color = 5;
glyphname = S;
lastChange = "2019-12-11 06:40:48 +0000";
layers = (
{
layerId = "47F7128E-F1A6-4572-9BDC-88462FF34A66";
paths = (
{
closed = 1;
nodes = (
"73 756 OFFCURVE",
"44 621 OFFCURVE",
"44 552 CURVE SMOOTH",
"44 444 OFFCURVE",
"66 382 OFFCURVE",
"250 340 CURVE SMOOTH",
"341 319 OFFCURVE",
"344 247 OFFCURVE",
"344 183 CURVE SMOOTH",
"344 119 OFFCURVE",
"330 22 OFFCURVE",
"262 22 CURVE SMOOTH",
"194 22 OFFCURVE",
"148 85 OFFCURVE",
"148 194 CURVE SMOOTH",
"148 226 OFFCURVE",
"136 228 OFFCURVE",
"115 223 CURVE SMOOTH",
"94 218 OFFCURVE",
"67 213 OFFCURVE",
"55 211 CURVE SMOOTH",
"43 209 OFFCURVE",
"38 200 OFFCURVE",
"38 179 CURVE SMOOTH",
"38 50 OFFCURVE",
"108 -31 OFFCURVE",
"255 -31 CURVE SMOOTH",
"402 -31 OFFCURVE",
"449 23 OFFCURVE",
"449 188 CURVE SMOOTH",
"449 353 OFFCURVE",
"394 353 OFFCURVE",
"269 406 CURVE SMOOTH",
"178 444 OFFCURVE",
"152 473 OFFCURVE",
"152 556 CURVE SMOOTH",
"152 639 OFFCURVE",
"205 697 OFFCURVE",
"243 697 CURVE SMOOTH",
"281 697 OFFCURVE",
"300 678 OFFCURVE",
"312 666 CURVE SMOOTH",
"324 654 OFFCURVE",
"338 639 OFFCURVE",
"355 636 CURVE SMOOTH",
"372 633 OFFCURVE",
"403 628 OFFCURVE",
"418 627 CURVE SMOOTH",
"433 626 OFFCURVE",
"441 639 OFFCURVE",
"441 650 CURVE SMOOTH",
"441 661 OFFCURVE",
"348 756 OFFCURVE",
"240 756 CURVE"
);
}
);
userData = {
assembly = "SVTCA[0]\011/* SetFreedomAndProjectionVectorToAxis */
IUP[0]\011/* InterpolateUntPts */
IUP[1]\011/* InterpolateUntPts */";
};
width = 482;
}
);
note = uni0053;
unicode = 0053;
},
{
color = 5;
glyphname = T;
lastChange = "2019-12-11 06:40:48 +0000";
layers = (
{
layerId = "47F7128E-F1A6-4572-9BDC-88462FF34A66";
paths = (
{
closed = 1;
nodes = (
"45 703 OFFCURVE",
"60 688 OFFCURVE",
"79 688 CURVE SMOOTH",
"429 688 LINE SMOOTH",
"448 688 OFFCURVE",
"463 703 OFFCURVE",
"463 722 CURVE SMOOTH",
"463 741 OFFCURVE",
"448 755 OFFCURVE",
"429 755 CURVE SMOOTH",
"79 755 LINE SMOOTH",
"60 755 OFFCURVE",
"45 741 OFFCURVE",
"45 722 CURVE SMOOTH"
);
},
{
closed = 1;
nodes = (
"199 18 LINE SMOOTH",
"199 -1 OFFCURVE",
"214 -16 OFFCURVE",
"233 -16 CURVE SMOOTH",
"276 -16 LINE SMOOTH",
"295 -16 OFFCURVE",
"310 -1 OFFCURVE",
"310 18 CURVE SMOOTH",
"310 695 LINE SMOOTH",
"310 714 OFFCURVE",
"295 729 OFFCURVE",
"276 729 CURVE SMOOTH",
"233 729 LINE SMOOTH",
"214 729 OFFCURVE",
"199 714 OFFCURVE",
"199 695 CURVE SMOOTH"
);
}
);
userData = {
assembly = "PUSHB[ ]\011/* 4 values pushed */
54 116 11 0 
CALL[ ]\011/* CallFunction */
SVTCA[0]\011/* SetFreedomAndProjectionVectorToAxis */
PUSHB[ ]\011/* 4 values pushed */
49 72 43 0 
CALL[ ]\011/* CallFunction */
IUP[0]\011/* InterpolateUntPts */
IUP[1]\011/* InterpolateUntPts */";
};
width = 500;
}
);
note = uni0054;
unicode = 0054;
},
{
color = 5;
glyphname = U;
lastChange = "2019-12-11 06:40:48 +0000";
layers = (
{
layerId = "47F7128E-F1A6-4572-9BDC-88462FF34A66";
paths = (
{
closed = 1;
nodes = (
"375 745 LINE SMOOTH",
"357 745 OFFCURVE",
"334 742 OFFCURVE",
"334 719 CURVE SMOOTH",
"334 131 LINE SMOOTH",
"334 87 OFFCURVE",
"300 36 OFFCURVE",
"258 36 CURVE SMOOTH",
"220 36 OFFCURVE",
"162 80 OFFCURVE",
"162 142 CURVE SMOOTH",
"162 719 LINE SMOOTH",
"162 742 OFFCURVE",
"139 745 OFFCURVE",
"121 745 CURVE SMOOTH",
"78 745 LINE SMOOTH",
"67 745 OFFCURVE",
"47 739 OFFCURVE",
"47 714 CURVE SMOOTH",
"47 115 LINE SMOOTH",
"47 30 OFFCURVE",
"157 -23 OFFCURVE",
"258 -23 CURVE SMOOTH",
"388 -23 OFFCURVE",
"449 49 OFFCURVE",
"449 135 CURVE SMOOTH",
"449 714 LINE SMOOTH",
"449 739 OFFCURVE",
"429 745 OFFCURVE",
"418 745 CURVE SMOOTH"
);
}
);
userData = {
assembly = "PUSHB[ ]\011/* 7 values pushed */
33 32 121 24 22 23 9 
CALL[ ]\011/* CallFunction */
SVTCA[0]\011/* SetFreedomAndProjectionVectorToAxis */
IUP[0]\011/* InterpolateUntPts */
IUP[1]\011/* InterpolateUntPts */";
};
width = 500;
}
);
note = uni0055;
unicode = 0055;
},
{
color = 5;
glyphname = V;
lastChange = "2019-12-11 06:40:48 +0000";
layers = (
{
layerId = "47F7128E-F1A6-4572-9BDC-88462FF34A66";
paths = (
{
closed = 1;
nodes = (
"42 758 OFFCURVE",
"38 744 OFFCURVE",
"45 703 CURVE SMOOTH",
"50 673 OFFCURVE",
"169 78 OFFCURVE",
"183 33 CURVE SMOOTH",
"197 -12 OFFCURVE",
"209 -22 OFFCURVE",
"231 -22 CURVE SMOOTH",
"253 -22 OFFCURVE",
"278 -22 OFFCURVE",
"304 -22 CURVE SMOOTH",
"330 -22 OFFCURVE",
"344 16 OFFCURVE",
"348 50 CURVE SMOOTH",
"352 84 OFFCURVE",
"457 661 OFFCURVE",
"464 708 CURVE SMOOTH",
"471 755 OFFCURVE",
"459 758 OFFCURVE",
"439 758 CURVE SMOOTH",
"419 758 OFFCURVE",
"412 758 OFFCURVE",
"394 758 CURVE SMOOTH",
"365 758 OFFCURVE",
"352 747 OFFCURVE",
"348 718 CURVE SMOOTH",
"252 158 LINE",
"272 158 LINE",
"160 719 LINE SMOOTH",
"154 748 OFFCURVE",
"145 760 OFFCURVE",
"128 760 CURVE SMOOTH",
"73 760 LINE SMOOTH"
);
}
);
userData = {
assembly = "SVTCA[0]\011/* SetFreedomAndProjectionVectorToAxis */
IUP[0]\011/* InterpolateUntPts */
IUP[1]\011/* InterpolateUntPts */";
};
width = 500;
}
);
note = uni0056;
unicode = 0056;
},
{
color = 5;
glyphname = W;
lastChange = "2019-12-11 06:40:48 +0000";
layers = (
{
layerId = "47F7128E-F1A6-4572-9BDC-88462FF34A66";
paths = (
{
closed = 1;
nodes = (
"408 760 LINE SMOOTH",
"388 760 OFFCURVE",
"388 742 OFFCURVE",
"384 719 CURVE SMOOTH",
"380 698 OFFCURVE",
"362 413 OFFCURVE",
"339 220 CURVE",
"302 551 LINE SMOOTH",
"299 577 OFFCURVE",
"295 591 OFFCURVE",
"277 591 CURVE SMOOTH",
"306 591 OFFCURVE",
"236 591 OFFCURVE",
"235 591 CURVE SMOOTH",
"218 591 OFFCURVE",
"213 581 OFFCURVE",
"210 551 CURVE SMOOTH",
"173 220 LINE",
"150 413 OFFCURVE",
"132 698 OFFCURVE",
"128 719 CURVE SMOOTH",
"124 742 OFFCURVE",
"124 760 OFFCURVE",
"104 760 CURVE SMOOTH",
"64 760 LINE",
"41 758 OFFCURVE",
"38 744 OFFCURVE",
"43 703 CURVE SMOOTH",
"47 673 OFFCURVE",
"105 78 OFFCURVE",
"115 33 CURVE SMOOTH",
"125 -12 OFFCURVE",
"134 -23 OFFCURVE",
"151 -22 CURVE SMOOTH",
"167 -21 OFFCURVE",
"185 -22 OFFCURVE",
"205 -22 CURVE SMOOTH",
"224 -22 OFFCURVE",
"234 16 OFFCURVE",
"237 50 CURVE SMOOTH",
"238 63 OFFCURVE",
"246 130 OFFCURVE",
"256 211 CURVE",
"266 130 OFFCURVE",
"274 63 OFFCURVE",
"275 50 CURVE SMOOTH",
"278 16 OFFCURVE",
"288 -22 OFFCURVE",
"307 -22 CURVE SMOOTH",
"327 -22 OFFCURVE",
"345 -21 OFFCURVE",
"361 -22 CURVE SMOOTH",
"378 -23 OFFCURVE",
"387 -12 OFFCURVE",
"397 33 CURVE SMOOTH",
"407 78 OFFCURVE",
"465 673 OFFCURVE",
"469 703 CURVE SMOOTH",
"474 744 OFFCURVE",
"471 760 OFFCURVE",
"448 760 CURVE SMOOTH"
);
}
);
userData = {
assembly = "SVTCA[0]\011/* SetFreedomAndProjectionVectorToAxis */
IUP[0]\011/* InterpolateUntPts */
IUP[1]\011/* InterpolateUntPts */";
};
width = 500;
}
);
note = uni0057;
unicode = 0057;
},
{
color = 5;
glyphname = X;
lastChange = "2019-12-11 06:40:48 +0000";
layers = (
{
layerId = "47F7128E-F1A6-4572-9BDC-88462FF34A66";
paths = (
{
closed = 1;
nodes = (
"80 753 LINE SMOOTH",
"56 753 OFFCURVE",
"46 738 OFFCURVE",
"54 715 CURVE SMOOTH",
"311 15 LINE SMOOTH",
"317 -3 OFFCURVE",
"330 -11 OFFCURVE",
"349 -11 CURVE SMOOTH",
"404 -11 LINE SMOOTH",
"428 -11 OFFCURVE",
"438 4 OFFCURVE",
"430 27 CURVE SMOOTH",
"175 727 LINE SMOOTH",
"169 745 OFFCURVE",
"156 753 OFFCURVE",
"137 753 CURVE SMOOTH"
);
},
{
closed = 1;
nodes = (
"358 753 OFFCURVE",
"345 745 OFFCURVE",
"339 727 CURVE SMOOTH",
"84 27 LINE SMOOTH",
"76 4 OFFCURVE",
"86 -11 OFFCURVE",
"110 -11 CURVE SMOOTH",
"165 -11 LINE SMOOTH",
"184 -11 OFFCURVE",
"196 -3 OFFCURVE",
"203 15 CURVE SMOOTH",
"460 715 LINE SMOOTH",
"468 738 OFFCURVE",
"458 753 OFFCURVE",
"434 753 CURVE SMOOTH",
"377 753 LINE SMOOTH"
);
}
);
userData = {
assembly = "SVTCA[0]\011/* SetFreedomAndProjectionVectorToAxis */
IUP[0]\011/* InterpolateUntPts */
IUP[1]\011/* InterpolateUntPts */";
};
width = 500;
}
);
note = uni0058;
unicode = 0058;
},
{
color = 5;
glyphname = Y;
lastChange = "2019-12-11 06:40:48 +0000";
layers = (
{
layerId = "47F7128E-F1A6-4572-9BDC-88462FF34A66";
paths = (
{
closed = 1;
nodes = (
"80 743 LINE SMOOTH",
"56 743 OFFCURVE",
"45 728 OFFCURVE",
"54 705 CURVE SMOOTH",
"204 312 LINE SMOOTH",
"211 295 OFFCURVE",
"219 286 OFFCURVE",
"233 286 CURVE SMOOTH",
"276 286 LINE SMOOTH",
"295 286 OFFCURVE",
"303 301 OFFCURVE",
"296 324 CURVE SMOOTH",
"175 717 LINE SMOOTH",
"169 735 OFFCURVE",
"156 743 OFFCURVE",
"137 743 CURVE SMOOTH"
);
},
{
closed = 1;
nodes = (
"363 743 OFFCURVE",
"350 735 OFFCURVE",
"344 717 CURVE SMOOTH",
"223 324 LINE SMOOTH",
"216 301 OFFCURVE",
"224 286 OFFCURVE",
"243 286 CURVE SMOOTH",
"286 286 LINE SMOOTH",
"300 286 OFFCURVE",
"308 295 OFFCURVE",
"315 312 CURVE SMOOTH",
"465 705 LINE SMOOTH",
"474 728 OFFCURVE",
"463 743 OFFCURVE",
"439 743 CURVE SMOOTH",
"382 743 LINE SMOOTH"
);
},
{
closed = 1;
nodes = (
"208 16 LINE SMOOTH",
"208 -8 OFFCURVE",
"220 -21 OFFCURVE",
"241 -21 CURVE SMOOTH",
"279 -21 LINE SMOOTH",
"300 -21 OFFCURVE",
"312 -8 OFFCURVE",
"312 16 CURVE SMOOTH",
"312 352 LINE SMOOTH",
"312 375 OFFCURVE",
"300 389 OFFCURVE",
"279 389 CURVE SMOOTH",
"241 389 LINE SMOOTH",
"220 389 OFFCURVE",
"208 375 OFFCURVE",
"208 352 CURVE SMOOTH"
);
}
);
userData = {
assembly = "SVTCA[0]\011/* SetFreedomAndProjectionVectorToAxis */
IUP[0]\011/* InterpolateUntPts */
IUP[1]\011/* InterpolateUntPts */";
};
width = 500;
}
);
note = uni0059;
unicode = 0059;
},
{
color = 5;
glyphname = Z;
lastChange = "2019-12-11 06:40:48 +0000";
layers = (
{
layerId = "47F7128E-F1A6-4572-9BDC-88462FF34A66";
paths = (
{
closed = 1;
nodes = (
"349 746 OFFCURVE",
"124 746 OFFCURVE",
"86 746 CURVE SMOOTH",
"48 746 OFFCURVE",
"50 737 OFFCURVE",
"50 720 CURVE SMOOTH",
"50 703 OFFCURVE",
"56 687 OFFCURVE",
"86 687 CURVE SMOOTH",
"116 687 OFFCURVE",
"256 683 OFFCURVE",
"275 683 CURVE SMOOTH",
"294 683 OFFCURVE",
"298 683 OFFCURVE",
"285 655 CURVE SMOOTH",
"272 627 OFFCURVE",
"47 46 OFFCURVE",
"35 23 CURVE SMOOTH",
"23 0 OFFCURVE",
"34 -25 OFFCURVE",
"62 -25 CURVE SMOOTH",
"90 -25 OFFCURVE",
"378 -24 OFFCURVE",
"408 -24 CURVE SMOOTH",
"438 -24 OFFCURVE",
"453 -17 OFFCURVE",
"453 9 CURVE SMOOTH",
"453 35 OFFCURVE",
"435 52 OFFCURVE",
"409 52 CURVE SMOOTH",
"383 52 OFFCURVE",
"220 52 OFFCURVE",
"193 52 CURVE SMOOTH",
"166 52 OFFCURVE",
"181 74 OFFCURVE",
"192 101 CURVE SMOOTH",
"208 140 OFFCURVE",
"419 652 OFFCURVE",
"435 688 CURVE SMOOTH",
"451 724 OFFCURVE",
"431 746 OFFCURVE",
"399 746 CURVE"
);
}
);
userData = {
assembly = "SVTCA[0]\011/* SetFreedomAndProjectionVectorToAxis */
IUP[0]\011/* InterpolateUntPts */
IUP[1]\011/* InterpolateUntPts */";
};
width = 500;
}
);
note = uni005A;
unicode = 005A;
},
{
color = 5;
glyphname = a;
lastChange = "2019-12-11 06:40:48 +0000";
layers = (
{
layerId = "47F7128E-F1A6-4572-9BDC-88462FF34A66";
paths = (
{
closed = 1;
nodes = (
"100 538 OFFCURVE",
"21 396 OFFCURVE",
"21 250 CURVE SMOOTH",
"21 104 OFFCURVE",
"40 -26 OFFCURVE",
"148 -26 CURVE SMOOTH",
"218 -26 OFFCURVE",
"275 23 OFFCURVE",
"287 35 CURVE SMOOTH",
"299 47 OFFCURVE",
"304 49 OFFCURVE",
"311 32 CURVE SMOOTH",
"318 15 OFFCURVE",
"322 3 OFFCURVE",
"326 -5 CURVE SMOOTH",
"330 -13 OFFCURVE",
"340 -28 OFFCURVE",
"353 -28 CURVE SMOOTH",
"366 -28 OFFCURVE",
"409 -28 OFFCURVE",
"426 -28 CURVE SMOOTH",
"443 -28 OFFCURVE",
"444 -5 OFFCURVE",
"437 18 CURVE SMOOTH",
"430 41 OFFCURVE",
"408 131 OFFCURVE",
"408 195 CURVE SMOOTH",
"408 259 OFFCURVE",
"414 300 OFFCURVE",
"418 318 CURVE SMOOTH",
"422 336 OFFCURVE",
"416 369 OFFCURVE",
"408 391 CURVE SMOOTH",
"391 438 OFFCURVE",
"337 538 OFFCURVE",
"218 538 CURVE"
);
},
{
closed = 1;
nodes = (
"244 471 OFFCURVE",
"293 438 OFFCURVE",
"293 355 CURVE SMOOTH",
"293 239 OFFCURVE",
"244 50 OFFCURVE",
"200 50 CURVE SMOOTH",
"156 50 OFFCURVE",
"135 124 OFFCURVE",
"135 245 CURVE SMOOTH",
"135 366 OFFCURVE",
"168 471 OFFCURVE",
"217 471 CURVE"
);
}
);
userData = {
assembly = "SVTCA[0]\011/* SetFreedomAndProjectionVectorToAxis */
IUP[0]\011/* InterpolateUntPts */
IUP[1]\011/* InterpolateUntPts */";
};
width = 474;
}
);
note = uni0061;
unicode = 0061;
},
{
color = 5;
glyphname = ae;
lastChange = "2019-12-11 06:40:48 +0000";
layers = (
{
components = (
{
name = e;
transform = "{1, 0, 0, 1, 271, 0}";
}
);
layerId = "47F7128E-F1A6-4572-9BDC-88462FF34A66";
paths = (
{
closed = 1;
nodes = (
"423 439 LINE",
"423 477 OFFCURVE",
"363 538 OFFCURVE",
"218 538 CURVE",
"100 538 OFFCURVE",
"21 416 OFFCURVE",
"21 270 CURVE SMOOTH",
"21 124 OFFCURVE",
"66 -16 OFFCURVE",
"188 -16 CURVE SMOOTH",
"324 -16 OFFCURVE",
"412 169 OFFCURVE",
"412 356 CURVE",
"308 332 LINE",
"308 169 OFFCURVE",
"234 75 OFFCURVE",
"191 75 CURVE SMOOTH",
"147 75 OFFCURVE",
"135 144 OFFCURVE",
"135 265 CURVE SMOOTH",
"135 386 OFFCURVE",
"168 471 OFFCURVE",
"217 471 CURVE",
"281 471 OFFCURVE",
"324 401 OFFCURVE",
"324 371 CURVE"
);
}
);
width = 771;
}
);
leftMetricsKey = a;
rightMetricsKey = e;
unicode = 00E6;
},
{
color = 5;
glyphname = b;
lastChange = "2019-12-11 06:40:48 +0000";
layers = (
{
layerId = "47F7128E-F1A6-4572-9BDC-88462FF34A66";
paths = (
{
closed = 1;
nodes = (
"45 11 LINE SMOOTH",
"45 -8 OFFCURVE",
"60 -23 OFFCURVE",
"79 -23 CURVE SMOOTH",
"124 -23 LINE SMOOTH",
"143 -23 OFFCURVE",
"158 -8 OFFCURVE",
"158 11 CURVE SMOOTH",
"158 728 LINE SMOOTH",
"158 747 OFFCURVE",
"143 762 OFFCURVE",
"124 762 CURVE SMOOTH",
"79 762 LINE SMOOTH",
"60 762 OFFCURVE",
"45 747 OFFCURVE",
"45 728 CURVE SMOOTH"
);
},
{
closed = 1;
nodes = (
"209 505 OFFCURVE",
"93 493 OFFCURVE",
"93 280 CURVE SMOOTH",
"93 112 OFFCURVE",
"120 -9 OFFCURVE",
"260 -9 CURVE SMOOTH",
"403 -9 OFFCURVE",
"448 80 OFFCURVE",
"448 260 CURVE SMOOTH",
"448 440 OFFCURVE",
"364 505 OFFCURVE",
"268 505 CURVE SMOOTH"
);
},
{
closed = 1;
nodes = (
"320 449 OFFCURVE",
"340 365 OFFCURVE",
"340 247 CURVE SMOOTH",
"340 129 OFFCURVE",
"308 46 OFFCURVE",
"269 46 CURVE SMOOTH",
"230 46 OFFCURVE",
"154 114 OFFCURVE",
"154 244 CURVE SMOOTH",
"154 374 OFFCURVE",
"238 449 OFFCURVE",
"268 449 CURVE"
);
}
);
userData = {
assembly = "SVTCA[0]\011/* SetFreedomAndProjectionVectorToAxis */
IUP[0]\011/* InterpolateUntPts */
IUP[1]\011/* InterpolateUntPts */";
};
width = 481;
}
);
note = uni0062;
unicode = 0062;
},
{
color = 5;
glyphname = c;
lastChange = "2019-12-11 06:40:48 +0000";
layers = (
{
layerId = "47F7128E-F1A6-4572-9BDC-88462FF34A66";
paths = (
{
closed = 1;
nodes = (
"136 526 OFFCURVE",
"41 462 OFFCURVE",
"41 249 CURVE SMOOTH",
"41 36 OFFCURVE",
"146 -27 OFFCURVE",
"230 -27 CURVE SMOOTH",
"356 -27 OFFCURVE",
"461 21 OFFCURVE",
"461 133 CURVE SMOOTH",
"461 182 OFFCURVE",
"441 193 OFFCURVE",
"428 193 CURVE SMOOTH",
"415 193 OFFCURVE",
"388 193 OFFCURVE",
"372 193 CURVE SMOOTH",
"356 193 OFFCURVE",
"338 185 OFFCURVE",
"338 160 CURVE SMOOTH",
"338 82 OFFCURVE",
"321 38 OFFCURVE",
"271 38 CURVE SMOOTH",
"221 38 OFFCURVE",
"148 101 OFFCURVE",
"148 258 CURVE SMOOTH",
"148 415 OFFCURVE",
"209 472 OFFCURVE",
"264 472 CURVE SMOOTH",
"304 472 OFFCURVE",
"334 415 OFFCURVE",
"334 371 CURVE SMOOTH",
"334 340 OFFCURVE",
"364 330 OFFCURVE",
"374 330 CURVE SMOOTH",
"384 330 OFFCURVE",
"417 330 OFFCURVE",
"428 330 CURVE SMOOTH",
"439 330 OFFCURVE",
"453 345 OFFCURVE",
"453 378 CURVE SMOOTH",
"453 409 OFFCURVE",
"406 526 OFFCURVE",
"255 526 CURVE"
);
}
);
userData = {
assembly = "SVTCA[0]\011/* SetFreedomAndProjectionVectorToAxis */
IUP[0]\011/* InterpolateUntPts */
IUP[1]\011/* InterpolateUntPts */";
};
width = 500;
}
);
note = uni0063;
unicode = 0063;
},
{
color = 5;
glyphname = d;
lastChange = "2019-12-11 06:40:48 +0000";
layers = (
{
layerId = "47F7128E-F1A6-4572-9BDC-88462FF34A66";
paths = (
{
closed = 1;
nodes = (
"436 751 OFFCURVE",
"421 766 OFFCURVE",
"402 766 CURVE SMOOTH",
"357 766 LINE SMOOTH",
"338 766 OFFCURVE",
"323 751 OFFCURVE",
"323 732 CURVE SMOOTH",
"323 15 LINE SMOOTH",
"323 -4 OFFCURVE",
"338 -19 OFFCURVE",
"357 -19 CURVE SMOOTH",
"402 -19 LINE SMOOTH",
"421 -19 OFFCURVE",
"436 -4 OFFCURVE",
"436 15 CURVE SMOOTH",
"436 732 LINE SMOOTH"
);
},
{
closed = 1;
nodes = (
"135 525 OFFCURVE",
"33 444 OFFCURVE",
"33 264 CURVE SMOOTH",
"33 84 OFFCURVE",
"90 -18 OFFCURVE",
"221 -18 CURVE SMOOTH",
"361 -18 OFFCURVE",
"408 116 OFFCURVE",
"408 284 CURVE SMOOTH",
"408 497 OFFCURVE",
"320 525 OFFCURVE",
"231 525 CURVE SMOOTH"
);
},
{
closed = 1;
nodes = (
"271 469 OFFCURVE",
"327 378 OFFCURVE",
"327 248 CURVE SMOOTH",
"327 118 OFFCURVE",
"261 37 OFFCURVE",
"222 37 CURVE SMOOTH",
"183 37 OFFCURVE",
"141 133 OFFCURVE",
"141 251 CURVE SMOOTH",
"141 369 OFFCURVE",
"189 469 OFFCURVE",
"241 469 CURVE"
);
}
);
userData = {
assembly = "SVTCA[0]\011/* SetFreedomAndProjectionVectorToAxis */
IUP[0]\011/* InterpolateUntPts */
IUP[1]\011/* InterpolateUntPts */";
};
width = 490;
}
);
note = uni0064;
unicode = 0064;
},
{
color = 5;
glyphname = eth;
lastChange = "2019-12-11 06:40:48 +0000";
layers = (
{
layerId = "47F7128E-F1A6-4572-9BDC-88462FF34A66";
paths = (
{
closed = 1;
nodes = (
"166 756 OFFCURVE",
"140 756 OFFCURVE",
"121 756 CURVE SMOOTH",
"102 756 OFFCURVE",
"78 755 OFFCURVE",
"78 740 CURVE SMOOTH",
"78 714 OFFCURVE",
"91 713 OFFCURVE",
"116 713 CURVE SMOOTH",
"211 713 OFFCURVE",
"337 516 OFFCURVE",
"337 295 CURVE SMOOTH",
"337 104 OFFCURVE",
"292 56 OFFCURVE",
"256 56 CURVE SMOOTH",
"220 56 OFFCURVE",
"176 103 OFFCURVE",
"176 183 CURVE SMOOTH",
"176 263 OFFCURVE",
"170 399 OFFCURVE",
"270 399 CURVE SMOOTH",
"352 399 OFFCURVE",
"367 338 OFFCURVE",
"367 194 CURVE",
"436 194 LINE",
"436 340 OFFCURVE",
"366 462 OFFCURVE",
"272 462 CURVE SMOOTH",
"107 462 OFFCURVE",
"54 349 OFFCURVE",
"54 183 CURVE SMOOTH",
"54 39 OFFCURVE",
"122 -7 OFFCURVE",
"258 -7 CURVE SMOOTH",
"420 -7 OFFCURVE",
"471 56 OFFCURVE",
"471 197 CURVE SMOOTH",
"471 640 OFFCURVE",
"334 756 OFFCURVE",
"199 756 CURVE"
);
},
{
closed = 1;
nodes = (
"431 739 OFFCURVE",
"401 739 OFFCURVE",
"387 739 CURVE SMOOTH",
"373 739 OFFCURVE",
"352 733 OFFCURVE",
"337 722 CURVE SMOOTH",
"322 711 OFFCURVE",
"84 544 OFFCURVE",
"70 534 CURVE SMOOTH",
"56 524 OFFCURVE",
"55 493 OFFCURVE",
"69 493 CURVE SMOOTH",
"83 493 OFFCURVE",
"102 493 OFFCURVE",
"110 493 CURVE SMOOTH",
"118 493 OFFCURVE",
"140 502 OFFCURVE",
"155 514 CURVE SMOOTH",
"170 526 OFFCURVE",
"426 682 OFFCURVE",
"449 697 CURVE SMOOTH",
"472 712 OFFCURVE",
"474 739 OFFCURVE",
"453 739 CURVE"
);
}
);
width = 500;
}
);
unicode = 00F0;
},
{
color = 5;
glyphname = e;
lastChange = "2019-12-11 06:40:48 +0000";
layers = (
{
layerId = "47F7128E-F1A6-4572-9BDC-88462FF34A66";
paths = (
{
closed = 1;
nodes = (
"130 532 OFFCURVE",
"23 449 OFFCURVE",
"23 253 CURVE SMOOTH",
"23 57 OFFCURVE",
"63 -29 OFFCURVE",
"256 -29 CURVE SMOOTH",
"449 -29 OFFCURVE",
"454 52 OFFCURVE",
"454 95 CURVE SMOOTH",
"454 112 OFFCURVE",
"448 130 OFFCURVE",
"433 130 CURVE SMOOTH",
"418 130 OFFCURVE",
"378 130 OFFCURVE",
"364 130 CURVE SMOOTH",
"350 130 OFFCURVE",
"333 113 OFFCURVE",
"333 100 CURVE SMOOTH",
"333 87 OFFCURVE",
"305 25 OFFCURVE",
"259 25 CURVE SMOOTH",
"213 25 OFFCURVE",
"145 89 OFFCURVE",
"145 237 CURVE SMOOTH",
"145 385 OFFCURVE",
"204 466 OFFCURVE",
"244 466 CURVE SMOOTH",
"284 466 OFFCURVE",
"328 343 OFFCURVE",
"328 291 CURVE",
"349 314 LINE",
"130 314 LINE",
"130 256 LINE",
"225.99 256 OFFCURVE",
"396 256 OFFCURVE",
"418 256 CURVE SMOOTH",
"440 256 OFFCURVE",
"458 266 OFFCURVE",
"458 305 CURVE SMOOTH",
"458 388 OFFCURVE",
"361 532 OFFCURVE",
"244 532 CURVE"
);
}
);
userData = {
assembly = "SVTCA[0]\011/* SetFreedomAndProjectionVectorToAxis */
IUP[0]\011/* InterpolateUntPts */
IUP[1]\011/* InterpolateUntPts */";
};
width = 500;
}
);
note = uni0065;
unicode = 0065;
},
{
color = 5;
glyphname = f;
lastChange = "2019-12-11 06:40:48 +0000";
layers = (
{
layerId = "47F7128E-F1A6-4572-9BDC-88462FF34A66";
paths = (
{
closed = 1;
nodes = (
"21 466 OFFCURVE",
"36 455 OFFCURVE",
"55 455 CURVE SMOOTH",
"403 455 LINE SMOOTH",
"422 455 OFFCURVE",
"437 467 OFFCURVE",
"437 482 CURVE SMOOTH",
"437 497 OFFCURVE",
"422 509 OFFCURVE",
"403 509 CURVE SMOOTH",
"55 509 LINE SMOOTH",
"36 509 OFFCURVE",
"21 497 OFFCURVE",
"21 482 CURVE SMOOTH"
);
},
{
closed = 1;
nodes = (
"160 755 OFFCURVE",
"128 712 OFFCURVE",
"128 638 CURVE SMOOTH",
"128 564 OFFCURVE",
"128 41 OFFCURVE",
"128 14 CURVE SMOOTH",
"128 -13 OFFCURVE",
"143 -26 OFFCURVE",
"160 -26 CURVE SMOOTH",
"177 -26 OFFCURVE",
"201 -26 OFFCURVE",
"218 -26 CURVE SMOOTH",
"235 -26 OFFCURVE",
"241 -11 OFFCURVE",
"241 15 CURVE SMOOTH",
"241 41 OFFCURVE",
"241 619 OFFCURVE",
"241 641 CURVE SMOOTH",
"241 663 OFFCURVE",
"250 681 OFFCURVE",
"264 681 CURVE SMOOTH",
"278 681 OFFCURVE",
"300 642 OFFCURVE",
"308 622 CURVE SMOOTH",
"316 602 OFFCURVE",
"328 591 OFFCURVE",
"343 591 CURVE",
"358 591 OFFCURVE",
"387 591 OFFCURVE",
"394 591 CURVE SMOOTH",
"401 591 OFFCURVE",
"410 606 OFFCURVE",
"410 626 CURVE SMOOTH",
"410 674 OFFCURVE",
"333 755 OFFCURVE",
"252 755 CURVE"
);
}
);
userData = {
assembly = "SVTCA[0]\011/* SetFreedomAndProjectionVectorToAxis */
IUP[0]\011/* InterpolateUntPts */
IUP[1]\011/* InterpolateUntPts */";
};
width = 458;
}
);
note = uni0066;
unicode = 0066;
},
{
color = 5;
glyphname = g;
lastChange = "2019-12-11 06:40:48 +0000";
layers = (
{
layerId = "47F7128E-F1A6-4572-9BDC-88462FF34A66";
paths = (
{
closed = 1;
nodes = (
"133 525 OFFCURVE",
"43 467 OFFCURVE",
"43 306 CURVE SMOOTH",
"43 145 OFFCURVE",
"104 66 OFFCURVE",
"243 66 CURVE SMOOTH",
"393 66 OFFCURVE",
"443 174 OFFCURVE",
"443 324 CURVE SMOOTH",
"443 514 OFFCURVE",
"330 525 OFFCURVE",
"235 525 CURVE SMOOTH"
);
},
{
closed = 1;
nodes = (
"278 467 OFFCURVE",
"357 403 OFFCURVE",
"357 293 CURVE SMOOTH",
"357 183 OFFCURVE",
"286 124 OFFCURVE",
"245 124 CURVE SMOOTH",
"203 124 OFFCURVE",
"158 194 OFFCURVE",
"158 296 CURVE SMOOTH",
"158 396 OFFCURVE",
"190 467 OFFCURVE",
"246 467 CURVE"
);
},
{
closed = 1;
nodes = (
"427 534 CURVE SMOOTH",
"402 534 OFFCURVE",
"380 534 OFFCURVE",
"366 534 CURVE SMOOTH",
"352 534 OFFCURVE",
"336 525 OFFCURVE",
"336 492 CURVE SMOOTH",
"336 459 OFFCURVE",
"336 78 OFFCURVE",
"336 39 CURVE SMOOTH",
"336 0 OFFCURVE",
"300 -52 OFFCURVE",
"272 -52 CURVE SMOOTH",
"244 -52 OFFCURVE",
"200 -18 OFFCURVE",
"188 -4 CURVE SMOOTH",
"176 10 OFFCURVE",
"152 12 OFFCURVE",
"138 7 CURVE SMOOTH",
"125 2 OFFCURVE",
"98 -9 OFFCURVE",
"81 -15 CURVE SMOOTH",
"70 -19 OFFCURVE",
"75 -40 OFFCURVE",
"87 -52 CURVE SMOOTH",
"101 -65 OFFCURVE",
"152 -111 OFFCURVE",
"256 -111 CURVE SMOOTH",
"374 -111 OFFCURVE",
"449 -53 OFFCURVE",
"449 58 CURVE SMOOTH",
"449 169 OFFCURVE",
"449 466 OFFCURVE",
"449 492 CURVE SMOOTH",
"449 523 OFFCURVE",
"447 534 OFFCURVE"
);
}
);
userData = {
assembly = "SVTCA[0]\011/* SetFreedomAndProjectionVectorToAxis */
IUP[0]\011/* InterpolateUntPts */
IUP[1]\011/* InterpolateUntPts */";
};
width = 500;
}
);
note = uni0067;
unicode = 0067;
},
{
color = 5;
glyphname = h;
lastChange = "2019-12-11 06:40:48 +0000";
layers = (
{
layerId = "47F7128E-F1A6-4572-9BDC-88462FF34A66";
paths = (
{
closed = 1;
nodes = (
"60 9 LINE SMOOTH",
"60 -10 OFFCURVE",
"75 -25 OFFCURVE",
"94 -25 CURVE SMOOTH",
"157 -25 LINE SMOOTH",
"176 -25 OFFCURVE",
"191 -10 OFFCURVE",
"191 9 CURVE SMOOTH",
"191 726 LINE SMOOTH",
"191 745 OFFCURVE",
"176 760 OFFCURVE",
"157 760 CURVE SMOOTH",
"94 760 LINE SMOOTH",
"75 760 OFFCURVE",
"60 745 OFFCURVE",
"60 726 CURVE SMOOTH"
);
},
{
closed = 1;
nodes = (
"148 504 OFFCURVE",
"80 399 OFFCURVE",
"80 250 CURVE",
"185 157 LINE",
"185 265 OFFCURVE",
"212 435 OFFCURVE",
"282 435 CURVE SMOOTH",
"324 435 OFFCURVE",
"332 298 OFFCURVE",
"332 30 CURVE SMOOTH",
"332 -14 OFFCURVE",
"339 -31 OFFCURVE",
"356 -31 CURVE SMOOTH",
"373 -31 OFFCURVE",
"419 -31 OFFCURVE",
"431 -31 CURVE SMOOTH",
"443 -31 OFFCURVE",
"453 -25 OFFCURVE",
"453 0 CURVE SMOOTH",
"453 25 OFFCURVE",
"453 179 OFFCURVE",
"453 241 CURVE SMOOTH",
"453 430 OFFCURVE",
"371 504 OFFCURVE",
"287 504 CURVE"
);
}
);
userData = {
assembly = "SVTCA[0]\011/* SetFreedomAndProjectionVectorToAxis */
IUP[0]\011/* InterpolateUntPts */
IUP[1]\011/* InterpolateUntPts */";
};
width = 500;
}
);
note = uni0068;
unicode = 0068;
},
{
color = 5;
glyphname = i;
lastChange = "2019-12-11 06:40:48 +0000";
layers = (
{
layerId = "47F7128E-F1A6-4572-9BDC-88462FF34A66";
paths = (
{
closed = 1;
nodes = (
"85 666 LINE SMOOTH",
"85 647 OFFCURVE",
"100 632 OFFCURVE",
"119 632 CURVE SMOOTH",
"185 632 LINE SMOOTH",
"204 632 OFFCURVE",
"219 647 OFFCURVE",
"219 666 CURVE SMOOTH",
"219 727 LINE SMOOTH",
"219 746 OFFCURVE",
"204 761 OFFCURVE",
"185 761 CURVE SMOOTH",
"119 761 LINE SMOOTH",
"100 761 OFFCURVE",
"85 746 OFFCURVE",
"85 727 CURVE SMOOTH"
);
},
{
closed = 1;
nodes = (
"92 12 LINE SMOOTH",
"92 -7 OFFCURVE",
"107 -22 OFFCURVE",
"126 -22 CURVE SMOOTH",
"179 -22 LINE SMOOTH",
"198 -22 OFFCURVE",
"213 -7 OFFCURVE",
"213 12 CURVE SMOOTH",
"213 487 LINE SMOOTH",
"213 506 OFFCURVE",
"198 521 OFFCURVE",
"179 521 CURVE SMOOTH",
"126 521 LINE SMOOTH",
"107 521 OFFCURVE",
"92 506 OFFCURVE",
"92 487 CURVE SMOOTH"
);
}
);
userData = {
assembly = "NPUSHB[ ]\011/* 9 values pushed */
58 124 43 42 41 36 4 35 17 
CALL[ ]\011/* CallFunction */
SVTCA[0]\011/* SetFreedomAndProjectionVectorToAxis */
IUP[0]\011/* InterpolateUntPts */
IUP[1]\011/* InterpolateUntPts */";
};
width = 322;
}
);
note = uni0069;
unicode = 0069;
},
{
color = 5;
glyphname = idotless;
lastChange = "2019-12-11 06:40:48 +0000";
layers = (
{
layerId = "47F7128E-F1A6-4572-9BDC-88462FF34A66";
paths = (
{
closed = 1;
nodes = (
"96 7 LINE SMOOTH",
"96 -12 OFFCURVE",
"111 -27 OFFCURVE",
"130 -27 CURVE SMOOTH",
"184 -27 LINE SMOOTH",
"203 -27 OFFCURVE",
"218 -12 OFFCURVE",
"218 7 CURVE SMOOTH",
"218 495 LINE SMOOTH",
"218 514 OFFCURVE",
"203 529 OFFCURVE",
"184 529 CURVE SMOOTH",
"130 529 LINE SMOOTH",
"111 529 OFFCURVE",
"96 514 OFFCURVE",
"96 495 CURVE SMOOTH"
);
}
);
width = 315;
}
);
unicode = 0131;
},
{
color = 5;
glyphname = j;
lastChange = "2019-12-11 06:40:48 +0000";
layers = (
{
layerId = "47F7128E-F1A6-4572-9BDC-88462FF34A66";
paths = (
{
closed = 1;
nodes = (
"221 656 LINE SMOOTH",
"221 637 OFFCURVE",
"236 622 OFFCURVE",
"255 622 CURVE SMOOTH",
"324 622 LINE SMOOTH",
"343 622 OFFCURVE",
"358 637 OFFCURVE",
"358 656 CURVE SMOOTH",
"358 708 LINE SMOOTH",
"358 727 OFFCURVE",
"343 742 OFFCURVE",
"324 742 CURVE SMOOTH",
"255 742 LINE SMOOTH",
"236 742 OFFCURVE",
"221 727 OFFCURVE",
"221 708 CURVE SMOOTH"
);
},
{
closed = 1;
nodes = (
"298 521 OFFCURVE",
"271 521 OFFCURVE",
"260 521 CURVE SMOOTH",
"249 521 OFFCURVE",
"240 512 OFFCURVE",
"240 492 CURVE SMOOTH",
"240 472 OFFCURVE",
"240 84 OFFCURVE",
"240 17 CURVE SMOOTH",
"240 -50 OFFCURVE",
"212 -62 OFFCURVE",
"183 -62 CURVE SMOOTH",
"155 -62 OFFCURVE",
"116 -32 OFFCURVE",
"116 49 CURVE SMOOTH",
"116 69 OFFCURVE",
"113 87 OFFCURVE",
"93 87 CURVE SMOOTH",
"73 87 OFFCURVE",
"39 87 OFFCURVE",
"24 87 CURVE SMOOTH",
"9 87 OFFCURVE",
"9 55 OFFCURVE",
"9 13 CURVE SMOOTH",
"9 -29 OFFCURVE",
"73 -116 OFFCURVE",
"191 -116 CURVE SMOOTH",
"309 -116 OFFCURVE",
"345 -76 OFFCURVE",
"345 5 CURVE SMOOTH",
"345 86 OFFCURVE",
"345 486 OFFCURVE",
"345 507 CURVE SMOOTH",
"345 518 OFFCURVE",
"338 521 OFFCURVE",
"326 521 CURVE"
);
}
);
userData = {
assembly = "PUSHB[ ]\011/* 4 values pushed */
54 120 38 0 
CALL[ ]\011/* CallFunction */
SVTCA[0]\011/* SetFreedomAndProjectionVectorToAxis */
IUP[0]\011/* InterpolateUntPts */
IUP[1]\011/* InterpolateUntPts */";
};
width = 459;
}
);
note = uni006A;
unicode = 006A;
},
{
color = 5;
glyphname = k;
lastChange = "2019-12-11 06:40:48 +0000";
layers = (
{
layerId = "47F7128E-F1A6-4572-9BDC-88462FF34A66";
paths = (
{
closed = 1;
nodes = (
"49 9 LINE SMOOTH",
"49 -10 OFFCURVE",
"63 -25 OFFCURVE",
"80 -25 CURVE SMOOTH",
"125 -25 LINE SMOOTH",
"143 -25 OFFCURVE",
"157 -10 OFFCURVE",
"157 9 CURVE SMOOTH",
"157 721 LINE SMOOTH",
"157 740 OFFCURVE",
"143 755 OFFCURVE",
"125 755 CURVE SMOOTH",
"80 755 LINE SMOOTH",
"63 755 OFFCURVE",
"49 740 OFFCURVE",
"49 721 CURVE SMOOTH"
);
},
{
closed = 1;
nodes = (
"428 505 OFFCURVE",
"380 505 OFFCURVE",
"362 505 CURVE SMOOTH",
"354 505 OFFCURVE",
"347 498 OFFCURVE",
"326 468 CURVE SMOOTH",
"317 455 OFFCURVE",
"153 235 OFFCURVE",
"141 219 CURVE",
"141 49 LINE",
"245 190 OFFCURVE",
"441 443 OFFCURVE",
"454 462 CURVE SMOOTH",
"467 481 OFFCURVE",
"481 505 OFFCURVE",
"455 505 CURVE"
);
},
{
closed = 1;
nodes = (
"476 -22 OFFCURVE",
"462 -3 OFFCURVE",
"448 13 CURVE SMOOTH",
"434 29 OFFCURVE",
"293 152 OFFCURVE",
"186 267 CURVE",
"186 128 LINE",
"198 115 OFFCURVE",
"287 39 OFFCURVE",
"313 8 CURVE SMOOTH",
"334 -17 OFFCURVE",
"345 -22 OFFCURVE",
"353 -22 CURVE SMOOTH",
"372 -22 OFFCURVE",
"421 -22 OFFCURVE",
"449 -22 CURVE"
);
}
);
userData = {
assembly = "SVTCA[0]\011/* SetFreedomAndProjectionVectorToAxis */
IUP[0]\011/* InterpolateUntPts */
IUP[1]\011/* InterpolateUntPts */";
};
width = 500;
}
);
note = uni006B;
unicode = 006B;
},
{
color = 5;
glyphname = l;
lastChange = "2019-12-11 06:40:48 +0000";
layers = (
{
layerId = "47F7128E-F1A6-4572-9BDC-88462FF34A66";
paths = (
{
closed = 1;
nodes = (
"99 15 LINE SMOOTH",
"99 -4 OFFCURVE",
"116 -19 OFFCURVE",
"137 -19 CURVE SMOOTH",
"177 -19 LINE SMOOTH",
"198 -19 OFFCURVE",
"215 -4 OFFCURVE",
"215 15 CURVE SMOOTH",
"215 726 LINE SMOOTH",
"215 745 OFFCURVE",
"198 760 OFFCURVE",
"177 760 CURVE SMOOTH",
"137 760 LINE SMOOTH",
"116 760 OFFCURVE",
"99 745 OFFCURVE",
"99 726 CURVE SMOOTH"
);
}
);
userData = {
assembly = "PUSHB[ ]\011/* 7 values pushed */
40 39 38 37 104 11 3 
CALL[ ]\011/* CallFunction */
SVTCA[0]\011/* SetFreedomAndProjectionVectorToAxis */
IUP[0]\011/* InterpolateUntPts */
IUP[1]\011/* InterpolateUntPts */";
};
width = 314;
}
);
note = uni006C;
unicode = 006C;
},
{
color = 5;
glyphname = m;
lastChange = "2019-12-11 06:40:48 +0000";
layers = (
{
layerId = "47F7128E-F1A6-4572-9BDC-88462FF34A66";
paths = (
{
closed = 1;
nodes = (
"30 9 LINE SMOOTH",
"30 -10 OFFCURVE",
"45 -25 OFFCURVE",
"64 -25 CURVE SMOOTH",
"127 -25 LINE SMOOTH",
"146 -25 OFFCURVE",
"161 -10 OFFCURVE",
"161 9 CURVE SMOOTH",
"161 499 LINE SMOOTH",
"161 518 OFFCURVE",
"146 533 OFFCURVE",
"127 533 CURVE SMOOTH",
"64 533 LINE SMOOTH",
"45 533 OFFCURVE",
"30 518 OFFCURVE",
"30 499 CURVE SMOOTH"
);
},
{
closed = 1;
nodes = (
"78 504 OFFCURVE",
"50 399 OFFCURVE",
"50 250 CURVE",
"155 157 LINE",
"155 364 OFFCURVE",
"167 435 OFFCURVE",
"202 435 CURVE SMOOTH",
"223 435 OFFCURVE",
"232 319 OFFCURVE",
"232 30 CURVE SMOOTH",
"232 -14 OFFCURVE",
"239 -31 OFFCURVE",
"256 -31 CURVE SMOOTH",
"273 -31 OFFCURVE",
"319 -31 OFFCURVE",
"331 -31 CURVE SMOOTH",
"343 -31 OFFCURVE",
"353 -25 OFFCURVE",
"353 0 CURVE SMOOTH",
"353 25 OFFCURVE",
"353 179 OFFCURVE",
"353 241 CURVE SMOOTH",
"353 430 OFFCURVE",
"301 504 OFFCURVE",
"217 504 CURVE"
);
},
{
closed = 1;
nodes = (
"289 504 OFFCURVE",
"242 399 OFFCURVE",
"242 250 CURVE",
"347 157 LINE",
"347 364 OFFCURVE",
"378 435 OFFCURVE",
"413 435 CURVE SMOOTH",
"434 435 OFFCURVE",
"443 319 OFFCURVE",
"443 30 CURVE SMOOTH",
"443 -14 OFFCURVE",
"450 -31 OFFCURVE",
"467 -31 CURVE SMOOTH",
"484 -31 OFFCURVE",
"530 -31 OFFCURVE",
"542 -31 CURVE SMOOTH",
"554 -31 OFFCURVE",
"564 -25 OFFCURVE",
"564 0 CURVE SMOOTH",
"564 25 OFFCURVE",
"564 179 OFFCURVE",
"564 241 CURVE SMOOTH",
"564 430 OFFCURVE",
"512 504 OFFCURVE",
"428 504 CURVE"
);
}
);
userData = {
assembly = "SVTCA[0]\011/* SetFreedomAndProjectionVectorToAxis */
IUP[0]\011/* InterpolateUntPts */
IUP[1]\011/* InterpolateUntPts */";
};
width = 605;
}
);
note = uni006D;
unicode = 006D;
},
{
color = 5;
glyphname = n;
lastChange = "2019-12-11 06:40:48 +0000";
layers = (
{
layerId = "47F7128E-F1A6-4572-9BDC-88462FF34A66";
paths = (
{
closed = 1;
nodes = (
"33 9 LINE SMOOTH",
"33 -10 OFFCURVE",
"48 -25 OFFCURVE",
"67 -25 CURVE SMOOTH",
"130 -25 LINE SMOOTH",
"149 -25 OFFCURVE",
"164 -10 OFFCURVE",
"164 9 CURVE SMOOTH",
"164 499 LINE SMOOTH",
"164 518 OFFCURVE",
"149 533 OFFCURVE",
"130 533 CURVE SMOOTH",
"67 533 LINE SMOOTH",
"48 533 OFFCURVE",
"33 518 OFFCURVE",
"33 499 CURVE SMOOTH"
);
},
{
closed = 1;
nodes = (
"98 504 OFFCURVE",
"53 399 OFFCURVE",
"53 250 CURVE",
"158 157 LINE",
"158 364 OFFCURVE",
"207 435 OFFCURVE",
"265 435 CURVE SMOOTH",
"334 435 OFFCURVE",
"335 319 OFFCURVE",
"335 30 CURVE SMOOTH",
"335 -14 OFFCURVE",
"342 -31 OFFCURVE",
"359 -31 CURVE SMOOTH",
"376 -31 OFFCURVE",
"422 -31 OFFCURVE",
"434 -31 CURVE SMOOTH",
"446 -31 OFFCURVE",
"456 -25 OFFCURVE",
"456 0 CURVE SMOOTH",
"456 25 OFFCURVE",
"456 179 OFFCURVE",
"456 241 CURVE SMOOTH",
"456 430 OFFCURVE",
"379 504 OFFCURVE",
"280 504 CURVE"
);
}
);
userData = {
assembly = "SVTCA[0]\011/* SetFreedomAndProjectionVectorToAxis */
IUP[0]\011/* InterpolateUntPts */
IUP[1]\011/* InterpolateUntPts */";
};
width = 489;
}
);
note = uni006E;
unicode = 006E;
},
{
color = 5;
glyphname = o;
lastChange = "2019-12-11 06:40:48 +0000";
layers = (
{
layerId = "47F7128E-F1A6-4572-9BDC-88462FF34A66";
paths = (
{
closed = 1;
nodes = (
"123 529 OFFCURVE",
"38 425 OFFCURVE",
"38 260 CURVE SMOOTH",
"38 95 OFFCURVE",
"78 -33 OFFCURVE",
"248 -33 CURVE SMOOTH",
"418 -33 OFFCURVE",
"460 105 OFFCURVE",
"460 243 CURVE SMOOTH",
"460 381 OFFCURVE",
"389 529 OFFCURVE",
"260 529 CURVE"
);
},
{
closed = 1;
nodes = (
"309 450 OFFCURVE",
"348 331 OFFCURVE",
"348 261 CURVE SMOOTH",
"348 191 OFFCURVE",
"327 37 OFFCURVE",
"264 37 CURVE SMOOTH",
"201 37 OFFCURVE",
"157 129 OFFCURVE",
"157 250 CURVE SMOOTH",
"157 371 OFFCURVE",
"216 450 OFFCURVE",
"262 450 CURVE"
);
}
);
userData = {
assembly = "SVTCA[0]\011/* SetFreedomAndProjectionVectorToAxis */
PUSHB[ ]\011/* 4 values pushed */
50 81 57 0 
CALL[ ]\011/* CallFunction */
IUP[0]\011/* InterpolateUntPts */
IUP[1]\011/* InterpolateUntPts */";
};
width = 500;
}
);
note = uni006F;
unicode = 006F;
},
{
color = 5;
glyphname = oslash;
lastChange = "2019-12-11 06:40:48 +0000";
layers = (
{
components = (
{
name = o;
}
);
layerId = "47F7128E-F1A6-4572-9BDC-88462FF34A66";
paths = (
{
closed = 1;
nodes = (
"388 629 OFFCURVE",
"361 629 OFFCURVE",
"349 629 CURVE SMOOTH",
"337 629 OFFCURVE",
"317 613 OFFCURVE",
"311 593 CURVE SMOOTH",
"305 573 OFFCURVE",
"101 -42 OFFCURVE",
"96 -56 CURVE SMOOTH",
"91 -70 OFFCURVE",
"88 -105 OFFCURVE",
"105 -105 CURVE SMOOTH",
"122 -105 OFFCURVE",
"143 -105 OFFCURVE",
"153 -105 CURVE SMOOTH",
"163 -105 OFFCURVE",
"180 -94 OFFCURVE",
"192 -67 CURVE SMOOTH",
"204 -40 OFFCURVE",
"406 545 OFFCURVE",
"415 567 CURVE SMOOTH",
"424 589 OFFCURVE",
"432 629 OFFCURVE",
"413 629 CURVE"
);
}
);
width = 500;
}
);
leftMetricsKey = o;
rightMetricsKey = o;
unicode = 00F8;
},
{
color = 5;
glyphname = p;
lastChange = "2019-12-11 06:40:48 +0000";
layers = (
{
layerId = "47F7128E-F1A6-4572-9BDC-88462FF34A66";
paths = (
{
closed = 1;
nodes = (
"123 509 OFFCURVE",
"68 425 OFFCURVE",
"68 260 CURVE SMOOTH",
"68 95 OFFCURVE",
"149 37 OFFCURVE",
"248 37 CURVE SMOOTH",
"418 37 OFFCURVE",
"460 105 OFFCURVE",
"460 243 CURVE SMOOTH",
"460 381 OFFCURVE",
"389 509 OFFCURVE",
"260 509 CURVE SMOOTH"
);
},
{
closed = 1;
nodes = (
"309 450 OFFCURVE",
"348 371 OFFCURVE",
"348 261 CURVE SMOOTH",
"348 191 OFFCURVE",
"327 88 OFFCURVE",
"264 88 CURVE SMOOTH",
"201 88 OFFCURVE",
"165 129 OFFCURVE",
"165 250 CURVE SMOOTH",
"165 392 OFFCURVE",
"188 450 OFFCURVE",
"262 450 CURVE SMOOTH"
);
},
{
closed = 1;
nodes = (
"50 -83 LINE SMOOTH",
"50 -102 OFFCURVE",
"65 -117 OFFCURVE",
"84 -117 CURVE SMOOTH",
"135 -117 LINE SMOOTH",
"154 -117 OFFCURVE",
"169 -102 OFFCURVE",
"169 -83 CURVE SMOOTH",
"169 500 LINE SMOOTH",
"169 519 OFFCURVE",
"154 534 OFFCURVE",
"135 534 CURVE SMOOTH",
"84 534 LINE SMOOTH",
"65 534 OFFCURVE",
"50 519 OFFCURVE",
"50 500 CURVE SMOOTH"
);
}
);
userData = {
assembly = "SVTCA[0]\011/* SetFreedomAndProjectionVectorToAxis */
IUP[0]\011/* InterpolateUntPts */
IUP[1]\011/* InterpolateUntPts */";
};
width = 493;
}
);
note = uni0070;
unicode = 0070;
},
{
color = 5;
glyphname = thorn;
lastChange = "2019-12-11 06:40:48 +0000";
layers = (
{
layerId = "47F7128E-F1A6-4572-9BDC-88462FF34A66";
paths = (
{
closed = 1;
nodes = (
"72 -53 LINE SMOOTH",
"72 -72 OFFCURVE",
"87 -87 OFFCURVE",
"106 -87 CURVE SMOOTH",
"150 -87 LINE SMOOTH",
"169 -87 OFFCURVE",
"184 -72 OFFCURVE",
"184 -53 CURVE SMOOTH",
"184 677 LINE SMOOTH",
"184 696 OFFCURVE",
"169 711 OFFCURVE",
"150 711 CURVE SMOOTH",
"106 711 LINE SMOOTH",
"87 711 OFFCURVE",
"72 696 OFFCURVE",
"72 677 CURVE SMOOTH"
);
},
{
closed = 1;
nodes = (
"216 525 OFFCURVE",
"100 513 OFFCURVE",
"100 300 CURVE SMOOTH",
"100 132 OFFCURVE",
"127 11 OFFCURVE",
"267 11 CURVE SMOOTH",
"410 11 OFFCURVE",
"455 100 OFFCURVE",
"455 280 CURVE SMOOTH",
"455 460 OFFCURVE",
"371 525 OFFCURVE",
"275 525 CURVE SMOOTH"
);
},
{
closed = 1;
nodes = (
"327 469 OFFCURVE",
"347 385 OFFCURVE",
"347 267 CURVE SMOOTH",
"347 149 OFFCURVE",
"315 66 OFFCURVE",
"276 66 CURVE SMOOTH",
"237 66 OFFCURVE",
"161 134 OFFCURVE",
"161 264 CURVE SMOOTH",
"161 394 OFFCURVE",
"245 469 OFFCURVE",
"275 469 CURVE"
);
}
);
width = 488;
}
);
unicode = 00FE;
},
{
color = 5;
glyphname = q;
lastChange = "2019-12-11 06:40:48 +0000";
layers = (
{
layerId = "47F7128E-F1A6-4572-9BDC-88462FF34A66";
paths = (
{
closed = 1;
nodes = (
"104 509 OFFCURVE",
"33 381 OFFCURVE",
"33 243 CURVE SMOOTH",
"33 105 OFFCURVE",
"96 37 OFFCURVE",
"245 37 CURVE SMOOTH",
"344 37 OFFCURVE",
"425 95 OFFCURVE",
"425 260 CURVE SMOOTH",
"425 425 OFFCURVE",
"370 509 OFFCURVE",
"233 509 CURVE SMOOTH"
);
},
{
closed = 1;
nodes = (
"325 450 OFFCURVE",
"328 392 OFFCURVE",
"328 250 CURVE SMOOTH",
"328 129 OFFCURVE",
"312 88 OFFCURVE",
"249 88 CURVE SMOOTH",
"186 88 OFFCURVE",
"145 191 OFFCURVE",
"145 261 CURVE SMOOTH",
"145 371 OFFCURVE",
"204 450 OFFCURVE",
"251 450 CURVE SMOOTH"
);
},
{
closed = 1;
nodes = (
"443 519 OFFCURVE",
"428 534 OFFCURVE",
"409 534 CURVE SMOOTH",
"358 534 LINE SMOOTH",
"339 534 OFFCURVE",
"324 519 OFFCURVE",
"324 500 CURVE SMOOTH",
"324 -83 LINE SMOOTH",
"324 -102 OFFCURVE",
"339 -117 OFFCURVE",
"358 -117 CURVE SMOOTH",
"409 -117 LINE SMOOTH",
"428 -117 OFFCURVE",
"443 -102 OFFCURVE",
"443 -83 CURVE SMOOTH",
"443 500 LINE SMOOTH"
);
}
);
userData = {
assembly = "SVTCA[0]\011/* SetFreedomAndProjectionVectorToAxis */
IUP[0]\011/* InterpolateUntPts */
IUP[1]\011/* InterpolateUntPts */";
};
width = 483;
}
);
note = uni0071;
unicode = 0071;
},
{
color = 5;
glyphname = r;
lastChange = "2019-12-11 06:40:48 +0000";
layers = (
{
layerId = "47F7128E-F1A6-4572-9BDC-88462FF34A66";
paths = (
{
closed = 1;
nodes = (
"72 10 LINE SMOOTH",
"72 -9 OFFCURVE",
"87 -24 OFFCURVE",
"106 -24 CURVE SMOOTH",
"157 -24 LINE SMOOTH",
"176 -24 OFFCURVE",
"191 -9 OFFCURVE",
"191 10 CURVE SMOOTH",
"191 493 LINE SMOOTH",
"191 512 OFFCURVE",
"176 527 OFFCURVE",
"157 527 CURVE SMOOTH",
"106 527 LINE SMOOTH",
"87 527 OFFCURVE",
"72 512 OFFCURVE",
"72 493 CURVE SMOOTH"
);
},
{
closed = 1;
nodes = (
"224 513 OFFCURVE",
"178 455 OFFCURVE",
"178 390 CURVE",
"178 152 LINE",
"178 315 OFFCURVE",
"259 439 OFFCURVE",
"300 439 CURVE SMOOTH",
"341 439 OFFCURVE",
"369 433 OFFCURVE",
"383 426 CURVE SMOOTH",
"397 419 OFFCURVE",
"414 422 OFFCURVE",
"419 436 CURVE SMOOTH",
"424 450 OFFCURVE",
"420 466 OFFCURVE",
"402 477 CURVE SMOOTH",
"384 488 OFFCURVE",
"339 513 OFFCURVE",
"284 513 CURVE"
);
}
);
userData = {
assembly = "SVTCA[0]\011/* SetFreedomAndProjectionVectorToAxis */
IUP[0]\011/* InterpolateUntPts */
IUP[1]\011/* InterpolateUntPts */";
};
width = 442;
}
);
note = uni0072;
unicode = 0072;
},
{
color = 5;
glyphname = s;
lastChange = "2019-12-11 06:40:48 +0000";
layers = (
{
layerId = "47F7128E-F1A6-4572-9BDC-88462FF34A66";
paths = (
{
closed = 1;
nodes = (
"96 517 OFFCURVE",
"44 415 OFFCURVE",
"44 375 CURVE SMOOTH",
"44 254 OFFCURVE",
"73 221 OFFCURVE",
"249 221 CURVE SMOOTH",
"301 221 OFFCURVE",
"339 148 OFFCURVE",
"339 118 CURVE SMOOTH",
"339 73 OFFCURVE",
"309 26 OFFCURVE",
"262 26 CURVE SMOOTH",
"194 26 OFFCURVE",
"148 30 OFFCURVE",
"148 106 CURVE SMOOTH",
"148 118 OFFCURVE",
"138 122 OFFCURVE",
"89 122 CURVE SMOOTH",
"61 122 OFFCURVE",
"38 118 OFFCURVE",
"38 95 CURVE SMOOTH",
"38 5 OFFCURVE",
"108 -31 OFFCURVE",
"255 -31 CURVE SMOOTH",
"402 -31 OFFCURVE",
"449 7 OFFCURVE",
"449 121 CURVE SMOOTH",
"449 203 OFFCURVE",
"403 273 OFFCURVE",
"269 273 CURVE SMOOTH",
"174 273 OFFCURVE",
"162 300 OFFCURVE",
"162 358 CURVE SMOOTH",
"162 416 OFFCURVE",
"215 466 OFFCURVE",
"253 466 CURVE SMOOTH",
"298 466 OFFCURVE",
"362 387 OFFCURVE",
"438 387 CURVE SMOOTH",
"453 387 OFFCURVE",
"461 406 OFFCURVE",
"461 413 CURVE SMOOTH",
"461 476 OFFCURVE",
"348 517 OFFCURVE",
"240 517 CURVE"
);
}
);
userData = {
assembly = "SVTCA[0]\011/* SetFreedomAndProjectionVectorToAxis */
PUSHB[ ]\011/* 5 values pushed */
46 45 56 103 1 
CALL[ ]\011/* CallFunction */
IUP[0]\011/* InterpolateUntPts */
IUP[1]\011/* InterpolateUntPts */";
};
width = 500;
}
);
note = uni0073;
unicode = 0073;
},
{
color = 5;
glyphname = germandbls;
lastChange = "2019-12-11 06:40:48 +0000";
layers = (
{
layerId = "47F7128E-F1A6-4572-9BDC-88462FF34A66";
paths = (
{
closed = 1;
nodes = (
"202 757 OFFCURVE",
"72 738 OFFCURVE",
"72 63 CURVE SMOOTH",
"72 3 OFFCURVE",
"79 -76 OFFCURVE",
"104 -76 CURVE SMOOTH",
"129 -76 OFFCURVE",
"139 -76 OFFCURVE",
"159 -76 CURVE SMOOTH",
"174 -76 OFFCURVE",
"181 32 OFFCURVE",
"181 269 CURVE SMOOTH",
"181 561 OFFCURVE",
"290 685 OFFCURVE",
"351 685 CURVE SMOOTH",
"372 685 OFFCURVE",
"380 665 OFFCURVE",
"380 638 CURVE SMOOTH",
"380 532 OFFCURVE",
"259 467 OFFCURVE",
"259 416 CURVE SMOOTH",
"259 385 OFFCURVE",
"377 355 OFFCURVE",
"377 272 CURVE SMOOTH",
"377 149 OFFCURVE",
"193 79 OFFCURVE",
"193 63 CURVE SMOOTH",
"193 50 OFFCURVE",
"206 29 OFFCURVE",
"230 29 CURVE SMOOTH",
"254 29 OFFCURVE",
"480 54 OFFCURVE",
"480 216 CURVE SMOOTH",
"480 379 OFFCURVE",
"361 450 OFFCURVE",
"341 450 CURVE",
"341 395 LINE",
"372 395 OFFCURVE",
"479 473 OFFCURVE",
"479 579 CURVE SMOOTH",
"479 685 OFFCURVE",
"390 757 OFFCURVE",
"328 757 CURVE"
);
}
);
width = 522;
}
);
unicode = 00DF;
},
{
color = 5;
glyphname = t;
lastChange = "2019-12-11 06:40:48 +0000";
layers = (
{
layerId = "47F7128E-F1A6-4572-9BDC-88462FF34A66";
paths = (
{
closed = 1;
nodes = (
"154 21 LINE SMOOTH",
"154 2 OFFCURVE",
"169 -13 OFFCURVE",
"188 -13 CURVE SMOOTH",
"248 -13 LINE SMOOTH",
"267 -13 OFFCURVE",
"282 2 OFFCURVE",
"282 21 CURVE SMOOTH",
"282 734 LINE SMOOTH",
"282 753 OFFCURVE",
"267 768 OFFCURVE",
"248 768 CURVE SMOOTH",
"188 768 LINE SMOOTH",
"169 768 OFFCURVE",
"154 753 OFFCURVE",
"154 734 CURVE SMOOTH"
);
},
{
closed = 1;
nodes = (
"25 462 OFFCURVE",
"40 451 OFFCURVE",
"59 451 CURVE SMOOTH",
"386 451 LINE SMOOTH",
"405 451 OFFCURVE",
"420 462 OFFCURVE",
"420 477 CURVE SMOOTH",
"420 492 OFFCURVE",
"405 503 OFFCURVE",
"386 503 CURVE SMOOTH",
"59 503 LINE SMOOTH",
"40 503 OFFCURVE",
"25 492 OFFCURVE",
"25 477 CURVE SMOOTH"
);
}
);
userData = {
assembly = "NPUSHB[ ]\011/* 17 values pushed */
45 102 32 0 67 66 65 99 11 10 6 70 101 8 5 4 8 
CALL[ ]\011/* CallFunction */
CALL[ ]\011/* CallFunction */
CALL[ ]\011/* CallFunction */
SVTCA[0]\011/* SetFreedomAndProjectionVectorToAxis */
IUP[0]\011/* InterpolateUntPts */
IUP[1]\011/* InterpolateUntPts */";
};
width = 433;
}
);
note = uni0074;
unicode = 0074;
},
{
color = 5;
glyphname = u;
lastChange = "2019-12-11 06:40:48 +0000";
layers = (
{
layerId = "47F7128E-F1A6-4572-9BDC-88462FF34A66";
paths = (
{
closed = 1;
nodes = (
"453 493 LINE SMOOTH",
"453 512 OFFCURVE",
"438 527 OFFCURVE",
"419 527 CURVE SMOOTH",
"356 527 LINE SMOOTH",
"337 527 OFFCURVE",
"322 512 OFFCURVE",
"322 493 CURVE SMOOTH",
"322 3 LINE SMOOTH",
"322 -16 OFFCURVE",
"337 -31 OFFCURVE",
"356 -31 CURVE SMOOTH",
"419 -31 LINE SMOOTH",
"438 -31 OFFCURVE",
"453 -16 OFFCURVE",
"453 3 CURVE SMOOTH"
);
},
{
closed = 1;
nodes = (
"390 -24 OFFCURVE",
"433 86 OFFCURVE",
"433 241 CURVE",
"332 337 LINE",
"332 122 OFFCURVE",
"285 48 OFFCURVE",
"229 48 CURVE SMOOTH",
"162 48 OFFCURVE",
"161 169 OFFCURVE",
"161 470 CURVE SMOOTH",
"161 515 OFFCURVE",
"155 533 OFFCURVE",
"138 533 CURVE SMOOTH",
"122 533 OFFCURVE",
"78 533 OFFCURVE",
"66 533 CURVE SMOOTH",
"55 533 OFFCURVE",
"45 527 OFFCURVE",
"45 501 CURVE SMOOTH",
"45 475 OFFCURVE",
"45 315 OFFCURVE",
"45 250 CURVE SMOOTH",
"45 53 OFFCURVE",
"119 -24 OFFCURVE",
"214 -24 CURVE"
);
}
);
userData = {
assembly = "SVTCA[0]\011/* SetFreedomAndProjectionVectorToAxis */
IUP[0]\011/* InterpolateUntPts */
IUP[1]\011/* InterpolateUntPts */";
};
width = 507;
}
);
note = uni0075;
unicode = 0075;
},
{
color = 5;
glyphname = v;
lastChange = "2019-12-11 06:40:48 +0000";
layers = (
{
layerId = "47F7128E-F1A6-4572-9BDC-88462FF34A66";
paths = (
{
closed = 1;
nodes = (
"33 512 OFFCURVE",
"29 496 OFFCURVE",
"36 455 CURVE SMOOTH",
"41 425 OFFCURVE",
"160 78 OFFCURVE",
"174 33 CURVE SMOOTH",
"188 -12 OFFCURVE",
"200 -22 OFFCURVE",
"222 -22 CURVE SMOOTH",
"244 -22 OFFCURVE",
"269 -22 OFFCURVE",
"295 -22 CURVE SMOOTH",
"321 -22 OFFCURVE",
"335 16 OFFCURVE",
"339 50 CURVE SMOOTH",
"343 84 OFFCURVE",
"448 413 OFFCURVE",
"455 460 CURVE SMOOTH",
"462 507 OFFCURVE",
"450 510 OFFCURVE",
"430 510 CURVE SMOOTH",
"410 510 OFFCURVE",
"403 510 OFFCURVE",
"385 510 CURVE SMOOTH",
"356 510 OFFCURVE",
"348 498 OFFCURVE",
"339 470 CURVE SMOOTH",
"243 158 LINE",
"263 158 LINE",
"151 471 LINE SMOOTH",
"141 499 OFFCURVE",
"136 512 OFFCURVE",
"119 512 CURVE SMOOTH",
"64 512 LINE SMOOTH"
);
}
);
userData = {
assembly = "SVTCA[0]\011/* SetFreedomAndProjectionVectorToAxis */
IUP[0]\011/* InterpolateUntPts */
IUP[1]\011/* InterpolateUntPts */";
};
width = 490;
}
);
note = uni0076;
unicode = 0076;
},
{
color = 5;
glyphname = w;
lastChange = "2019-12-11 06:40:48 +0000";
layers = (
{
layerId = "47F7128E-F1A6-4572-9BDC-88462FF34A66";
paths = (
{
closed = 1;
nodes = (
"42 512 OFFCURVE",
"40 496 OFFCURVE",
"45 455 CURVE SMOOTH",
"53 385 OFFCURVE",
"89 125 OFFCURVE",
"103 33 CURVE SMOOTH",
"110 -14 OFFCURVE",
"129 -22 OFFCURVE",
"151 -22 CURVE SMOOTH",
"173 -22 OFFCURVE",
"198 -22 OFFCURVE",
"224 -22 CURVE SMOOTH",
"250 -22 OFFCURVE",
"258 17 OFFCURVE",
"268 50 CURVE SMOOTH",
"284 104 OFFCURVE",
"357 413 OFFCURVE",
"364 460 CURVE SMOOTH",
"371 507 OFFCURVE",
"359 510 OFFCURVE",
"339 510 CURVE SMOOTH",
"319 510 OFFCURVE",
"312 510 OFFCURVE",
"294 510 CURVE SMOOTH",
"265 510 OFFCURVE",
"253 498 OFFCURVE",
"248 470 CURVE SMOOTH",
"187 158 LINE",
"207 158 LINE",
"160 471 LINE SMOOTH",
"156 499 OFFCURVE",
"145 512 OFFCURVE",
"128 512 CURVE SMOOTH",
"73 512 LINE SMOOTH"
);
},
{
closed = 1;
nodes = (
"262 512 OFFCURVE",
"260 496 OFFCURVE",
"265 455 CURVE SMOOTH",
"274 385 OFFCURVE",
"309 125 OFFCURVE",
"323 33 CURVE SMOOTH",
"330 -14 OFFCURVE",
"349 -22 OFFCURVE",
"371 -22 CURVE SMOOTH",
"393 -22 OFFCURVE",
"418 -22 OFFCURVE",
"444 -22 CURVE SMOOTH",
"470 -22 OFFCURVE",
"478 17 OFFCURVE",
"488 50 CURVE SMOOTH",
"504 104 OFFCURVE",
"577 413 OFFCURVE",
"584 460 CURVE SMOOTH",
"591 507 OFFCURVE",
"579 510 OFFCURVE",
"559 510 CURVE SMOOTH",
"539 510 OFFCURVE",
"532 510 OFFCURVE",
"514 510 CURVE SMOOTH",
"485 510 OFFCURVE",
"473 498 OFFCURVE",
"468 470 CURVE SMOOTH",
"407 158 LINE",
"427 158 LINE",
"380 471 LINE SMOOTH",
"376 499 OFFCURVE",
"365 512 OFFCURVE",
"348 512 CURVE SMOOTH",
"293 512 LINE SMOOTH"
);
}
);
userData = {
assembly = "SVTCA[0]\011/* SetFreedomAndProjectionVectorToAxis */
IUP[0]\011/* InterpolateUntPts */
IUP[1]\011/* InterpolateUntPts */";
};
width = 628;
}
);
note = uni0077;
unicode = 0077;
},
{
color = 5;
glyphname = x;
lastChange = "2019-12-11 06:40:48 +0000";
layers = (
{
layerId = "47F7128E-F1A6-4572-9BDC-88462FF34A66";
paths = (
{
closed = 1;
nodes = (
"103 525 OFFCURVE",
"69 525 OFFCURVE",
"53 525 CURVE SMOOTH",
"39 525 OFFCURVE",
"25 501 OFFCURVE",
"39 478 CURVE SMOOTH",
"51 455 OFFCURVE",
"281 21 OFFCURVE",
"294 3 CURVE SMOOTH",
"305 -15 OFFCURVE",
"325 -28 OFFCURVE",
"345 -28 CURVE SMOOTH",
"367 -28 OFFCURVE",
"391 -28 OFFCURVE",
"406 -28 CURVE SMOOTH",
"422 -28 OFFCURVE",
"446 -7 OFFCURVE",
"429 21 CURVE SMOOTH",
"412 49 OFFCURVE",
"184 470 OFFCURVE",
"176 488 CURVE SMOOTH",
"168 506 OFFCURVE",
"149 525 OFFCURVE",
"130 525 CURVE"
);
},
{
closed = 1;
nodes = (
"359 525 OFFCURVE",
"340 506 OFFCURVE",
"332 488 CURVE SMOOTH",
"324 470 OFFCURVE",
"96 49 OFFCURVE",
"79 21 CURVE SMOOTH",
"62 -7 OFFCURVE",
"86 -28 OFFCURVE",
"102 -28 CURVE SMOOTH",
"117 -28 OFFCURVE",
"141 -28 OFFCURVE",
"163 -28 CURVE SMOOTH",
"183 -28 OFFCURVE",
"203 -15 OFFCURVE",
"214 3 CURVE SMOOTH",
"226 22 OFFCURVE",
"457 455 OFFCURVE",
"469 478 CURVE SMOOTH",
"481 502 OFFCURVE",
"469 525 OFFCURVE",
"455 525 CURVE SMOOTH",
"439 525 OFFCURVE",
"405 525 OFFCURVE",
"378 525 CURVE"
);
}
);
userData = {
assembly = "SVTCA[0]\011/* SetFreedomAndProjectionVectorToAxis */
IUP[0]\011/* InterpolateUntPts */
IUP[1]\011/* InterpolateUntPts */";
};
width = 507;
}
);
note = uni0078;
unicode = 0078;
},
{
color = 5;
glyphname = y;
lastChange = "2019-12-11 06:40:48 +0000";
layers = (
{
layerId = "47F7128E-F1A6-4572-9BDC-88462FF34A66";
paths = (
{
closed = 1;
nodes = (
"356 525 OFFCURVE",
"338 506 OFFCURVE",
"331 488 CURVE SMOOTH",
"323 470 OFFCURVE",
"136 -24 OFFCURVE",
"120 -52 CURVE SMOOTH",
"104 -80 OFFCURVE",
"127 -101 OFFCURVE",
"142 -101 CURVE SMOOTH",
"156 -101 OFFCURVE",
"178 -101 OFFCURVE",
"199 -101 CURVE SMOOTH",
"218 -101 OFFCURVE",
"237 -88 OFFCURVE",
"247 -70 CURVE SMOOTH",
"258 -51 OFFCURVE",
"448 455 OFFCURVE",
"460 478 CURVE SMOOTH",
"471 502 OFFCURVE",
"460 525 OFFCURVE",
"447 525 CURVE SMOOTH",
"431 525 OFFCURVE",
"400 525 OFFCURVE",
"374 525 CURVE"
);
},
{
closed = 1;
nodes = (
"92 516 OFFCURVE",
"64 516 OFFCURVE",
"50 516 CURVE SMOOTH",
"38 516 OFFCURVE",
"26 493 OFFCURVE",
"38 470 CURVE SMOOTH",
"48 447 OFFCURVE",
"156 60 OFFCURVE",
"168 42 CURVE SMOOTH",
"178 27 OFFCURVE",
"193 12 OFFCURVE",
"210 12 CURVE SMOOTH",
"229 12 OFFCURVE",
"249 12 OFFCURVE",
"261 12 CURVE SMOOTH",
"275 12 OFFCURVE",
"295 33 OFFCURVE",
"281 60 CURVE SMOOTH",
"266 88 OFFCURVE",
"160 462 OFFCURVE",
"153 480 CURVE SMOOTH",
"146 498 OFFCURVE",
"131 516 OFFCURVE",
"115 516 CURVE"
);
}
);
userData = {
assembly = "SVTCA[0]\011/* SetFreedomAndProjectionVectorToAxis */
IUP[0]\011/* InterpolateUntPts */
IUP[1]\011/* InterpolateUntPts */";
};
width = 498;
}
);
note = uni0079;
unicode = 0079;
},
{
color = 5;
glyphname = z;
lastChange = "2019-12-11 06:40:48 +0000";
layers = (
{
layerId = "47F7128E-F1A6-4572-9BDC-88462FF34A66";
paths = (
{
closed = 1;
nodes = (
"384 533 OFFCURVE",
"148 533 OFFCURVE",
"118 533 CURVE SMOOTH",
"88 533 OFFCURVE",
"70 524 OFFCURVE",
"70 503 CURVE SMOOTH",
"70 482 OFFCURVE",
"91 470 OFFCURVE",
"118 470 CURVE SMOOTH",
"145 470 OFFCURVE",
"261 470 OFFCURVE",
"278 470 CURVE SMOOTH",
"295 470 OFFCURVE",
"302 459 OFFCURVE",
"286 439 CURVE SMOOTH",
"270 419 OFFCURVE",
"65 61 OFFCURVE",
"54 39 CURVE SMOOTH",
"43 17 OFFCURVE",
"42 -18 OFFCURVE",
"76 -18 CURVE SMOOTH",
"110 -18 OFFCURVE",
"390 -18 OFFCURVE",
"419 -18 CURVE SMOOTH",
"448 -18 OFFCURVE",
"455 -13 OFFCURVE",
"455 9 CURVE SMOOTH",
"455 31 OFFCURVE",
"445 44 OFFCURVE",
"418 44 CURVE SMOOTH",
"391 44 OFFCURVE",
"229 44 OFFCURVE",
"208 44 CURVE SMOOTH",
"187 44 OFFCURVE",
"185 65 OFFCURVE",
"202 95 CURVE SMOOTH",
"219 125 OFFCURVE",
"434 470 OFFCURVE",
"447 492 CURVE SMOOTH",
"460 514 OFFCURVE",
"462 533 OFFCURVE",
"432 533 CURVE"
);
}
);
userData = {
assembly = "SVTCA[0]\011/* SetFreedomAndProjectionVectorToAxis */
IUP[0]\011/* InterpolateUntPts */
IUP[1]\011/* InterpolateUntPts */";
};
width = 500;
}
);
note = uni007A;
unicode = 007A;
},
{
color = 5;
glyphname = ordfeminine;
lastChange = "2019-12-11 06:40:48 +0000";
layers = (
{
layerId = "47F7128E-F1A6-4572-9BDC-88462FF34A66";
paths = (
{
closed = 1;
nodes = (
"100 678 OFFCURVE",
"21 608 OFFCURVE",
"21 537 CURVE SMOOTH",
"21 466 OFFCURVE",
"40 402 OFFCURVE",
"148 402 CURVE SMOOTH",
"218 402 OFFCURVE",
"275 426 OFFCURVE",
"287 432 CURVE SMOOTH",
"299 438 OFFCURVE",
"304 439 OFFCURVE",
"311 430 CURVE SMOOTH",
"318 422 OFFCURVE",
"322 416 OFFCURVE",
"326 412 CURVE SMOOTH",
"330 408 OFFCURVE",
"340 401 OFFCURVE",
"353 401 CURVE SMOOTH",
"366 401 OFFCURVE",
"409 401 OFFCURVE",
"426 401 CURVE SMOOTH",
"443 401 OFFCURVE",
"444 412 OFFCURVE",
"437 423 CURVE SMOOTH",
"430 435 OFFCURVE",
"408 479 OFFCURVE",
"408 510 CURVE SMOOTH",
"408 541 OFFCURVE",
"414 561 OFFCURVE",
"418 570 CURVE SMOOTH",
"422 579 OFFCURVE",
"416 595 OFFCURVE",
"408 606 CURVE SMOOTH",
"391 629 OFFCURVE",
"337 678 OFFCURVE",
"218 678 CURVE"
);
},
{
closed = 1;
nodes = (
"244 619 OFFCURVE",
"293 607 OFFCURVE",
"293 576 CURVE SMOOTH",
"293 535 OFFCURVE",
"244 465 OFFCURVE",
"200 465 CURVE SMOOTH",
"156 465 OFFCURVE",
"135 492 OFFCURVE",
"135 537 CURVE SMOOTH",
"135 581 OFFCURVE",
"168 619 OFFCURVE",
"217 619 CURVE"
);
}
);
width = 474;
}
);
leftMetricsKey = a;
rightMetricsKey = a;
unicode = 00AA;
},
{
color = 5;
glyphname = ordmasculine;
lastChange = "2019-12-11 06:40:48 +0000";
layers = (
{
layerId = "47F7128E-F1A6-4572-9BDC-88462FF34A66";
paths = (
{
closed = 1;
nodes = (
"99 689 OFFCURVE",
"38 601 OFFCURVE",
"38 509 CURVE SMOOTH",
"38 417 OFFCURVE",
"86 351 OFFCURVE",
"221 351 CURVE SMOOTH",
"356 351 OFFCURVE",
"401 403 OFFCURVE",
"401 509 CURVE SMOOTH",
"401 615 OFFCURVE",
"361 689 OFFCURVE",
"231 689 CURVE"
);
},
{
closed = 1;
nodes = (
"265 616 OFFCURVE",
"267 584 OFFCURVE",
"267 527 CURVE SMOOTH",
"267 470 OFFCURVE",
"254 429 OFFCURVE",
"218 429 CURVE SMOOTH",
"182 429 OFFCURVE",
"177 484 OFFCURVE",
"177 524 CURVE SMOOTH",
"177 564 OFFCURVE",
"207 616 OFFCURVE",
"230 616 CURVE"
);
}
);
width = 441;
}
);
leftMetricsKey = o;
rightMetricsKey = o;
unicode = 00BA;
},
{
color = 5;
glyphname = zero;
lastChange = "2019-12-11 06:40:48 +0000";
layers = (
{
layerId = "47F7128E-F1A6-4572-9BDC-88462FF34A66";
paths = (
{
closed = 1;
nodes = (
"151 739 OFFCURVE",
"30 675 OFFCURVE",
"30 381 CURVE SMOOTH",
"30 86 OFFCURVE",
"105 -10 OFFCURVE",
"246 -10 CURVE SMOOTH",
"387 -10 OFFCURVE",
"471 61 OFFCURVE",
"471 387 CURVE SMOOTH",
"471 641 OFFCURVE",
"388 739 OFFCURVE",
"255 739 CURVE"
);
},
{
closed = 1;
nodes = (
"334 659 OFFCURVE",
"354 514 OFFCURVE",
"354 387 CURVE SMOOTH",
"354 261 OFFCURVE",
"342 61 OFFCURVE",
"256 61 CURVE SMOOTH",
"170 61 OFFCURVE",
"147 222 OFFCURVE",
"147 385 CURVE SMOOTH",
"147 549 OFFCURVE",
"188 659 OFFCURVE",
"253 659 CURVE"
);
}
);
userData = {
assembly = "SVTCA[0]\011/* SetFreedomAndProjectionVectorToAxis */
IUP[0]\011/* InterpolateUntPts */
IUP[1]\011/* InterpolateUntPts */";
};
width = 500;
}
);
note = uni0030;
unicode = 0030;
},
{
color = 5;
glyphname = one;
lastChange = "2019-12-11 06:40:48 +0000";
layers = (
{
layerId = "47F7128E-F1A6-4572-9BDC-88462FF34A66";
paths = (
{
closed = 1;
nodes = (
"264 757 OFFCURVE",
"248 753 OFFCURVE",
"238 729 CURVE SMOOTH",
"228 705 OFFCURVE",
"185 600 OFFCURVE",
"179 584 CURVE SMOOTH",
"169 558 OFFCURVE",
"180 552 OFFCURVE",
"217 552 CURVE SMOOTH",
"228 552 OFFCURVE",
"234 539 OFFCURVE",
"234 521 CURVE SMOOTH",
"234 503 OFFCURVE",
"234 56 OFFCURVE",
"234 28 CURVE SMOOTH",
"234 0 OFFCURVE",
"246 -15 OFFCURVE",
"260 -15 CURVE SMOOTH",
"274 -15 OFFCURVE",
"291 -15 OFFCURVE",
"311 -15 CURVE SMOOTH",
"331 -15 OFFCURVE",
"339 -7 OFFCURVE",
"339 30 CURVE SMOOTH",
"339 67 OFFCURVE",
"339 684 OFFCURVE",
"339 713 CURVE SMOOTH",
"339 748 OFFCURVE",
"320 757 OFFCURVE",
"289 757 CURVE"
);
}
);
userData = {
assembly = "PUSHB[ ]\011/* 4 values pushed */
45 113 21 0 
CALL[ ]\011/* CallFunction */
SVTCA[0]\011/* SetFreedomAndProjectionVectorToAxis */
IUP[0]\011/* InterpolateUntPts */
IUP[1]\011/* InterpolateUntPts */";
};
width = 500;
},
{
associatedMasterId = "47F7128E-F1A6-4572-9BDC-88462FF34A66";
background = {
paths = (
{
closed = 1;
nodes = (
"188 -14 OFFCURVE",
"197 -16 QCURVE",
"202 -15 OFFCURVE",
"208 -15 QCURVE",
"221 -20 OFFCURVE",
"234 -13 QCURVE",
"259 -6 OFFCURVE",
"262 21 QCURVE",
"259 97 OFFCURVE",
"255 171 QCURVE",
"256 225 OFFCURVE",
"257 279 QCURVE",
"255 308 OFFCURVE",
"254 336 QCURVE SMOOTH",
"252 361 OFFCURVE",
"259 386 QCURVE SMOOTH",
"262 397 OFFCURVE",
"258 411 QCURVE",
"254 419 OFFCURVE",
"257 428 QCURVE",
"259 452 OFFCURVE",
"257 478 QCURVE",
"257 531 OFFCURVE",
"263 584 QCURVE SMOOTH",
"264 609 OFFCURVE",
"263 636 QCURVE SMOOTH",
"263 661 OFFCURVE",
"267 687 QCURVE",
"283 731 OFFCURVE",
"249 755 QCURVE",
"219 755 OFFCURVE",
"188 750 QCURVE",
"170 751 OFFCURVE",
"157 738 QCURVE",
"145 719 OFFCURVE",
"140 696 QCURVE",
"120 648 OFFCURVE",
"102 602 QCURVE",
"90 583 OFFCURVE",
"93 563 QCURVE",
"101 547 OFFCURVE",
"117 550 QCURVE SMOOTH",
"134 553 OFFCURVE",
"145 540 QCURVE",
"150 517 OFFCURVE",
"146 492 QCURVE",
"146 464 OFFCURVE",
"149 438 QCURVE",
"149 411 OFFCURVE",
"147 387 QCURVE",
"148 332 OFFCURVE",
"150 278 QCURVE SMOOTH",
"152 249 OFFCURVE",
"150 222 QCURVE SMOOTH",
"150 196 OFFCURVE",
"152 172 QCURVE",
"149 118 OFFCURVE",
"154 65 QCURVE SMOOTH",
"157 38 OFFCURVE",
"155 11 QCURVE SMOOTH",
"154 2 OFFCURVE",
"160 -4 QCURVE",
"162 -8 OFFCURVE",
"163 -12 QCURVE SMOOTH",
"164 -15 OFFCURVE",
"167 -17 QCURVE",
"173 -14 OFFCURVE",
"181 -17 QCURVE",
"181 -17 LINE"
);
}
);
};
layerId = "61976C2F-27F3-4B3C-A418-D6E1091C4DA8";
name = "Nov 12 19, 21:10";
paths = (
{
closed = 1;
nodes = (
"184 757 OFFCURVE",
"168 753 OFFCURVE",
"158 729 CURVE SMOOTH",
"148 705 OFFCURVE",
"105 607 OFFCURVE",
"99 584 CURVE SMOOTH",
"93 561 OFFCURVE",
"103 553 OFFCURVE",
"111 552 CURVE SMOOTH",
"119 551 OFFCURVE",
"126 552 OFFCURVE",
"137 552 CURVE SMOOTH",
"148 552 OFFCURVE",
"154 539 OFFCURVE",
"154 521 CURVE SMOOTH",
"154 503 OFFCURVE",
"154 56 OFFCURVE",
"154 28 CURVE SMOOTH",
"154 0 OFFCURVE",
"166 -15 OFFCURVE",
"180 -15 CURVE SMOOTH",
"194 -15 OFFCURVE",
"211 -15 OFFCURVE",
"231 -15 CURVE SMOOTH",
"251 -15 OFFCURVE",
"259 -7 OFFCURVE",
"259 30 CURVE SMOOTH",
"259 67 OFFCURVE",
"259 684 OFFCURVE",
"259 713 CURVE SMOOTH",
"259 748 OFFCURVE",
"240 757 OFFCURVE",
"209 757 CURVE"
);
}
);
userData = {
assembly = "PUSHB[ ]\011/* 4 values pushed */
45 113 21 0 
CALL[ ]\011/* CallFunction */
SVTCA[0]\011/* SetFreedomAndProjectionVectorToAxis */
IUP[0]\011/* InterpolateUntPts */
IUP[1]\011/* InterpolateUntPts */";
};
vertWidth = 1000;
width = 400;
}
);
note = uni0031;
unicode = 0031;
},
{
color = 5;
glyphname = two;
lastChange = "2019-12-11 06:40:48 +0000";
layers = (
{
layerId = "47F7128E-F1A6-4572-9BDC-88462FF34A66";
paths = (
{
closed = 1;
nodes = (
"120 749 OFFCURVE",
"58 683 OFFCURVE",
"58 464 CURVE SMOOTH",
"58 431 OFFCURVE",
"74 418 OFFCURVE",
"96 418 CURVE SMOOTH",
"131 418 LINE SMOOTH",
"148 418 OFFCURVE",
"166 437 OFFCURVE",
"166 474 CURVE SMOOTH",
"166 573 OFFCURVE",
"209 689 OFFCURVE",
"269 689 CURVE SMOOTH",
"305 689 OFFCURVE",
"329 632 OFFCURVE",
"329 572 CURVE SMOOTH",
"329 431 OFFCURVE",
"171 189 OFFCURVE",
"71 49 CURVE SMOOTH",
"37 1 OFFCURVE",
"64 -16 OFFCURVE",
"110 -16 CURVE SMOOTH",
"156 -16 OFFCURVE",
"348 -11 OFFCURVE",
"392 -11 CURVE SMOOTH",
"455 -11 OFFCURVE",
"464 49 OFFCURVE",
"392 49 CURVE SMOOTH",
"173 49 LINE",
"191 31 LINE",
"280 144 OFFCURVE",
"455 426 OFFCURVE",
"455 573 CURVE SMOOTH",
"455 735 OFFCURVE",
"348 749 OFFCURVE",
"266 749 CURVE SMOOTH"
);
}
);
userData = {
assembly = "SVTCA[0]\011/* SetFreedomAndProjectionVectorToAxis */
PUSHB[ ]\011/* 7 values pushed */
124 11 3 2 60 117 3 
CALL[ ]\011/* CallFunction */
IUP[0]\011/* InterpolateUntPts */
IUP[1]\011/* InterpolateUntPts */";
};
width = 500;
}
);
note = uni0032;
unicode = 0032;
},
{
color = 5;
glyphname = three;
lastChange = "2019-12-11 06:40:48 +0000";
layers = (
{
layerId = "47F7128E-F1A6-4572-9BDC-88462FF34A66";
paths = (
{
closed = 1;
nodes = (
"64 752 OFFCURVE",
"57 592 OFFCURVE",
"57 527 CURVE SMOOTH",
"57 490 OFFCURVE",
"76 483 OFFCURVE",
"115 483 CURVE SMOOTH",
"167 483 OFFCURVE",
"186 504 OFFCURVE",
"186 554 CURVE SMOOTH",
"186 604 OFFCURVE",
"207 699 OFFCURVE",
"266 699 CURVE SMOOTH",
"325 699 OFFCURVE",
"354 614 OFFCURVE",
"354 556 CURVE SMOOTH",
"354 419 OFFCURVE",
"334 393 OFFCURVE",
"203 393 CURVE SMOOTH",
"170 393 OFFCURVE",
"181 339 OFFCURVE",
"203 339 CURVE SMOOTH",
"296 339 OFFCURVE",
"350 293 OFFCURVE",
"350 186 CURVE SMOOTH",
"350 110 OFFCURVE",
"330 43 OFFCURVE",
"250 43 CURVE SMOOTH",
"169 43 OFFCURVE",
"166 94 OFFCURVE",
"166 122 CURVE SMOOTH",
"166 181 OFFCURVE",
"134 196 OFFCURVE",
"102 196 CURVE SMOOTH",
"59 196 OFFCURVE",
"47 172 OFFCURVE",
"47 122 CURVE SMOOTH",
"47 49 OFFCURVE",
"113 -18 OFFCURVE",
"247 -18 CURVE SMOOTH",
"370 -18 OFFCURVE",
"456 -1 OFFCURVE",
"456 165 CURVE SMOOTH",
"456 267 OFFCURVE",
"434 345 OFFCURVE",
"388 391 CURVE",
"388 331 LINE",
"434 380 OFFCURVE",
"459 429 OFFCURVE",
"459 548 CURVE SMOOTH",
"459 712 OFFCURVE",
"371 752 OFFCURVE",
"264 752 CURVE"
);
}
);
userData = {
assembly = "SVTCA[0]\011/* SetFreedomAndProjectionVectorToAxis */
IUP[0]\011/* InterpolateUntPts */
IUP[1]\011/* InterpolateUntPts */";
};
width = 500;
},
{
associatedMasterId = "47F7128E-F1A6-4572-9BDC-88462FF34A66";
background = {
paths = (
{
closed = 1;
nodes = (
"336 -16 OFFCURVE",
"391 4 QCURVE",
"434 31 OFFCURVE",
"446 84 QCURVE SMOOTH",
"461 147 OFFCURVE",
"453 212 QCURVE",
"450 267 OFFCURVE",
"430 317 QCURVE",
"416 334 OFFCURVE",
"414 354 QCURVE",
"423 376 OFFCURVE",
"437 394 QCURVE",
"457 436 OFFCURVE",
"455 483 QCURVE",
"458 536 OFFCURVE",
"455 591 QCURVE SMOOTH",
"453 616 OFFCURVE",
"445 642 QCURVE",
"436 662 OFFCURVE",
"423 682 QCURVE SMOOTH",
"400 719 OFFCURVE",
"359 734 QCURVE",
"314 747 OFFCURVE",
"268 752 QCURVE SMOOTH",
"241 756 OFFCURVE",
"215 751 QCURVE SMOOTH",
"190 747 OFFCURVE",
"167 741 QCURVE",
"139 744 OFFCURVE",
"129 721 QCURVE",
"125 720 OFFCURVE",
"125 724 QCURVE",
"122 714 OFFCURVE",
"114 710 QCURVE",
"104 699 OFFCURVE",
"99 689 QCURVE SMOOTH",
"83 667 OFFCURVE",
"73 643 QCURVE",
"70 628 OFFCURVE",
"68 614 QCURVE",
"63 601 OFFCURVE",
"62 587 QCURVE SMOOTH",
"60 560 OFFCURVE",
"60 532 QCURVE",
"51 508 OFFCURVE",
"64 487 QCURVE",
"80 476 OFFCURVE",
"99 481 QCURVE",
"125 483 OFFCURVE",
"153 483 QCURVE",
"167 479 OFFCURVE",
"172 490 QCURVE",
"187 497 OFFCURVE",
"184 518 QCURVE",
"187 553 OFFCURVE",
"192 589 QCURVE",
"193 648 OFFCURVE",
"238 686 QCURVE",
"262 701 OFFCURVE",
"289 689 QCURVE",
"314 669 OFFCURVE",
"328 639 QCURVE",
"340 604 OFFCURVE",
"338 567 QCURVE SMOOTH",
"339 531 OFFCURVE",
"337 495 QCURVE SMOOTH",
"337 450 OFFCURVE",
"313 414 QCURVE",
"297 398 OFFCURVE",
"274 396 QCURVE",
"252 392 OFFCURVE",
"230 390 QCURVE",
"188 397 OFFCURVE",
"179 362 QCURVE",
"196 324 OFFCURVE",
"241 334 QCURVE",
"287 331 OFFCURVE",
"311 290 QCURVE",
"330 247 OFFCURVE",
"334 200 QCURVE SMOOTH",
"337 152 OFFCURVE",
"333 106 QCURVE SMOOTH",
"328 59 OFFCURVE",
"287 40 QCURVE",
"263 34 OFFCURVE",
"240 41 QCURVE",
"229 42 OFFCURVE",
"221 47 QCURVE SMOOTH",
"213 52 OFFCURVE",
"205 58 QCURVE",
"184 66 OFFCURVE",
"175 89 QCURVE SMOOTH",
"168 107 OFFCURVE",
"168 129 QCURVE",
"174 176 OFFCURVE",
"134 188 QCURVE",
"109 186 OFFCURVE",
"87 178 QCURVE",
"65 175 OFFCURVE",
"49 163 QCURVE",
"36 146 OFFCURVE",
"39 123 QCURVE",
"38 100 OFFCURVE",
"42 78 QCURVE SMOOTH",
"54 32 OFFCURVE",
"96 9 QCURVE SMOOTH",
"115 -3 OFFCURVE",
"140 -8 QCURVE",
"161 -16 OFFCURVE",
"186 -18 QCURVE",
"193 -17 OFFCURVE",
"201 -18 QCURVE",
"206 -20 OFFCURVE",
"212 -20 QCURVE SMOOTH",
"223 -20 OFFCURVE",
"234 -18 QCURVE SMOOTH",
"258 -15 OFFCURVE",
"280 -21 QCURVE",
"280 -21 LINE"
);
}
);
};
layerId = "E86ABFAE-A56C-48C9-8E09-77B68A24CE6E";
name = "Nov 12 19, 21:07";
userData = {
assembly = "SVTCA[0]\011/* SetFreedomAndProjectionVectorToAxis */
IUP[0]\011/* InterpolateUntPts */
IUP[1]\011/* InterpolateUntPts */";
};
vertWidth = 1000;
width = 500;
}
);
note = uni0033;
unicode = 0033;
},
{
color = 5;
glyphname = four;
lastChange = "2019-12-11 06:40:48 +0000";
layers = (
{
layerId = "47F7128E-F1A6-4572-9BDC-88462FF34A66";
paths = (
{
closed = 1;
nodes = (
"380 271 LINE SMOOTH",
"374 271 OFFCURVE",
"371 274 OFFCURVE",
"371 280 CURVE SMOOTH",
"371 714 LINE SMOOTH",
"371 735 OFFCURVE",
"358 760 OFFCURVE",
"337 760 CURVE SMOOTH",
"297 760 LINE SMOOTH",
"276 760 OFFCURVE",
"267 735 OFFCURVE",
"267 714 CURVE SMOOTH",
"267 280 LINE SMOOTH",
"267 275 OFFCURVE",
"264 271 OFFCURVE",
"259 271 CURVE SMOOTH",
"185 271 LINE SMOOTH",
"160 271 OFFCURVE",
"150 281 OFFCURVE",
"150 309 CURVE SMOOTH",
"150 342 OFFCURVE",
"161 668 OFFCURVE",
"161 691 CURVE SMOOTH",
"161 726 OFFCURVE",
"143 734 OFFCURVE",
"99 734 CURVE SMOOTH",
"64 734 OFFCURVE",
"51 713 OFFCURVE",
"51 670 CURVE SMOOTH",
"51 643 OFFCURVE",
"33 272 OFFCURVE",
"33 234 CURVE SMOOTH",
"33 208 OFFCURVE",
"51 200 OFFCURVE",
"99 200 CURVE SMOOTH",
"240 200 LINE SMOOTH",
"267 200 OFFCURVE",
"267 195 OFFCURVE",
"267 157 CURVE SMOOTH",
"267 19 LINE SMOOTH",
"267 -2 OFFCURVE",
"282 -15 OFFCURVE",
"303 -15 CURVE SMOOTH",
"338 -15 LINE SMOOTH",
"359 -15 OFFCURVE",
"371 -4 OFFCURVE",
"371 17 CURVE SMOOTH",
"371 191 LINE SMOOTH",
"371 196 OFFCURVE",
"375 200 OFFCURVE",
"380 200 CURVE SMOOTH",
"451 200 LINE SMOOTH",
"477 200 OFFCURVE",
"477 215 OFFCURVE",
"477 239 CURVE SMOOTH",
"477 263 OFFCURVE",
"465 271 OFFCURVE",
"442 271 CURVE SMOOTH"
);
}
);
userData = {
assembly = "PUSHB[ ]\011/* 5 values pushed */
36 35 110 28 1 
CALL[ ]\011/* CallFunction */
SVTCA[0]\011/* SetFreedomAndProjectionVectorToAxis */
IUP[0]\011/* InterpolateUntPts */
IUP[1]\011/* InterpolateUntPts */";
};
width = 500;
},
{
associatedMasterId = "47F7128E-F1A6-4572-9BDC-88462FF34A66";
background = {
paths = (
{
closed = 1;
nodes = (
"281 -23 OFFCURVE",
"297 -20 QCURVE SMOOTH",
"313 -17 OFFCURVE",
"329 -14 QCURVE SMOOTH",
"354 -8 OFFCURVE",
"366 18 QCURVE",
"373 50 OFFCURVE",
"368 83 QCURVE",
"367 116 OFFCURVE",
"370 149 QCURVE",
"368 172 OFFCURVE",
"378 192 QCURVE",
"395 205 OFFCURVE",
"416 205 QCURVE",
"439 202 OFFCURVE",
"462 208 QCURVE SMOOTH",
"480 213 OFFCURVE",
"498 220 QCURVE",
"515 233 OFFCURVE",
"507 255 QCURVE",
"497 271 OFFCURVE",
"479 268 QCURVE",
"454 268 OFFCURVE",
"431 271 QCURVE",
"407 267 OFFCURVE",
"386 271 QCURVE SMOOTH",
"365 278 OFFCURVE",
"368 301 QCURVE SMOOTH",
"370 322 OFFCURVE",
"371 347 QCURVE SMOOTH",
"374 399 OFFCURVE",
"377 454 QCURVE SMOOTH",
"378 509 OFFCURVE",
"383 563 QCURVE",
"384 619 OFFCURVE",
"389 674 QCURVE",
"393 692 OFFCURVE",
"391 713 QCURVE",
"383 729 OFFCURVE",
"365 732 QCURVE",
"359 732 OFFCURVE",
"355 734 QCURVE",
"349 733 OFFCURVE",
"344 732 QCURVE SMOOTH",
"333 729 OFFCURVE",
"321 730 QCURVE SMOOTH",
"302 730 OFFCURVE",
"285 722 QCURVE",
"273 706 OFFCURVE",
"279 687 QCURVE",
"280 661 OFFCURVE",
"278 637 QCURVE SMOOTH",
"276 582 OFFCURVE",
"273 528 QCURVE SMOOTH",
"265 417 OFFCURVE",
"264 307 QCURVE",
"266 287 OFFCURVE",
"250 279 QCURVE",
"238 279 OFFCURVE",
"229 280 QCURVE",
"218 279 OFFCURVE",
"208 279 QCURVE SMOOTH",
"194 279 OFFCURVE",
"182 280 QCURVE",
"172 279 OFFCURVE",
"164 285 QCURVE",
"153 301 OFFCURVE",
"159 320 QCURVE",
"159 428 OFFCURVE",
"163 535 QCURVE SMOOTH",
"164 563 OFFCURVE",
"167 591 QCURVE",
"167 615 OFFCURVE",
"167 642 QCURVE",
"175 674 OFFCURVE",
"164 706 QCURVE",
"131 734 OFFCURVE",
"88 724 QCURVE",
"49 708 OFFCURVE",
"60 662 QCURVE",
"60 608 OFFCURVE",
"58 555 QCURVE SMOOTH",
"55 499 OFFCURVE",
"54 444 QCURVE SMOOTH",
"52 389 OFFCURVE",
"49 335 QCURVE SMOOTH",
"48 308 OFFCURVE",
"46 280 QCURVE",
"41 255 OFFCURVE",
"43 230 QCURVE SMOOTH",
"43 209 OFFCURVE",
"63 201 QCURVE",
"72 199 OFFCURVE",
"83 202 QCURVE",
"95 202 OFFCURVE",
"107 203 QCURVE SMOOTH",
"133 207 OFFCURVE",
"159 210 QCURVE",
"185 208 OFFCURVE",
"210 205 QCURVE",
"232 205 OFFCURVE",
"252 194 QCURVE",
"262 180 OFFCURVE",
"259 161 QCURVE",
"260 109 OFFCURVE",
"256 59 QCURVE",
"252 37 OFFCURVE",
"244 -13 OFFCURVE",
"266 -24 QCURVE",
"266 -24 LINE"
);
}
);
};
layerId = "B71C266B-9797-47C3-BB18-A1BC5E960D87";
name = "Nov 12 19, 21:14";
paths = (
{
closed = 1;
nodes = (
"359 -19 OFFCURVE",
"372 6 OFFCURVE",
"372 49 CURVE SMOOTH",
"372 66 OFFCURVE",
"370 86 OFFCURVE",
"370 109 CURVE SMOOTH",
"370 118 OFFCURVE",
"370 129 OFFCURVE",
"371 139 CURVE",
"373 161 OFFCURVE",
"369 188 OFFCURVE",
"389 198 CURVE",
"418 212 OFFCURVE",
"449 198 OFFCURVE",
"479 212 CURVE",
"498 217 OFFCURVE",
"512 226 OFFCURVE",
"512 241 CURVE SMOOTH",
"512 246 OFFCURVE",
"510 252 OFFCURVE",
"506 259 CURVE",
"497 268 OFFCURVE",
"480 270 OFFCURVE",
"461 270 CURVE SMOOTH",
"446 270 OFFCURVE",
"429 269 OFFCURVE",
"414 269 CURVE SMOOTH",
"391 269 OFFCURVE",
"372 272 OFFCURVE",
"370 290 CURVE",
"382 559 OFFCURVE",
"392 659 OFFCURVE",
"392 699 CURVE SMOOTH",
"392 730 OFFCURVE",
"386 723 OFFCURVE",
"369 731 CURVE",
"291 734 OFFCURVE",
"279 723 OFFCURVE",
"279 694 CURVE SMOOTH",
"279 681 OFFCURVE",
"281 665 OFFCURVE",
"281 645 CURVE SMOOTH",
"281 636 OFFCURVE",
"281 625 OFFCURVE",
"279 613 CURVE",
"255 230 OFFCURVE",
"286 284 OFFCURVE",
"219 279 CURVE",
"183 278 OFFCURVE",
"159 276 OFFCURVE",
"159 305 CURVE SMOOTH",
"159 309 OFFCURVE",
"159 313 OFFCURVE",
"160 317 CURVE",
"161 330 OFFCURVE",
"161 344 OFFCURVE",
"161 357 CURVE SMOOTH",
"161 374 OFFCURVE",
"161 391 OFFCURVE",
"162 407 CURVE",
"162 523 OFFCURVE",
"171 617 OFFCURVE",
"171 667 CURVE SMOOTH",
"171 691 OFFCURVE",
"169 705 OFFCURVE",
"164 708 CURVE",
"149 720 OFFCURVE",
"130 727 OFFCURVE",
"112 727 CURVE SMOOTH",
"98 727 OFFCURVE",
"84 723 OFFCURVE",
"74 714 CURVE",
"64 705 OFFCURVE",
"60 695 OFFCURVE",
"60 681 CURVE",
"61 655 OFFCURVE",
"61 629 OFFCURVE",
"61 604 CURVE SMOOTH",
"61 478 OFFCURVE",
"51 359 OFFCURVE",
"45 233 CURVE",
"44 207 OFFCURVE",
"60 200 OFFCURVE",
"81 200 CURVE SMOOTH",
"104 200 OFFCURVE",
"131 208 OFFCURVE",
"148 208 CURVE",
"186 210 OFFCURVE",
"250 205 OFFCURVE",
"257 189 CURVE",
"261 173 OFFCURVE",
"262 155 OFFCURVE",
"262 138 CURVE SMOOTH",
"262 108 OFFCURVE",
"258 78 OFFCURVE",
"256 50 CURVE",
"254 34 OFFCURVE",
"250 19 OFFCURVE",
"250 6 CURVE SMOOTH",
"250 -6 OFFCURVE",
"254 -17 OFFCURVE",
"268 -24 CURVE"
);
}
);
userData = {
assembly = "PUSHB[ ]\011/* 5 values pushed */
36 35 110 28 1 
CALL[ ]\011/* CallFunction */
SVTCA[0]\011/* SetFreedomAndProjectionVectorToAxis */
IUP[0]\011/* InterpolateUntPts */
IUP[1]\011/* InterpolateUntPts */";
};
vertWidth = 1000;
width = 544;
}
);
note = uni0034;
unicode = 0034;
},
{
color = 5;
glyphname = five;
lastChange = "2019-12-11 06:40:48 +0000";
layers = (
{
layerId = "47F7128E-F1A6-4572-9BDC-88462FF34A66";
paths = (
{
closed = 1;
nodes = (
"146 777 LINE SMOOTH",
"125 777 OFFCURVE",
"108 766 OFFCURVE",
"108 744 CURVE SMOOTH",
"108 361 LINE SMOOTH",
"108 341 OFFCURVE",
"118 323 OFFCURVE",
"135 323 CURVE SMOOTH",
"165 323 OFFCURVE",
"203 343 OFFCURVE",
"245 343 CURVE SMOOTH",
"313 343 OFFCURVE",
"326 273 OFFCURVE",
"326 178 CURVE SMOOTH",
"326 82 OFFCURVE",
"296 40 OFFCURVE",
"220 40 CURVE SMOOTH",
"150 40 OFFCURVE",
"128 111 OFFCURVE",
"79 111 CURVE SMOOTH",
"61 111 OFFCURVE",
"45 91 OFFCURVE",
"45 68 CURVE SMOOTH",
"45 29 OFFCURVE",
"104 -19 OFFCURVE",
"234 -19 CURVE SMOOTH",
"290 -19 OFFCURVE",
"442 2 OFFCURVE",
"442 181 CURVE SMOOTH",
"442 394 OFFCURVE",
"278 402 OFFCURVE",
"250 402 CURVE SMOOTH",
"222 402 OFFCURVE",
"221 424 OFFCURVE",
"221 459 CURVE SMOOTH",
"221 744 LINE SMOOTH",
"221 765 OFFCURVE",
"209 777 OFFCURVE",
"188 777 CURVE SMOOTH"
);
},
{
closed = 1;
nodes = (
"135 618 OFFCURVE",
"147 608 OFFCURVE",
"168 608 CURVE SMOOTH",
"406 608 LINE SMOOTH",
"427 608 OFFCURVE",
"439 618 OFFCURVE",
"439 636 CURVE SMOOTH",
"439 654 OFFCURVE",
"427 664 OFFCURVE",
"406 664 CURVE SMOOTH",
"168 664 LINE SMOOTH",
"147 664 OFFCURVE",
"135 654 OFFCURVE",
"135 636 CURVE SMOOTH"
);
}
);
userData = {
assembly = "SVTCA[0]\011/* SetFreedomAndProjectionVectorToAxis */
IUP[0]\011/* InterpolateUntPts */
IUP[1]\011/* InterpolateUntPts */";
};
width = 500;
},
{
associatedMasterId = "47F7128E-F1A6-4572-9BDC-88462FF34A66";
background = {
paths = (
{
closed = 1;
nodes = (
"89 -27 OFFCURVE",
"90 -24 QCURVE",
"98 -34 OFFCURVE",
"110 -27 QCURVE",
"130 -21 OFFCURVE",
"150 -21 QCURVE SMOOTH",
"197 -21 OFFCURVE",
"244 -20 QCURVE SMOOTH",
"289 -21 OFFCURVE",
"330 -1 QCURVE SMOOTH",
"361 16 OFFCURVE",
"381 47 QCURVE",
"399 85 OFFCURVE",
"394 131 QCURVE",
"394 176 OFFCURVE",
"384 222 QCURVE SMOOTH",
"375 265 OFFCURVE",
"346 298 QCURVE SMOOTH",
"317 328 OFFCURVE",
"281 344 QCURVE",
"239 357 OFFCURVE",
"195 357 QCURVE",
"159 375 OFFCURVE",
"175 419 QCURVE",
"174 433 OFFCURVE",
"175 446 QCURVE SMOOTH",
"175 457 OFFCURVE",
"177 469 QCURVE SMOOTH",
"179 493 OFFCURVE",
"180 518 QCURVE",
"174 544 OFFCURVE",
"184 567 QCURVE",
"194 582 OFFCURVE",
"213 581 QCURVE SMOOTH",
"240 580 OFFCURVE",
"267 578 QCURVE",
"273 581 OFFCURVE",
"281 578 QCURVE SMOOTH",
"292 574 OFFCURVE",
"303 574 QCURVE SMOOTH",
"328 573 OFFCURVE",
"354 574 QCURVE SMOOTH",
"373 573 OFFCURVE",
"391 582 QCURVE SMOOTH",
"427 604 OFFCURVE",
"400 631 QCURVE",
"378 637 OFFCURVE",
"355 638 QCURVE",
"345 643 OFFCURVE",
"337 639 QCURVE",
"321 641 OFFCURVE",
"307 638 QCURVE",
"298 639 OFFCURVE",
"289 642 QCURVE",
"280 642 OFFCURVE",
"273 639 QCURVE",
"254 635 OFFCURVE",
"235 637 QCURVE",
"218 635 OFFCURVE",
"200 634 QCURVE",
"187 630 OFFCURVE",
"181 643 QCURVE",
"176 659 OFFCURVE",
"177 677 QCURVE SMOOTH",
"182 714 OFFCURVE",
"172 748 QCURVE",
"162 762 OFFCURVE",
"147 759 QCURVE",
"131 753 OFFCURVE",
"115 753 QCURVE",
"77 760 OFFCURVE",
"61 729 QCURVE",
"59 710 OFFCURVE",
"62 691 QCURVE",
"62 670 OFFCURVE",
"63 649 QCURVE",
"63 608 OFFCURVE",
"64 566 QCURVE SMOOTH",
"64 513 OFFCURVE",
"63 459 QCURVE SMOOTH",
"64 405 OFFCURVE",
"56 354 QCURVE",
"49 332 OFFCURVE",
"52 310 QCURVE",
"62 291 OFFCURVE",
"83 293 QCURVE SMOOTH",
"106 294 OFFCURVE",
"132 296 QCURVE",
"156 291 OFFCURVE",
"182 291 QCURVE SMOOTH",
"190 292 OFFCURVE",
"200 290 QCURVE",
"205 284 OFFCURVE",
"211 279 QCURVE",
"229 273 OFFCURVE",
"241 258 QCURVE SMOOTH",
"268 223 OFFCURVE",
"274 179 QCURVE SMOOTH",
"284 128 OFFCURVE",
"275 79 QCURVE SMOOTH",
"270 56 OFFCURVE",
"252 41 QCURVE",
"245 33 OFFCURVE",
"239 36 QCURVE",
"200 23 OFFCURVE",
"162 38 QCURVE",
"120 37 OFFCURVE",
"81 24 QCURVE",
"64 22 OFFCURVE",
"53 11 QCURVE",
"44 -1 OFFCURVE",
"51 -14 QCURVE",
"68 -21 OFFCURVE",
"88 -28 QCURVE",
"88 -28 LINE"
);
}
);
};
layerId = "434833B0-92E3-4970-996A-F146A99158A7";
name = "Nov 12 19, 21:21";
paths = (
{
closed = 1;
nodes = (
"95 -28 OFFCURVE",
"96 -27 OFFCURVE",
"96 -25 CURVE",
"99 -29 OFFCURVE",
"103 -30 OFFCURVE",
"108 -30 CURVE SMOOTH",
"111 -30 OFFCURVE",
"115 -29 OFFCURVE",
"119 -27 CURVE",
"142 -22 OFFCURVE",
"165 -21 OFFCURVE",
"188 -21 CURVE SMOOTH",
"203 -21 OFFCURVE",
"219 -21 OFFCURVE",
"234 -21 CURVE SMOOTH",
"251 -21 OFFCURVE",
"268 -21 OFFCURVE",
"284 -19 CURVE",
"361 -6 OFFCURVE",
"402 43 OFFCURVE",
"402 110 CURVE SMOOTH",
"402 115 OFFCURVE",
"402 121 OFFCURVE",
"401 127 CURVE",
"401 264 OFFCURVE",
"347 349 OFFCURVE",
"218 356 CURVE",
"208 356 OFFCURVE",
"198 355 OFFCURVE",
"190 363 CURVE",
"180 371 OFFCURVE",
"177 384 OFFCURVE",
"177 398 CURVE SMOOTH",
"177 420 OFFCURVE",
"185 447 OFFCURVE",
"183 465 CURVE",
"185 478 OFFCURVE",
"185 489 OFFCURVE",
"186 500 CURVE SMOOTH",
"186 514 OFFCURVE",
"185 526 OFFCURVE",
"185 536 CURVE SMOOTH",
"185 551 OFFCURVE",
"187 563 OFFCURVE",
"195 572 CURVE",
"206 578 OFFCURVE",
"222 581 OFFCURVE",
"240 581 CURVE SMOOTH",
"275 581 OFFCURVE",
"318 572 OFFCURVE",
"353 572 CURVE SMOOTH",
"374 572 OFFCURVE",
"393 575 OFFCURVE",
"405 586 CURVE",
"414 592 OFFCURVE",
"418 601 OFFCURVE",
"418 609 CURVE SMOOTH",
"418 619 OFFCURVE",
"412 628 OFFCURVE",
"400 632 CURVE",
"372 638 OFFCURVE",
"346 640 OFFCURVE",
"320 640 CURVE SMOOTH",
"281 640 OFFCURVE",
"243 636 OFFCURVE",
"202 632 CURVE",
"186 633 OFFCURVE",
"183 653 OFFCURVE",
"183 676 CURVE SMOOTH",
"183 687 OFFCURVE",
"184 699 OFFCURVE",
"184 711 CURVE SMOOTH",
"184 735 OFFCURVE",
"181 756 OFFCURVE",
"163 758 CURVE",
"143 757 OFFCURVE",
"123 751 OFFCURVE",
"100 753 CURVE",
"72 749 OFFCURVE",
"66 729 OFFCURVE",
"67 706 CURVE SMOOTH",
"67 683 OFFCURVE",
"72 658 OFFCURVE",
"69 638 CURVE",
"70 598 OFFCURVE",
"70 559 OFFCURVE",
"71 519 CURVE SMOOTH",
"71 452 OFFCURVE",
"69 385 OFFCURVE",
"58 319 CURVE",
"59 297 OFFCURVE",
"73 292 OFFCURVE",
"91 292 CURVE SMOOTH",
"108 292 OFFCURVE",
"128 297 OFFCURVE",
"141 295 CURVE",
"169 290 OFFCURVE",
"182 290 OFFCURVE",
"189 290 CURVE SMOOTH",
"204 290 OFFCURVE",
"200 292 OFFCURVE",
"227 274 CURVE",
"265 255 OFFCURVE",
"286 186 OFFCURVE",
"287 126 CURVE SMOOTH",
"287 82 OFFCURVE",
"275 44 OFFCURVE",
"249 34 CURVE",
"231 31 OFFCURVE",
"218 29 OFFCURVE",
"208 30 CURVE SMOOTH",
"184 30 OFFCURVE",
"178 37 OFFCURVE",
"160 37 CURVE SMOOTH",
"157 37 OFFCURVE",
"154 37 OFFCURVE",
"149 36 CURVE",
"84 29 OFFCURVE",
"54 13 OFFCURVE",
"54 -2 CURVE SMOOTH",
"54 -12 OFFCURVE",
"68 -22 OFFCURVE",
"94 -29 CURVE"
);
}
);
userData = {
assembly = "SVTCA[0]\011/* SetFreedomAndProjectionVectorToAxis */
IUP[0]\011/* InterpolateUntPts */
IUP[1]\011/* InterpolateUntPts */";
};
vertWidth = 1000;
width = 464;
}
);
note = uni0035;
unicode = 0035;
},
{
color = 5;
glyphname = six;
lastChange = "2019-12-11 06:40:48 +0000";
layers = (
{
layerId = "47F7128E-F1A6-4572-9BDC-88462FF34A66";
paths = (
{
closed = 1;
nodes = (
"95 754 OFFCURVE",
"42 555 OFFCURVE",
"42 312 CURVE SMOOTH",
"42 55 OFFCURVE",
"136 -23 OFFCURVE",
"264 -23 CURVE SMOOTH",
"415 -23 OFFCURVE",
"463 101 OFFCURVE",
"463 215 CURVE SMOOTH",
"463 332 OFFCURVE",
"379 429 OFFCURVE",
"274 429 CURVE SMOOTH",
"170 429 OFFCURVE",
"83 310 OFFCURVE",
"83 276 CURVE",
"136 276 LINE",
"136 371 OFFCURVE",
"165 685 OFFCURVE",
"254 685 CURVE SMOOTH",
"293 685 OFFCURVE",
"323 630 OFFCURVE",
"336 600 CURVE SMOOTH",
"352 558 OFFCURVE",
"371 549 OFFCURVE",
"424 549 CURVE SMOOTH",
"441 549 OFFCURVE",
"452 578 OFFCURVE",
"437 612 CURVE SMOOTH",
"422 646 OFFCURVE",
"352 754 OFFCURVE",
"255 754 CURVE"
);
},
{
closed = 1;
nodes = (
"337 373 OFFCURVE",
"359 293 OFFCURVE",
"359 192 CURVE SMOOTH",
"359 99 OFFCURVE",
"322 44 OFFCURVE",
"264 44 CURVE SMOOTH",
"199 44 OFFCURVE",
"154 110 OFFCURVE",
"154 221 CURVE SMOOTH",
"154 289 OFFCURVE",
"225 373 OFFCURVE",
"274 373 CURVE"
);
}
);
userData = {
assembly = "PUSHB[ ]\011/* 5 values pushed */
108 107 99 138 1 
CALL[ ]\011/* CallFunction */
SVTCA[0]\011/* SetFreedomAndProjectionVectorToAxis */
PUSHB[ ]\011/* 8 values pushed */
120 66 170 0 120 73 168 0 
CALL[ ]\011/* CallFunction */
CALL[ ]\011/* CallFunction */
IUP[0]\011/* InterpolateUntPts */
IUP[1]\011/* InterpolateUntPts */";
};
width = 500;
},
{
associatedMasterId = "47F7128E-F1A6-4572-9BDC-88462FF34A66";
background = {
paths = (
{
closed = 1;
nodes = (
"234 -22 OFFCURVE",
"259 -22 QCURVE SMOOTH",
"281 -21 OFFCURVE",
"306 -21 QCURVE SMOOTH",
"350 -21 OFFCURVE",
"385 7 QCURVE",
"414 35 OFFCURVE",
"426 74 QCURVE",
"443 118 OFFCURVE",
"451 167 QCURVE",
"452 191 OFFCURVE",
"457 216 QCURVE SMOOTH",
"459 226 OFFCURVE",
"459 236 QCURVE SMOOTH",
"459 245 OFFCURVE",
"463 253 QCURVE",
"464 293 OFFCURVE",
"446 330 QCURVE SMOOTH",
"432 367 OFFCURVE",
"400 394 QCURVE SMOOTH",
"384 408 OFFCURVE",
"363 414 QCURVE SMOOTH",
"354 416 OFFCURVE",
"345 420 QCURVE SMOOTH",
"336 423 OFFCURVE",
"327 421 QCURVE",
"327 423 LINE",
"322 420 OFFCURVE",
"322 425 QCURVE",
"314 421 OFFCURVE",
"308 427 QCURVE",
"281 431 OFFCURVE",
"256 426 QCURVE SMOOTH",
"230 421 OFFCURVE",
"206 416 QCURVE",
"185 416 OFFCURVE",
"165 408 QCURVE",
"155 392 OFFCURVE",
"145 398 QCURVE",
"142 423 OFFCURVE",
"148 447 QCURVE",
"150 473 OFFCURVE",
"156 498 QCURVE SMOOTH",
"163 522 OFFCURVE",
"167 548 QCURVE SMOOTH",
"169 569 OFFCURVE",
"180 589 QCURVE",
"195 633 OFFCURVE",
"229 666 QCURVE",
"241 683 OFFCURVE",
"263 687 QCURVE",
"279 681 OFFCURVE",
"291 666 QCURVE SMOOTH",
"319 634 OFFCURVE",
"336 595 QCURVE",
"342 574 OFFCURVE",
"357 563 QCURVE",
"367 559 OFFCURVE",
"379 557 QCURVE",
"387 549 OFFCURVE",
"397 552 QCURVE",
"400 548 OFFCURVE",
"406 546 QCURVE",
"409 540 OFFCURVE",
"416 542 QCURVE SMOOTH",
"434 545 OFFCURVE",
"442 560 QCURVE",
"451 594 OFFCURVE",
"431 624 QCURVE",
"408 670 OFFCURVE",
"382 712 QCURVE",
"366 729 OFFCURVE",
"347 738 QCURVE",
"339 740 OFFCURVE",
"330 741 QCURVE",
"322 745 OFFCURVE",
"315 750 QCURVE",
"302 755 OFFCURVE",
"288 757 QCURVE",
"276 755 OFFCURVE",
"266 753 QCURVE",
"242 753 OFFCURVE",
"220 750 QCURVE SMOOTH",
"198 745 OFFCURVE",
"179 736 QCURVE",
"157 724 OFFCURVE",
"140 709 QCURVE",
"126 692 OFFCURVE",
"113 677 QCURVE",
"97 661 OFFCURVE",
"90 641 QCURVE SMOOTH",
"80 616 OFFCURVE",
"75 591 QCURVE",
"66 566 OFFCURVE",
"62 543 QCURVE SMOOTH",
"53 491 OFFCURVE",
"52 438 QCURVE",
"49 409 OFFCURVE",
"47 382 QCURVE SMOOTH",
"46 368 OFFCURVE",
"47 355 QCURVE SMOOTH",
"49 343 OFFCURVE",
"46 333 QCURVE",
"49 320 OFFCURVE",
"46 307 QCURVE",
"49 293 OFFCURVE",
"46 281 QCURVE",
"44 264 OFFCURVE",
"46 247 QCURVE",
"46 220 LINE",
"51 158 OFFCURVE",
"67 100 QCURVE",
"73 71 OFFCURVE",
"85 46 QCURVE",
"99 25 OFFCURVE",
"117 10 QCURVE SMOOTH",
"128 -1 OFFCURVE",
"142 -8 QCURVE",
"149 -18 OFFCURVE",
"162 -20 QCURVE",
"188 -20 OFFCURVE",
"213 -27 QCURVE",
"213 -27 LINE"
);
},
{
closed = 1;
nodes = (
"247 42 OFFCURVE",
"236 49 QCURVE",
"215 49 OFFCURVE",
"204 70 QCURVE",
"197 76 OFFCURVE",
"191 82 QCURVE SMOOTH",
"186 89 OFFCURVE",
"184 99 QCURVE",
"175 112 OFFCURVE",
"166 128 QCURVE SMOOTH",
"151 159 OFFCURVE",
"155 193 QCURVE",
"155 209 OFFCURVE",
"158 224 QCURVE",
"160 222 OFFCURVE",
"159 220 QCURVE",
"163 233 OFFCURVE",
"168 248 QCURVE",
"170 262 OFFCURVE",
"174 276 QCURVE SMOOTH",
"179 304 OFFCURVE",
"196 327 QCURVE SMOOTH",
"213 349 OFFCURVE",
"234 366 QCURVE SMOOTH",
"253 381 OFFCURVE",
"276 377 QCURVE SMOOTH",
"324 366 OFFCURVE",
"343 319 QCURVE SMOOTH",
"356 290 OFFCURVE",
"362 260 QCURVE",
"363 245 OFFCURVE",
"362 231 QCURVE SMOOTH",
"362 225 OFFCURVE",
"359 221 QCURVE",
"356 219 OFFCURVE",
"356 217 QCURVE",
"360 217 LINE",
"358 174 OFFCURVE",
"351 133 QCURVE",
"350 111 OFFCURVE",
"341 92 QCURVE",
"329 82 OFFCURVE",
"326 68 QCURVE",
"315 66 OFFCURVE",
"313 56 QCURVE",
"305 45 OFFCURVE",
"291 46 QCURVE SMOOTH",
"275 47 OFFCURVE",
"263 42 QCURVE",
"263 42 LINE"
);
}
);
};
layerId = "0E965D3D-B158-4844-A7B6-D8BC82117763";
name = "Nov 12 19, 21:50";
paths = (
{
closed = 1;
nodes = (
"216 54 OFFCURVE",
"196 77 OFFCURVE",
"180 112 CURVE",
"160 137 OFFCURVE",
"153 165 OFFCURVE",
"153 194 CURVE SMOOTH",
"153 206 OFFCURVE",
"154 219 OFFCURVE",
"157 232 CURVE",
"158 231 OFFCURVE",
"158 230 OFFCURVE",
"158 228 CURVE",
"181 311 OFFCURVE",
"179 328 OFFCURVE",
"228 370 CURVE",
"241 382 OFFCURVE",
"255 387 OFFCURVE",
"268 386 CURVE SMOOTH",
"318 386 OFFCURVE",
"361 310 OFFCURVE",
"361 256 CURVE SMOOTH",
"361 245 OFFCURVE",
"359 234 OFFCURVE",
"355 225 CURVE",
"359 225 LINE",
"350 104 OFFCURVE",
"347 105 OFFCURVE",
"305 58 CURVE",
"293 50 OFFCURVE",
"275 57 OFFCURVE",
"262 50 CURVE"
);
},
{
closed = 1;
nodes = (
"289 -4 OFFCURVE",
"352 -31 OFFCURVE",
"400 34 CURVE",
"457 118 OFFCURVE",
"449 224 OFFCURVE",
"462 261 CURVE",
"463 337 OFFCURVE",
"409 429 OFFCURVE",
"326 429 CURVE",
"326 431 LINE",
"322 429 OFFCURVE",
"321 430 OFFCURVE",
"321 433 CURVE",
"307 435 OFFCURVE",
"295 436 OFFCURVE",
"284 436 CURVE SMOOTH",
"252 436 OFFCURVE",
"230 429 OFFCURVE",
"205 424 CURVE",
"169 423 OFFCURVE",
"153 405 OFFCURVE",
"146 405 CURVE SMOOTH",
"144 405 OFFCURVE",
"143 407 OFFCURVE",
"143 413 CURVE SMOOTH",
"143 422 OFFCURVE",
"145 441 OFFCURVE",
"149 478 CURVE",
"164 556 OFFCURVE",
"178 644 OFFCURVE",
"248 691 CURVE",
"251 693 OFFCURVE",
"255 694 OFFCURVE",
"259 694 CURVE SMOOTH",
"300 694 OFFCURVE",
"341 582 OFFCURVE",
"349 577 CURVE",
"361 565 OFFCURVE",
"384 564 OFFCURVE",
"399 557 CURVE",
"406 552 OFFCURVE",
"412 550 OFFCURVE",
"418 550 CURVE SMOOTH",
"435 550 OFFCURVE",
"443 571 OFFCURVE",
"443 591 CURVE SMOOTH",
"443 605 OFFCURVE",
"440 618 OFFCURVE",
"433 627 CURVE",
"405 676 OFFCURVE",
"388 724 OFFCURVE",
"356 741 CURVE",
"312 758 OFFCURVE",
"301 764 OFFCURVE",
"286 764 CURVE SMOOTH",
"280 764 OFFCURVE",
"272 763 OFFCURVE",
"262 761 CURVE",
"171 763 OFFCURVE",
"134 717 OFFCURVE",
"96 665 CURVE",
"46 551 OFFCURVE",
"46 425 OFFCURVE",
"46 303 CURVE",
"45 289 OFFCURVE",
"45 274 OFFCURVE",
"45 260 CURVE SMOOTH",
"45 178 OFFCURVE",
"63 99 OFFCURVE",
"85 52 CURVE",
"153 -34 OFFCURVE",
"176 -5 OFFCURVE",
"212 -19 CURVE"
);
}
);
userData = {
assembly = "PUSHB[ ]\011/* 5 values pushed */
108 107 99 138 1 
CALL[ ]\011/* CallFunction */
SVTCA[0]\011/* SetFreedomAndProjectionVectorToAxis */
PUSHB[ ]\011/* 8 values pushed */
120 66 170 0 120 73 168 0 
CALL[ ]\011/* CallFunction */
CALL[ ]\011/* CallFunction */
IUP[0]\011/* InterpolateUntPts */
IUP[1]\011/* InterpolateUntPts */";
};
vertWidth = 1000;
width = 500;
}
);
note = uni0036;
unicode = 0036;
},
{
color = 5;
glyphname = seven;
lastChange = "2019-12-11 06:40:48 +0000";
layers = (
{
layerId = "47F7128E-F1A6-4572-9BDC-88462FF34A66";
paths = (
{
closed = 1;
nodes = (
"51 395 LINE SMOOTH",
"51 374 OFFCURVE",
"63 362 OFFCURVE",
"85 362 CURVE SMOOTH",
"128 362 LINE SMOOTH",
"148 362 OFFCURVE",
"160 374 OFFCURVE",
"160 395 CURVE SMOOTH",
"160 720 LINE SMOOTH",
"160 741 OFFCURVE",
"147 753 OFFCURVE",
"126 753 CURVE SMOOTH",
"83 753 LINE SMOOTH",
"62 753 OFFCURVE",
"51 741 OFFCURVE",
"51 720 CURVE SMOOTH"
);
},
{
closed = 1;
nodes = (
"192 667 OFFCURVE",
"306 671 OFFCURVE",
"333 671 CURVE SMOOTH",
"360 671 OFFCURVE",
"361 669 OFFCURVE",
"351 638 CURVE SMOOTH",
"342 607 OFFCURVE",
"208 48 OFFCURVE",
"201 20 CURVE SMOOTH",
"193 -8 OFFCURVE",
"203 -26 OFFCURVE",
"221 -26 CURVE SMOOTH",
"236 -26 OFFCURVE",
"265 -26 OFFCURVE",
"278 -26 CURVE SMOOTH",
"296 -26 OFFCURVE",
"311 -13 OFFCURVE",
"319 17 CURVE SMOOTH",
"326 47 OFFCURVE",
"467 655 OFFCURVE",
"474 687 CURVE SMOOTH",
"482 719 OFFCURVE",
"473 735 OFFCURVE",
"426 735 CURVE SMOOTH",
"98 735 LINE",
"133 667 LINE"
);
}
);
userData = {
assembly = "SVTCA[0]\011/* SetFreedomAndProjectionVectorToAxis */
IUP[0]\011/* InterpolateUntPts */
IUP[1]\011/* InterpolateUntPts */";
};
width = 500;
},
{
associatedMasterId = "47F7128E-F1A6-4572-9BDC-88462FF34A66";
background = {
paths = (
{
closed = 1;
nodes = (
"225 -21 OFFCURVE",
"240 -25 QCURVE",
"253 -18 OFFCURVE",
"267 -21 QCURVE",
"266 -20 OFFCURVE",
"266 -20 QCURVE",
"272 -17 OFFCURVE",
"280 -16 QCURVE",
"287 -7 OFFCURVE",
"291 5 QCURVE SMOOTH",
"300 33 OFFCURVE",
"306 63 QCURVE",
"312 77 OFFCURVE",
"318 94 QCURVE",
"321 107 OFFCURVE",
"324 123 QCURVE",
"334 152 OFFCURVE",
"338 183 QCURVE",
"338 197 OFFCURVE",
"342 213 QCURVE",
"348 225 OFFCURVE",
"352 237 QCURVE SMOOTH",
"358 267 OFFCURVE",
"364 297 QCURVE SMOOTH",
"373 329 OFFCURVE",
"381 362 QCURVE SMOOTH",
"387 394 OFFCURVE",
"397 425 QCURVE",
"403 450 OFFCURVE",
"410 477 QCURVE",
"419 500 OFFCURVE",
"426 523 QCURVE SMOOTH",
"433 548 OFFCURVE",
"439 573 QCURVE SMOOTH",
"442 583 OFFCURVE",
"448 592 QCURVE",
"451 602 OFFCURVE",
"449 612 QCURVE",
"459 652 OFFCURVE",
"469 693 QCURVE",
"471 709 OFFCURVE",
"465 723 QCURVE",
"454 734 OFFCURVE",
"438 738 QCURVE SMOOTH",
"417 746 OFFCURVE",
"394 747 QCURVE",
"368 744 OFFCURVE",
"344 743 QCURVE SMOOTH",
"316 744 OFFCURVE",
"291 743 QCURVE",
"269 739 OFFCURVE",
"246 743 QCURVE",
"220 745 OFFCURVE",
"195 743 QCURVE",
"184 739 OFFCURVE",
"174 743 QCURVE SMOOTH",
"166 747 OFFCURVE",
"158 753 QCURVE",
"118 760 OFFCURVE",
"82 739 QCURVE",
"44 712 OFFCURVE",
"61 663 QCURVE",
"64 611 OFFCURVE",
"63 560 QCURVE SMOOTH",
"62 545 OFFCURVE",
"63 531 QCURVE SMOOTH",
"63 519 OFFCURVE",
"65 507 QCURVE",
"61 485 OFFCURVE",
"78 477 QCURVE",
"96 473 OFFCURVE",
"114 475 QCURVE",
"135 474 OFFCURVE",
"156 479 QCURVE",
"187 505 OFFCURVE",
"178 551 QCURVE",
"180 575 OFFCURVE",
"176 599 QCURVE",
"176 621 OFFCURVE",
"177 645 QCURVE",
"174 667 OFFCURVE",
"192 680 QCURVE",
"210 687 OFFCURVE",
"230 684 QCURVE SMOOTH",
"254 679 OFFCURVE",
"278 681 QCURVE SMOOTH",
"301 684 OFFCURVE",
"323 680 QCURVE",
"342 680 OFFCURVE",
"346 662 QCURVE",
"342 641 OFFCURVE",
"336 621 QCURVE",
"335 607 OFFCURVE",
"331 596 QCURVE SMOOTH",
"327 586 OFFCURVE",
"324 576 QCURVE SMOOTH",
"317 554 OFFCURVE",
"312 530 QCURVE SMOOTH",
"296 479 OFFCURVE",
"286 429 QCURVE SMOOTH",
"273 374 OFFCURVE",
"262 321 QCURVE SMOOTH",
"239 215 OFFCURVE",
"211 111 QCURVE SMOOTH",
"195 62 OFFCURVE",
"179 13 QCURVE",
"170 -5 OFFCURVE",
"180 -20 QCURVE",
"194 -29 OFFCURVE",
"213 -31 QCURVE",
"213 -31 LINE"
);
}
);
};
layerId = "993178C0-F5FE-4D51-B23B-BBC40CBC2A37";
name = "Nov 12 19, 21:54";
paths = (
{
closed = 1;
nodes = (
"223 -20 OFFCURVE",
"244 -19 OFFCURVE",
"262 -19 CURVE",
"261 -18 OFFCURVE",
"261 -18 OFFCURVE",
"261 -18 CURVE",
"292 -12 OFFCURVE",
"291 33 OFFCURVE",
"300 59 CURVE",
"314 102 OFFCURVE",
"330 150 OFFCURVE",
"334 197 CURVE",
"352 262 OFFCURVE",
"366 324 OFFCURVE",
"381 390 CURVE",
"436 587 OFFCURVE",
"464 669 OFFCURVE",
"464 705 CURVE SMOOTH",
"464 723 OFFCURVE",
"458 730 OFFCURVE",
"445 736 CURVE",
"421 746 OFFCURVE",
"396 749 OFFCURVE",
"371 748 CURVE SMOOTH",
"337 748 OFFCURVE",
"303 743 OFFCURVE",
"270 743 CURVE SMOOTH",
"264 743 OFFCURVE",
"257 743 OFFCURVE",
"251 744 CURVE",
"230 745 OFFCURVE",
"216 746 OFFCURVE",
"206 745 CURVE SMOOTH",
"190 745 OFFCURVE",
"185 744 OFFCURVE",
"180 744 CURVE SMOOTH",
"174 744 OFFCURVE",
"168 746 OFFCURVE",
"141 757 CURVE",
"88 758 OFFCURVE",
"51 735 OFFCURVE",
"51 690 CURVE SMOOTH",
"51 680 OFFCURVE",
"53 670 OFFCURVE",
"56 658 CURVE",
"58 635 OFFCURVE",
"58 613 OFFCURVE",
"58 591 CURVE SMOOTH",
"58 575 OFFCURVE",
"58 559 OFFCURVE",
"58 543 CURVE",
"60 517 OFFCURVE",
"54 488 OFFCURVE",
"71 480 CURVE",
"82 478 OFFCURVE",
"96 476 OFFCURVE",
"110 475 CURVE SMOOTH",
"135 475 OFFCURVE",
"160 481 OFFCURVE",
"166 499 CURVE",
"173 512 OFFCURVE",
"175 529 OFFCURVE",
"175 547 CURVE SMOOTH",
"175 573 OFFCURVE",
"171 601 OFFCURVE",
"171 622 CURVE SMOOTH",
"171 627 OFFCURVE",
"171 633 OFFCURVE",
"172 638 CURVE",
"169 678 OFFCURVE",
"187 687 OFFCURVE",
"210 686 CURVE SMOOTH",
"228 686 OFFCURVE",
"249 681 OFFCURVE",
"267 683 CURVE",
"276 684 OFFCURVE",
"286 684 OFFCURVE",
"296 684 CURVE SMOOTH",
"315 684 OFFCURVE",
"332 681 OFFCURVE",
"337 674 CURVE",
"339 671 OFFCURVE",
"340 666 OFFCURVE",
"340 661 CURVE SMOOTH",
"340 641 OFFCURVE",
"326 609 OFFCURVE",
"327 601 CURVE",
"286 478 OFFCURVE",
"265 350 OFFCURVE",
"234 224 CURVE",
"202 79 OFFCURVE",
"171 22 OFFCURVE",
"171 -5 CURVE SMOOTH",
"171 -20 OFFCURVE",
"181 -25 OFFCURVE",
"208 -29 CURVE"
);
}
);
userData = {
assembly = "SVTCA[0]\011/* SetFreedomAndProjectionVectorToAxis */
IUP[0]\011/* InterpolateUntPts */
IUP[1]\011/* InterpolateUntPts */";
};
vertWidth = 1000;
width = 500;
}
);
note = uni0037;
unicode = 0037;
},
{
color = 5;
glyphname = eight;
lastChange = "2019-12-11 06:40:48 +0000";
layers = (
{
layerId = "47F7128E-F1A6-4572-9BDC-88462FF34A66";
paths = (
{
closed = 1;
nodes = (
"142 757 OFFCURVE",
"50 691 OFFCURVE",
"50 576 CURVE SMOOTH",
"50 447 OFFCURVE",
"111 368 OFFCURVE",
"256 368 CURVE",
"256 410 LINE",
"142 410 OFFCURVE",
"28 302 OFFCURVE",
"28 171 CURVE SMOOTH",
"28 10 OFFCURVE",
"175 -17 OFFCURVE",
"256 -17 CURVE SMOOTH",
"337 -17 OFFCURVE",
"476 1 OFFCURVE",
"476 186 CURVE SMOOTH",
"476 371 OFFCURVE",
"337 410 OFFCURVE",
"269 410 CURVE",
"269 368 LINE",
"380 368 OFFCURVE",
"452 432 OFFCURVE",
"452 556 CURVE SMOOTH",
"452 660 OFFCURVE",
"380 757 OFFCURVE",
"270 757 CURVE"
);
},
{
closed = 1;
nodes = (
"314 696 OFFCURVE",
"339 656 OFFCURVE",
"339 578 CURVE SMOOTH",
"339 500 OFFCURVE",
"301 442 OFFCURVE",
"259 442 CURVE SMOOTH",
"217 442 OFFCURVE",
"165 480 OFFCURVE",
"165 584 CURVE SMOOTH",
"165 688 OFFCURVE",
"242 696 OFFCURVE",
"255 696 CURVE"
);
},
{
closed = 1;
nodes = (
"291 343 OFFCURVE",
"362 269 OFFCURVE",
"362 203 CURVE SMOOTH",
"362 137 OFFCURVE",
"322 45 OFFCURVE",
"255 45 CURVE SMOOTH",
"188 45 OFFCURVE",
"135 127 OFFCURVE",
"135 208 CURVE SMOOTH",
"135 289 OFFCURVE",
"219 343 OFFCURVE",
"254 343 CURVE"
);
}
);
userData = {
assembly = "SVTCA[0]\011/* SetFreedomAndProjectionVectorToAxis */
IUP[0]\011/* InterpolateUntPts */
IUP[1]\011/* InterpolateUntPts */";
};
width = 500;
},
{
associatedMasterId = "47F7128E-F1A6-4572-9BDC-88462FF34A66";
background = {
paths = (
{
closed = 1;
nodes = (
"307 -21 OFFCURVE",
"313 -22 QCURVE SMOOTH",
"316 -22 OFFCURVE",
"320 -21 QCURVE",
"328 -23 OFFCURVE",
"336 -22 QCURVE",
"341 -16 OFFCURVE",
"350 -16 QCURVE SMOOTH",
"359 -16 OFFCURVE",
"367 -9 QCURVE",
"365 -9 LINE",
"369 -5 OFFCURVE",
"375 -2 QCURVE",
"381 3 OFFCURVE",
"386 10 QCURVE",
"398 21 OFFCURVE",
"410 32 QCURVE SMOOTH",
"422 47 OFFCURVE",
"431 64 QCURVE SMOOTH",
"438 79 OFFCURVE",
"438 96 QCURVE",
"440 104 OFFCURVE",
"444 111 QCURVE",
"446 119 OFFCURVE",
"447 128 QCURVE SMOOTH",
"448 138 OFFCURVE",
"448 148 QCURVE SMOOTH",
"448 172 LINE SMOOTH",
"446 204 OFFCURVE",
"443 273 OFFCURVE",
"421 296 QCURVE",
"423 313 OFFCURVE",
"410 325 QCURVE SMOOTH",
"398 337 OFFCURVE",
"389 352 QCURVE",
"375 361 OFFCURVE",
"369 377 QCURVE",
"373 392 OFFCURVE",
"389 396 QCURVE",
"440 447 OFFCURVE",
"445 524 QCURVE",
"459 574 OFFCURVE",
"451 627 QCURVE SMOOTH",
"445 675 OFFCURVE",
"410 704 QCURVE",
"388 712 OFFCURVE",
"364 718 QCURVE",
"342 728 OFFCURVE",
"320 738 QCURVE SMOOTH",
"296 749 OFFCURVE",
"271 753 QCURVE SMOOTH",
"247 755 OFFCURVE",
"225 751 QCURVE",
"178 752 OFFCURVE",
"139 729 QCURVE SMOOTH",
"99 704 OFFCURVE",
"84 659 QCURVE SMOOTH",
"76 638 OFFCURVE",
"63 620 QCURVE",
"53 599 OFFCURVE",
"52 576 QCURVE",
"45 527 OFFCURVE",
"60 480 QCURVE SMOOTH",
"76 436 OFFCURVE",
"113 406 QCURVE",
"136 395 OFFCURVE",
"127 373 QCURVE",
"113 354 OFFCURVE",
"103 335 QCURVE",
"95 311 OFFCURVE",
"82 292 QCURVE SMOOTH",
"69 272 OFFCURVE",
"66 251 QCURVE",
"48 202 OFFCURVE",
"49 150 QCURVE SMOOTH",
"50 103 OFFCURVE",
"76 63 QCURVE SMOOTH",
"100 24 OFFCURVE",
"138 0 QCURVE SMOOTH",
"158 -12 OFFCURVE",
"182 -13 QCURVE",
"193 -15 OFFCURVE",
"204 -17 QCURVE SMOOTH",
"217 -19 OFFCURVE",
"229 -18 QCURVE",
"256 -20 OFFCURVE",
"283 -20 QCURVE",
"296 -16 OFFCURVE",
"303 -24 QCURVE",
"303 -24 LINE"
);
},
{
closed = 1;
nodes = (
"245 438 OFFCURVE",
"225 455 QCURVE",
"188 476 OFFCURVE",
"172 515 QCURVE",
"157 561 OFFCURVE",
"176 607 QCURVE",
"185 647 OFFCURVE",
"216 676 QCURVE SMOOTH",
"232 690 OFFCURVE",
"256 695 QCURVE",
"276 697 OFFCURVE",
"295 687 QCURVE SMOOTH",
"329 663 OFFCURVE",
"339 622 QCURVE",
"345 571 OFFCURVE",
"329 524 QCURVE SMOOTH",
"321 500 OFFCURVE",
"311 479 QCURVE",
"308 463 OFFCURVE",
"295 462 QCURVE",
"287 445 OFFCURVE",
"268 444 QCURVE",
"268 444 LINE"
);
},
{
closed = 1;
nodes = (
"246 41 OFFCURVE",
"228 58 QCURVE",
"208 68 OFFCURVE",
"192 83 QCURVE",
"178 101 OFFCURVE",
"172 121 QCURVE SMOOTH",
"155 166 OFFCURVE",
"172 212 QCURVE SMOOTH",
"182 236 OFFCURVE",
"191 262 QCURVE SMOOTH",
"198 283 OFFCURVE",
"212 302 QCURVE SMOOTH",
"226 321 OFFCURVE",
"243 337 QCURVE SMOOTH",
"255 349 OFFCURVE",
"271 343 QCURVE",
"296 326 OFFCURVE",
"308 297 QCURVE",
"320 276 OFFCURVE",
"327 255 QCURVE",
"332 230 OFFCURVE",
"332 205 QCURVE",
"335 178 OFFCURVE",
"334 150 QCURVE",
"330 126 OFFCURVE",
"320 104 QCURVE SMOOTH",
"312 81 OFFCURVE",
"295 63 QCURVE",
"285 48 OFFCURVE",
"270 44 QCURVE",
"270 44 LINE"
);
}
);
};
layerId = "AD4A0BE0-55E9-46BB-9454-B2DBE9D8584A";
name = "Nov 12 19, 21:56";
paths = (
{
closed = 1;
nodes = (
"208 46 OFFCURVE",
"162 108 OFFCURVE",
"162 167 CURVE SMOOTH",
"162 175 OFFCURVE",
"163 183 OFFCURVE",
"165 191 CURVE",
"173 229 OFFCURVE",
"217 345 OFFCURVE",
"261 345 CURVE SMOOTH",
"270 345 OFFCURVE",
"279 340 OFFCURVE",
"287 329 CURVE",
"317 295 OFFCURVE",
"333 239 OFFCURVE",
"334 185 CURVE SMOOTH",
"334 124 OFFCURVE",
"313 65 OFFCURVE",
"269 45 CURVE"
);
},
{
closed = 1;
nodes = (
"263 444 OFFCURVE",
"259 443 OFFCURVE",
"256 443 CURVE SMOOTH",
"239 443 OFFCURVE",
"224 456 OFFCURVE",
"209 466 CURVE",
"177 488 OFFCURVE",
"165 522 OFFCURVE",
"165 558 CURVE SMOOTH",
"165 628 OFFCURVE",
"216 703 OFFCURVE",
"269 696 CURVE",
"321 685 OFFCURVE",
"339 641 OFFCURVE",
"340 593 CURVE SMOOTH",
"340 523 OFFCURVE",
"301 444 OFFCURVE",
"267 445 CURVE"
);
},
{
closed = 1;
nodes = (
"322 -18 OFFCURVE",
"346 -22 OFFCURVE",
"366 -8 CURVE",
"364 -8 LINE",
"439 47 OFFCURVE",
"450 107 OFFCURVE",
"446 185 CURVE",
"442 314 OFFCURVE",
"425 267 OFFCURVE",
"420 304 CURVE",
"416 332 OFFCURVE",
"369 360 OFFCURVE",
"369 379 CURVE SMOOTH",
"369 383 OFFCURVE",
"371 386 OFFCURVE",
"374 389 CURVE",
"435 425 OFFCURVE",
"442 504 OFFCURVE",
"452 569 CURVE",
"456 621 OFFCURVE",
"445 693 OFFCURVE",
"397 709 CURVE",
"355 718 OFFCURVE",
"321 742 OFFCURVE",
"279 752 CURVE",
"266 753 OFFCURVE",
"254 754 OFFCURVE",
"242 754 CURVE SMOOTH",
"171 754 OFFCURVE",
"111 730 OFFCURVE",
"85 667 CURVE",
"61 621 OFFCURVE",
"48 584 OFFCURVE",
"48 546 CURVE SMOOTH",
"48 521 OFFCURVE",
"53 496 OFFCURVE",
"64 468 CURVE",
"92 408 OFFCURVE",
"124 407 OFFCURVE",
"128 390 CURVE",
"132 374 OFFCURVE",
"114 361 OFFCURVE",
"108 347 CURVE",
"98 331 OFFCURVE",
"93 310 OFFCURVE",
"82 295 CURVE",
"61 255 OFFCURVE",
"48 207 OFFCURVE",
"48 161 CURVE SMOOTH",
"48 126 OFFCURVE",
"56 93 OFFCURVE",
"73 66 CURVE",
"118 -10 OFFCURVE",
"179 -17 OFFCURVE",
"229 -17 CURVE SMOOTH",
"242 -17 OFFCURVE",
"253 -17 OFFCURVE",
"264 -17 CURVE SMOOTH",
"280 -17 OFFCURVE",
"293 -18 OFFCURVE",
"302 -23 CURVE"
);
}
);
userData = {
assembly = "SVTCA[0]\011/* SetFreedomAndProjectionVectorToAxis */
IUP[0]\011/* InterpolateUntPts */
IUP[1]\011/* InterpolateUntPts */";
};
vertWidth = 1000;
width = 500;
}
);
note = uni0038;
unicode = 0038;
},
{
color = 5;
glyphname = nine;
lastChange = "2019-12-11 06:40:48 +0000";
layers = (
{
background = {
paths = (
{
closed = 0;
nodes = (
"418 509 LINE",
"351 514 LINE"
);
}
);
};
layerId = "47F7128E-F1A6-4572-9BDC-88462FF34A66";
paths = (
{
closed = 1;
nodes = (
"123 750 OFFCURVE",
"44 667 OFFCURVE",
"44 514 CURVE SMOOTH",
"44 351 OFFCURVE",
"94 245 OFFCURVE",
"229 245 CURVE SMOOTH",
"345 245 OFFCURVE",
"381 311 OFFCURVE",
"418 512 CURVE",
"351 512 LINE",
"318 354 OFFCURVE",
"262 78 OFFCURVE",
"253 35 CURVE SMOOTH",
"248 12 OFFCURVE",
"256 -12 OFFCURVE",
"275 -12 CURVE SMOOTH",
"294 -12 OFFCURVE",
"314 -12 OFFCURVE",
"329 -12 CURVE SMOOTH",
"344 -12 OFFCURVE",
"358 0 OFFCURVE",
"367 40 CURVE SMOOTH",
"376 80 OFFCURVE",
"452 557 OFFCURVE",
"457 594 CURVE SMOOTH",
"462 631 OFFCURVE",
"454 645 OFFCURVE",
"435 645 CURVE",
"420 683 OFFCURVE",
"345 750 OFFCURVE",
"243 750 CURVE"
);
},
{
closed = 1;
nodes = (
"284 683 OFFCURVE",
"332 650 OFFCURVE",
"332 557 CURVE SMOOTH",
"332 464 OFFCURVE",
"297 317 OFFCURVE",
"241 317 CURVE SMOOTH",
"185 317 OFFCURVE",
"153 412 OFFCURVE",
"153 498 CURVE SMOOTH",
"153 545 OFFCURVE",
"182 683 OFFCURVE",
"242 683 CURVE SMOOTH"
);
}
);
userData = {
assembly = "SVTCA[0]\011/* SetFreedomAndProjectionVectorToAxis */
IUP[0]\011/* InterpolateUntPts */
IUP[1]\011/* InterpolateUntPts */";
};
width = 500;
},
{
associatedMasterId = "47F7128E-F1A6-4572-9BDC-88462FF34A66";
background = {
paths = (
{
closed = 1;
nodes = (
"325 -15 OFFCURVE",
"342 -9 QCURVE",
"357 -1 OFFCURVE",
"362 18 QCURVE SMOOTH",
"373 54 OFFCURVE",
"379 92 QCURVE SMOOTH",
"390 172 OFFCURVE",
"404 252 QCURVE SMOOTH",
"413 293 OFFCURVE",
"422 334 QCURVE",
"427 372 OFFCURVE",
"436 410 QCURVE",
"438 450 OFFCURVE",
"441 490 QCURVE",
"447 527 OFFCURVE",
"455 564 QCURVE SMOOTH",
"461 588 OFFCURVE",
"452 610 QCURVE",
"438 623 OFFCURVE",
"430 640 QCURVE SMOOTH",
"410 683 OFFCURVE",
"371 707 QCURVE SMOOTH",
"354 720 OFFCURVE",
"336 732 QCURVE",
"316 742 OFFCURVE",
"296 743 QCURVE SMOOTH",
"283 743 OFFCURVE",
"271 743 QCURVE SMOOTH",
"263 744 OFFCURVE",
"255 746 QCURVE",
"233 741 OFFCURVE",
"215 745 QCURVE SMOOTH",
"203 747 OFFCURVE",
"191 744 QCURVE",
"179 744 OFFCURVE",
"168 742 QCURVE SMOOTH",
"145 736 OFFCURVE",
"128 722 QCURVE SMOOTH",
"93 690 OFFCURVE",
"76 646 QCURVE",
"36 553 OFFCURVE",
"44 453 QCURVE SMOOTH",
"49 408 OFFCURVE",
"76 374 QCURVE",
"88 354 OFFCURVE",
"106 342 QCURVE SMOOTH",
"126 330 OFFCURVE",
"145 319 QCURVE",
"164 305 OFFCURVE",
"188 302 QCURVE SMOOTH",
"210 301 OFFCURVE",
"233 302 QCURVE",
"258 300 OFFCURVE",
"282 302 QCURVE SMOOTH",
"304 303 OFFCURVE",
"299 282 QCURVE SMOOTH",
"281 181 OFFCURVE",
"265 80 QCURVE",
"249 47 OFFCURVE",
"247 13 QCURVE",
"266 -21 OFFCURVE",
"308 -18 QCURVE",
"308 -18 LINE"
);
},
{
closed = 1;
nodes = (
"222 377 OFFCURVE",
"195 405 QCURVE",
"178 415 OFFCURVE",
"168 433 QCURVE SMOOTH",
"157 451 OFFCURVE",
"153 474 QCURVE",
"149 526 OFFCURVE",
"167 577 QCURVE",
"175 623 OFFCURVE",
"202 661 QCURVE SMOOTH",
"228 699 OFFCURVE",
"267 685 QCURVE",
"287 671 OFFCURVE",
"304 653 QCURVE",
"316 637 OFFCURVE",
"325 616 QCURVE SMOOTH",
"335 594 OFFCURVE",
"338 568 QCURVE",
"335 546 OFFCURVE",
"329 524 QCURVE",
"326 476 OFFCURVE",
"305 433 QCURVE SMOOTH",
"302 428 OFFCURVE",
"298 423 QCURVE",
"296 418 OFFCURVE",
"296 413 QCURVE",
"294 409 OFFCURVE",
"291 408 QCURVE SMOOTH",
"287 406 OFFCURVE",
"286 402 QCURVE",
"272 384 OFFCURVE",
"257 371 QCURVE",
"257 371 LINE"
);
}
);
};
layerId = "B095D5B2-FE6F-4CDF-B5B0-95F8B9BFD009";
name = "Nov 12 19, 22:00";
paths = (
{
closed = 1;
nodes = (
"179 392 OFFCURVE",
"151 442 OFFCURVE",
"151 498 CURVE SMOOTH",
"151 514 OFFCURVE",
"154 531 OFFCURVE",
"157 548 CURVE",
"170 598 OFFCURVE",
"186 665 OFFCURVE",
"230 685 CURVE",
"235 687 OFFCURVE",
"240 688 OFFCURVE",
"245 688 CURVE SMOOTH",
"272 688 OFFCURVE",
"296 661 OFFCURVE",
"310 641 CURVE",
"330 609 OFFCURVE",
"336 586 OFFCURVE",
"336 567 CURVE SMOOTH",
"336 551 OFFCURVE",
"332 538 OFFCURVE",
"328 523 CURVE",
"324 465 OFFCURVE",
"300 408 OFFCURVE",
"256 370 CURVE"
);
},
{
closed = 1;
nodes = (
"378 -17 OFFCURVE",
"370 70 OFFCURVE",
"382 121 CURVE",
"392 198 OFFCURVE",
"408 271 OFFCURVE",
"423 346 CURVE",
"441 438 OFFCURVE",
"434 449 OFFCURVE",
"441 499 CURVE",
"444 528 OFFCURVE",
"456 555 OFFCURVE",
"456 582 CURVE SMOOTH",
"456 587 OFFCURVE",
"456 592 OFFCURVE",
"454 597 CURVE",
"411 682 OFFCURVE",
"376 709 OFFCURVE",
"323 736 CURVE",
"295 743 OFFCURVE",
"264 745 OFFCURVE",
"236 744 CURVE SMOOTH",
"207 744 OFFCURVE",
"181 742 OFFCURVE",
"164 740 CURVE",
"79 717 OFFCURVE",
"41 578 OFFCURVE",
"42 483 CURVE SMOOTH",
"42 458 OFFCURVE",
"44 437 OFFCURVE",
"49 422 CURVE",
"76 344 OFFCURVE",
"124 332 OFFCURVE",
"158 310 CURVE",
"176 302 OFFCURVE",
"194 300 OFFCURVE",
"214 299 CURVE SMOOTH",
"231 299 OFFCURVE",
"249 301 OFFCURVE",
"267 301 CURVE SMOOTH",
"275 301 OFFCURVE",
"283 301 OFFCURVE",
"291 300 CURVE",
"297 298 OFFCURVE",
"299 294 OFFCURVE",
"299 288 CURVE SMOOTH",
"299 284 OFFCURVE",
"298 280 OFFCURVE",
"296 275 CURVE",
"284 207 OFFCURVE",
"276 143 OFFCURVE",
"262 76 CURVE",
"252 55 OFFCURVE",
"247 37 OFFCURVE",
"247 22 CURVE SMOOTH",
"247 -4 OFFCURVE",
"265 -19 OFFCURVE",
"307 -19 CURVE"
);
}
);
userData = {
assembly = "SVTCA[0]\011/* SetFreedomAndProjectionVectorToAxis */
IUP[0]\011/* InterpolateUntPts */
IUP[1]\011/* InterpolateUntPts */";
};
vertWidth = 1000;
width = 500;
}
);
note = uni0039;
unicode = 0039;
},
{
color = 5;
glyphname = onesuperior;
lastChange = "2019-12-11 06:40:48 +0000";
layers = (
{
layerId = "47F7128E-F1A6-4572-9BDC-88462FF34A66";
paths = (
{
closed = 1;
nodes = (
"264 757 OFFCURVE",
"248 753 OFFCURVE",
"238 729 CURVE SMOOTH",
"228 705 OFFCURVE",
"185 600 OFFCURVE",
"179 584 CURVE SMOOTH",
"169 558 OFFCURVE",
"180 552 OFFCURVE",
"217 552 CURVE SMOOTH",
"228 552 OFFCURVE",
"234 539 OFFCURVE",
"234 521 CURVE SMOOTH",
"234 503 OFFCURVE",
"234 406 OFFCURVE",
"234 378 CURVE SMOOTH",
"234 350 OFFCURVE",
"246 335 OFFCURVE",
"260 335 CURVE SMOOTH",
"274 335 OFFCURVE",
"291 335 OFFCURVE",
"311 335 CURVE SMOOTH",
"331 335 OFFCURVE",
"339 343 OFFCURVE",
"339 380 CURVE SMOOTH",
"339 417 OFFCURVE",
"339 684 OFFCURVE",
"339 713 CURVE SMOOTH",
"339 748 OFFCURVE",
"320 757 OFFCURVE",
"289 757 CURVE"
);
}
);
width = 500;
}
);
leftMetricsKey = one;
rightMetricsKey = one;
unicode = 00B9;
},
{
color = 5;
glyphname = twosuperior;
lastChange = "2019-12-11 06:40:48 +0000";
layers = (
{
layerId = "47F7128E-F1A6-4572-9BDC-88462FF34A66";
paths = (
{
closed = 1;
nodes = (
"120 749 OFFCURVE",
"58 719 OFFCURVE",
"58 596 CURVE SMOOTH",
"58 565 OFFCURVE",
"74 553 OFFCURVE",
"96 553 CURVE SMOOTH",
"131 553 LINE SMOOTH",
"148 553 OFFCURVE",
"166 571 OFFCURVE",
"166 605 CURVE SMOOTH",
"166 679 OFFCURVE",
"209 693 OFFCURVE",
"269 693 CURVE SMOOTH",
"305 693 OFFCURVE",
"329 675 OFFCURVE",
"329 626 CURVE SMOOTH",
"329 495 OFFCURVE",
"170 521 OFFCURVE",
"71 391 CURVE SMOOTH",
"37 346 OFFCURVE",
"64 331 OFFCURVE",
"110 331 CURVE SMOOTH",
"156 331 OFFCURVE",
"348 335 OFFCURVE",
"392 335 CURVE SMOOTH",
"455 335 OFFCURVE",
"464 391 OFFCURVE",
"392 391 CURVE SMOOTH",
"173 391 LINE",
"191 374 LINE",
"280 479 OFFCURVE",
"455 490 OFFCURVE",
"455 627 CURVE SMOOTH",
"455 723 OFFCURVE",
"348 749 OFFCURVE",
"266 749 CURVE SMOOTH"
);
}
);
width = 500;
}
);
leftMetricsKey = two;
rightMetricsKey = two;
unicode = 00B2;
},
{
color = 5;
glyphname = threesuperior;
lastChange = "2019-12-11 06:40:48 +0000";
layers = (
{
layerId = "47F7128E-F1A6-4572-9BDC-88462FF34A66";
paths = (
{
closed = 1;
nodes = (
"62 752 OFFCURVE",
"56 689 OFFCURVE",
"56 634 CURVE SMOOTH",
"56 602 OFFCURVE",
"73 596 OFFCURVE",
"107 596 CURVE SMOOTH",
"153 596 OFFCURVE",
"170 614 OFFCURVE",
"170 657 CURVE SMOOTH",
"170 683 OFFCURVE",
"188 707 OFFCURVE",
"245 707 CURVE SMOOTH",
"297 707 OFFCURVE",
"322 683 OFFCURVE",
"322 646 CURVE SMOOTH",
"322 584 OFFCURVE",
"305 570 OFFCURVE",
"184 570 CURVE SMOOTH",
"155 570 OFFCURVE",
"165 524 OFFCURVE",
"184 524 CURVE SMOOTH",
"271 524 OFFCURVE",
"319 518 OFFCURVE",
"319 459 CURVE SMOOTH",
"319 394 OFFCURVE",
"301 375 OFFCURVE",
"231 375 CURVE SMOOTH",
"155 375 OFFCURVE",
"152 399 OFFCURVE",
"152 423 CURVE SMOOTH",
"152 474 OFFCURVE",
"124 486 OFFCURVE",
"96 486 CURVE SMOOTH",
"58 486 OFFCURVE",
"47 466 OFFCURVE",
"47 423 CURVE SMOOTH",
"47 361 OFFCURVE",
"105 323 OFFCURVE",
"228 323 CURVE SMOOTH",
"336 323 OFFCURVE",
"412 360 OFFCURVE",
"412 441 CURVE SMOOTH",
"412 508 OFFCURVE",
"393 529 OFFCURVE",
"352 569 CURVE",
"352 517 LINE",
"393 559 OFFCURVE",
"415 589 OFFCURVE",
"415 639 CURVE SMOOTH",
"415 739 OFFCURVE",
"337 752 OFFCURVE",
"243 752 CURVE"
);
}
);
width = 456;
}
);
leftMetricsKey = three;
rightMetricsKey = three;
unicode = 00B3;
},
{
color = 5;
glyphname = foursuperior;
lastChange = "2019-12-11 06:40:48 +0000";
layers = (
{
layerId = "47F7128E-F1A6-4572-9BDC-88462FF34A66";
paths = (
{
closed = 1;
nodes = (
"350 495 LINE SMOOTH",
"344 495 OFFCURVE",
"341 498 OFFCURVE",
"341 504 CURVE SMOOTH",
"341 714 LINE SMOOTH",
"341 735 OFFCURVE",
"328 760 OFFCURVE",
"307 760 CURVE SMOOTH",
"267 760 LINE SMOOTH",
"246 760 OFFCURVE",
"237 735 OFFCURVE",
"237 714 CURVE SMOOTH",
"237 504 LINE SMOOTH",
"237 499 OFFCURVE",
"234 495 OFFCURVE",
"229 495 CURVE SMOOTH",
"185 495 LINE SMOOTH",
"160 495 OFFCURVE",
"150 505 OFFCURVE",
"150 533 CURVE SMOOTH",
"150 566 OFFCURVE",
"161 668 OFFCURVE",
"161 691 CURVE SMOOTH",
"161 726 OFFCURVE",
"143 734 OFFCURVE",
"99 734 CURVE SMOOTH",
"64 734 OFFCURVE",
"51 713 OFFCURVE",
"51 670 CURVE SMOOTH",
"51 643 OFFCURVE",
"33 496 OFFCURVE",
"33 458 CURVE SMOOTH",
"33 432 OFFCURVE",
"51 424 OFFCURVE",
"99 424 CURVE SMOOTH",
"210 424 LINE SMOOTH",
"237 424 OFFCURVE",
"237 419 OFFCURVE",
"237 381 CURVE SMOOTH",
"237 345 LINE SMOOTH",
"237 324 OFFCURVE",
"252 311 OFFCURVE",
"273 311 CURVE SMOOTH",
"308 311 LINE SMOOTH",
"329 311 OFFCURVE",
"341 322 OFFCURVE",
"341 343 CURVE SMOOTH",
"341 415 LINE SMOOTH",
"341 420 OFFCURVE",
"345 424 OFFCURVE",
"350 424 CURVE SMOOTH",
"401 424 LINE SMOOTH",
"427 424 OFFCURVE",
"427 439 OFFCURVE",
"427 463 CURVE SMOOTH",
"427 487 OFFCURVE",
"415 495 OFFCURVE",
"392 495 CURVE SMOOTH"
);
}
);
width = 450;
}
);
leftMetricsKey = four;
rightMetricsKey = four;
unicode = 2074;
},
{
color = 5;
glyphname = fraction;
lastChange = "2019-12-11 06:40:48 +0000";
layers = (
{
layerId = "47F7128E-F1A6-4572-9BDC-88462FF34A66";
paths = (
{
closed = 1;
nodes = (
"578 727 OFFCURVE",
"548 698 OFFCURVE",
"536 685 CURVE",
"525 672 OFFCURVE",
"106 122 OFFCURVE",
"99 110 CURVE SMOOTH",
"92 98 OFFCURVE",
"96 62 OFFCURVE",
"113 62 CURVE SMOOTH",
"130 62 OFFCURVE",
"170 62 OFFCURVE",
"183 62 CURVE SMOOTH",
"194 62 OFFCURVE",
"215 87 OFFCURVE",
"225 100 CURVE SMOOTH",
"235 113 OFFCURVE",
"667 671 OFFCURVE",
"679 689 CURVE SMOOTH",
"687 701 OFFCURVE",
"683 727 OFFCURVE",
"666 727 CURVE SMOOTH",
"601 727 LINE"
);
}
);
width = 779;
}
);
unicode = 2044;
},
{
color = 5;
glyphname = period;
lastChange = "2019-12-11 06:40:48 +0000";
layers = (
{
layerId = "47F7128E-F1A6-4572-9BDC-88462FF34A66";
paths = (
{
closed = 1;
nodes = (
"99 34 LINE SMOOTH",
"99 15 OFFCURVE",
"114 0 OFFCURVE",
"133 0 CURVE SMOOTH",
"199 0 LINE SMOOTH",
"218 0 OFFCURVE",
"233 15 OFFCURVE",
"233 34 CURVE SMOOTH",
"233 80 LINE SMOOTH",
"233 99 OFFCURVE",
"218 114 OFFCURVE",
"199 114 CURVE SMOOTH",
"133 114 LINE SMOOTH",
"114 114 OFFCURVE",
"99 99 OFFCURVE",
"99 80 CURVE SMOOTH"
);
}
);
width = 500;
}
);
unicode = 002E;
},
{
color = 5;
glyphname = comma;
lastChange = "2019-12-11 06:40:48 +0000";
layers = (
{
components = (
{
name = period;
transform = "{1, 0, 0, 1, 5, 0}";
}
);
layerId = "47F7128E-F1A6-4572-9BDC-88462FF34A66";
paths = (
{
closed = 1;
nodes = (
"144 -33 LINE SMOOTH",
"140 -52 OFFCURVE",
"141 -63 OFFCURVE",
"176 -63 CURVE SMOOTH",
"187 -63 OFFCURVE",
"196 -59 OFFCURVE",
"202 -47 CURVE SMOOTH",
"234 19 LINE",
"160 46 LINE"
);
}
);
width = 500;
}
);
unicode = 002C;
},
{
color = 5;
glyphname = exclam;
lastChange = "2019-12-11 06:40:48 +0000";
layers = (
{
layerId = "47F7128E-F1A6-4572-9BDC-88462FF34A66";
paths = (
{
closed = 1;
nodes = (
"188 201 LINE SMOOTH",
"188 182 OFFCURVE",
"208 167 OFFCURVE",
"235 167 CURVE SMOOTH",
"263 167 LINE SMOOTH",
"290 167 OFFCURVE",
"311 182 OFFCURVE",
"311 201 CURVE SMOOTH",
"311 693 LINE SMOOTH",
"311 712 OFFCURVE",
"290 727 OFFCURVE",
"263 727 CURVE SMOOTH",
"235 727 LINE SMOOTH",
"208 727 OFFCURVE",
"188 712 OFFCURVE",
"188 693 CURVE SMOOTH"
);
},
{
closed = 1;
nodes = (
"179 29 LINE SMOOTH",
"179 4 OFFCURVE",
"206 -15 OFFCURVE",
"241 -15 CURVE SMOOTH",
"257 -15 LINE SMOOTH",
"292 -15 OFFCURVE",
"319 4 OFFCURVE",
"319 29 CURVE SMOOTH",
"319 77 LINE SMOOTH",
"319 102 OFFCURVE",
"292 121 OFFCURVE",
"257 121 CURVE SMOOTH",
"241 121 LINE SMOOTH",
"206 121 OFFCURVE",
"179 102 OFFCURVE",
"179 77 CURVE SMOOTH"
);
}
);
width = 500;
}
);
unicode = 0021;
},
{
color = 5;
glyphname = question;
lastChange = "2019-12-11 06:40:48 +0000";
layers = (
{
layerId = "47F7128E-F1A6-4572-9BDC-88462FF34A66";
paths = (
{
closed = 1;
nodes = (
"179 29 LINE SMOOTH",
"179 4 OFFCURVE",
"206 -15 OFFCURVE",
"241 -15 CURVE SMOOTH",
"257 -15 LINE SMOOTH",
"292 -15 OFFCURVE",
"319 4 OFFCURVE",
"319 29 CURVE SMOOTH",
"319 77 LINE SMOOTH",
"319 102 OFFCURVE",
"292 121 OFFCURVE",
"257 121 CURVE SMOOTH",
"241 121 LINE SMOOTH",
"206 121 OFFCURVE",
"179 102 OFFCURVE",
"179 77 CURVE SMOOTH"
);
},
{
closed = 1;
nodes = (
"128 715 OFFCURVE",
"23 663 OFFCURVE",
"23 498 CURVE SMOOTH",
"23 449 OFFCURVE",
"21 428 OFFCURVE",
"21 415 CURVE SMOOTH",
"21 402 OFFCURVE",
"29 389 OFFCURVE",
"43 389 CURVE SMOOTH",
"57 389 OFFCURVE",
"100 389 OFFCURVE",
"115 389 CURVE SMOOTH",
"130 389 OFFCURVE",
"146 404 OFFCURVE",
"146 480 CURVE SMOOTH",
"146 613 OFFCURVE",
"178 659 OFFCURVE",
"245 659 CURVE SMOOTH",
"312 659 OFFCURVE",
"350 632 OFFCURVE",
"350 528 CURVE SMOOTH",
"350 445 OFFCURVE",
"259 375 OFFCURVE",
"219 346 CURVE SMOOTH",
"198 331 OFFCURVE",
"180 290 OFFCURVE",
"180 275 CURVE SMOOTH",
"180 260 OFFCURVE",
"180 232 OFFCURVE",
"180 219 CURVE SMOOTH",
"180 206 OFFCURVE",
"193 191 OFFCURVE",
"207 191 CURVE SMOOTH",
"221 191 OFFCURVE",
"268 191 OFFCURVE",
"281 191 CURVE SMOOTH",
"299 191 OFFCURVE",
"320 191 OFFCURVE",
"320 217 CURVE SMOOTH",
"320 250 OFFCURVE",
"325 294 OFFCURVE",
"386 338 CURVE SMOOTH",
"408 354 OFFCURVE",
"469 428 OFFCURVE",
"469 536 CURVE SMOOTH",
"469 676 OFFCURVE",
"374 715 OFFCURVE",
"258 715 CURVE"
);
}
);
width = 500;
}
);
unicode = 003F;
},
{
color = 5;
glyphname = bullet;
lastChange = "2019-12-11 06:40:48 +0000";
layers = (
{
layerId = "47F7128E-F1A6-4572-9BDC-88462FF34A66";
paths = (
{
closed = 1;
nodes = (
"126 240 LINE SMOOTH",
"126 219 OFFCURVE",
"138 207 OFFCURVE",
"159 207 CURVE SMOOTH",
"341 207 LINE SMOOTH",
"362 207 OFFCURVE",
"374 219 OFFCURVE",
"374 240 CURVE SMOOTH",
"374 422 LINE SMOOTH",
"374 443 OFFCURVE",
"362 455 OFFCURVE",
"341 455 CURVE SMOOTH",
"159 455 LINE SMOOTH",
"138 455 OFFCURVE",
"126 443 OFFCURVE",
"126 422 CURVE SMOOTH"
);
}
);
width = 500;
}
);
unicode = 2022;
},
{
color = 5;
glyphname = asterisk;
lastChange = "2019-12-11 06:40:48 +0000";
layers = (
{
layerId = "47F7128E-F1A6-4572-9BDC-88462FF34A66";
paths = (
{
closed = 1;
nodes = (
"209 355 LINE SMOOTH",
"209 342 OFFCURVE",
"217 334 OFFCURVE",
"230 334 CURVE SMOOTH",
"271 334 LINE SMOOTH",
"284 334 OFFCURVE",
"292 342 OFFCURVE",
"292 355 CURVE SMOOTH",
"292 699 LINE SMOOTH",
"292 712 OFFCURVE",
"284 720 OFFCURVE",
"271 720 CURVE SMOOTH",
"230 720 LINE SMOOTH",
"217 720 OFFCURVE",
"209 712 OFFCURVE",
"209 699 CURVE SMOOTH"
);
},
{
closed = 1;
nodes = (
"351 365 LINE SMOOTH",
"358 357 OFFCURVE",
"367 354 OFFCURVE",
"377 354 CURVE SMOOTH",
"430 354 LINE SMOOTH",
"448 354 OFFCURVE",
"453 367 OFFCURVE",
"441 380 CURVE SMOOTH",
"150 689 LINE SMOOTH",
"143 697 OFFCURVE",
"134 700 OFFCURVE",
"124 700 CURVE SMOOTH",
"71 700 LINE SMOOTH",
"53 700 OFFCURVE",
"48 687 OFFCURVE",
"60 674 CURVE SMOOTH"
);
},
{
closed = 1;
nodes = (
"60 380 LINE SMOOTH",
"48 367 OFFCURVE",
"53 354 OFFCURVE",
"71 354 CURVE SMOOTH",
"124 354 LINE SMOOTH",
"134 354 OFFCURVE",
"143 357 OFFCURVE",
"150 365 CURVE SMOOTH",
"441 674 LINE SMOOTH",
"453 687 OFFCURVE",
"448 700 OFFCURVE",
"430 700 CURVE SMOOTH",
"377 700 LINE SMOOTH",
"367 700 OFFCURVE",
"358 697 OFFCURVE",
"351 689 CURVE SMOOTH"
);
}
);
width = 500;
},
{
associatedMasterId = "47F7128E-F1A6-4572-9BDC-88462FF34A66";
layerId = "17E67BB3-0111-4483-BD60-68020C8F0DAE";
name = "Dec 11 19, 13:09";
paths = (
{
closed = 1;
nodes = (
"95 677 LINE SMOOTH",
"70 677 OFFCURVE",
"55 672 OFFCURVE",
"76 648 CURVE SMOOTH",
"97 624 OFFCURVE",
"325 395 OFFCURVE",
"339 382 CURVE SMOOTH",
"353 369 OFFCURVE",
"354 369 OFFCURVE",
"377 369 CURVE SMOOTH",
"400 369 OFFCURVE",
"399 371 OFFCURVE",
"414 370 CURVE SMOOTH",
"429 369 OFFCURVE",
"445 375 OFFCURVE",
"420 400 CURVE SMOOTH",
"395 425 OFFCURVE",
"192 630 OFFCURVE",
"176 647 CURVE SMOOTH",
"160 664 OFFCURVE",
"142 677 OFFCURVE",
"131 677 CURVE SMOOTH"
);
},
{
closed = 1;
nodes = (
"366 674 OFFCURVE",
"356 679 OFFCURVE",
"341 657 CURVE SMOOTH",
"326 635 OFFCURVE",
"102 406 OFFCURVE",
"82 380 CURVE SMOOTH",
"62 354 OFFCURVE",
"66 351 OFFCURVE",
"78 351 CURVE SMOOTH",
"90 351 OFFCURVE",
"113 353 OFFCURVE",
"135 353 CURVE SMOOTH",
"157 353 OFFCURVE",
"154 362 OFFCURVE",
"169 377 CURVE SMOOTH",
"184 392 OFFCURVE",
"415 626 OFFCURVE",
"429 643 CURVE SMOOTH",
"443 660 OFFCURVE",
"446 674 OFFCURVE",
"428 674 CURVE SMOOTH",
"410 674 OFFCURVE",
"392 674 OFFCURVE",
"379 674 CURVE SMOOTH"
);
},
{
closed = 1;
nodes = (
"221 720 OFFCURVE",
"215 712 OFFCURVE",
"211 694 CURVE SMOOTH",
"215 670 OFFCURVE",
"206 365 OFFCURVE",
"211 351 CURVE SMOOTH",
"206 337 OFFCURVE",
"209 333 OFFCURVE",
"220 333 CURVE SMOOTH",
"231 333 OFFCURVE",
"262 333 OFFCURVE",
"271 333 CURVE SMOOTH",
"280 333 OFFCURVE",
"292 343 OFFCURVE",
"292 361 CURVE SMOOTH",
"292 379 OFFCURVE",
"301 666 OFFCURVE",
"301 687 CURVE SMOOTH",
"301 708 OFFCURVE",
"291 720 OFFCURVE",
"279 720 CURVE SMOOTH",
"267 720 OFFCURVE",
"246 720 OFFCURVE",
"234 720 CURVE"
);
}
);
width = 500;
}
);
unicode = 002A;
},
{
color = 5;
glyphname = numbersign;
lastChange = "2019-12-11 06:40:48 +0000";
layers = (
{
layerId = "47F7128E-F1A6-4572-9BDC-88462FF34A66";
paths = (
{
closed = 1;
nodes = (
"240 752 LINE SMOOTH",
"223 752 OFFCURVE",
"211 736 OFFCURVE",
"209 715 CURVE SMOOTH",
"207 694 OFFCURVE",
"43 71 OFFCURVE",
"35 58 CURVE SMOOTH",
"27 45 OFFCURVE",
"33 27 OFFCURVE",
"53 27 CURVE SMOOTH",
"107 27 LINE SMOOTH",
"121 27 OFFCURVE",
"132 46 OFFCURVE",
"137 68 CURVE SMOOTH",
"142 90 OFFCURVE",
"305 694 OFFCURVE",
"315 719 CURVE SMOOTH",
"325 744 OFFCURVE",
"320 752 OFFCURVE",
"299 752 CURVE SMOOTH"
);
},
{
closed = 1;
nodes = (
"395 752 LINE SMOOTH",
"378 752 OFFCURVE",
"366 736 OFFCURVE",
"364 715 CURVE SMOOTH",
"362 694 OFFCURVE",
"198 71 OFFCURVE",
"191 58 CURVE SMOOTH",
"184 45 OFFCURVE",
"188 27 OFFCURVE",
"209 27 CURVE SMOOTH",
"262 27 LINE SMOOTH",
"277 27 OFFCURVE",
"287 46 OFFCURVE",
"292 68 CURVE SMOOTH",
"297 90 OFFCURVE",
"461 694 OFFCURVE",
"470 719 CURVE SMOOTH",
"479 744 OFFCURVE",
"475 752 OFFCURVE",
"455 752 CURVE SMOOTH"
);
},
{
closed = 1;
nodes = (
"120 562 OFFCURVE",
"135 554 OFFCURVE",
"154 554 CURVE SMOOTH",
"423 554 LINE SMOOTH",
"442 554 OFFCURVE",
"457 562 OFFCURVE",
"457 573 CURVE SMOOTH",
"457 584 OFFCURVE",
"442 592 OFFCURVE",
"423 592 CURVE SMOOTH",
"154 592 LINE SMOOTH",
"135 592 OFFCURVE",
"120 584 OFFCURVE",
"120 573 CURVE SMOOTH"
);
},
{
closed = 1;
nodes = (
"47 212 OFFCURVE",
"62 204 OFFCURVE",
"81 204 CURVE SMOOTH",
"350 204 LINE SMOOTH",
"369 204 OFFCURVE",
"384 212 OFFCURVE",
"384 223 CURVE SMOOTH",
"384 234 OFFCURVE",
"369 242 OFFCURVE",
"350 242 CURVE SMOOTH",
"81 242 LINE SMOOTH",
"62 242 OFFCURVE",
"47 234 OFFCURVE",
"47 223 CURVE SMOOTH"
);
}
);
width = 500;
}
);
unicode = 0023;
},
{
color = 5;
glyphname = slash;
lastChange = "2019-12-11 06:40:48 +0000";
layers = (
{
layerId = "47F7128E-F1A6-4572-9BDC-88462FF34A66";
paths = (
{
closed = 1;
nodes = (
"357 752 LINE SMOOTH",
"340 752 OFFCURVE",
"326 735 OFFCURVE",
"322 714 CURVE SMOOTH",
"319 692 OFFCURVE",
"100 46 OFFCURVE",
"92 32 CURVE SMOOTH",
"84 19 OFFCURVE",
"86 0 OFFCURVE",
"107 0 CURVE SMOOTH",
"160 0 LINE SMOOTH",
"175 0 OFFCURVE",
"187 20 OFFCURVE",
"194 43 CURVE SMOOTH",
"201 65 OFFCURVE",
"418 692 OFFCURVE",
"429 718 CURVE SMOOTH",
"440 744 OFFCURVE",
"437 752 OFFCURVE",
"417 752 CURVE SMOOTH"
);
}
);
width = 500;
}
);
unicode = 002F;
},
{
color = 5;
glyphname = parenleft;
lastChange = "2019-12-11 06:40:48 +0000";
layers = (
{
layerId = "47F7128E-F1A6-4572-9BDC-88462FF34A66";
paths = (
{
closed = 1;
nodes = (
"357 97 OFFCURVE",
"318 248 OFFCURVE",
"318 376 CURVE SMOOTH",
"318 491 OFFCURVE",
"366 646 OFFCURVE",
"424 742 CURVE SMOOTH",
"438 765 OFFCURVE",
"430 781 OFFCURVE",
"403 781 CURVE SMOOTH",
"364 781 LINE SMOOTH",
"347 781 OFFCURVE",
"334 776 OFFCURVE",
"323 761 CURVE SMOOTH",
"234 640 OFFCURVE",
"208 505 OFFCURVE",
"208 376 CURVE SMOOTH",
"208 226 OFFCURVE",
"220 101 OFFCURVE",
"307 -10 CURVE SMOOTH",
"318 -24 OFFCURVE",
"330 -30 OFFCURVE",
"347 -30 CURVE SMOOTH",
"388 -30 LINE SMOOTH",
"414 -30 OFFCURVE",
"422 -14 OFFCURVE",
"409 8 CURVE SMOOTH"
);
}
);
width = 500;
}
);
unicode = 0028;
},
{
color = 5;
glyphname = braceleft;
lastChange = "2019-12-11 06:40:48 +0000";
layers = (
{
layerId = "47F7128E-F1A6-4572-9BDC-88462FF34A66";
paths = (
{
closed = 1;
nodes = (
"326 -23 OFFCURVE",
"318 50 OFFCURVE",
"318 131 CURVE SMOOTH",
"318 287 OFFCURVE",
"310 305 OFFCURVE",
"300 312 CURVE SMOOTH",
"253 345 OFFCURVE",
"254 352 OFFCURVE",
"300 384 CURVE SMOOTH",
"310 391 OFFCURVE",
"318 409 OFFCURVE",
"318 565 CURVE SMOOTH",
"318 646 OFFCURVE",
"325 719 OFFCURVE",
"364 719 CURVE SMOOTH",
"392 719 OFFCURVE",
"437 723 OFFCURVE",
"437 757 CURVE SMOOTH",
"437 772 OFFCURVE",
"380 774 OFFCURVE",
"344 774 CURVE SMOOTH",
"309 774 OFFCURVE",
"210 761 OFFCURVE",
"210 567 CURVE SMOOTH",
"210 438 OFFCURVE",
"198 391 OFFCURVE",
"169 380 CURVE SMOOTH",
"112 358 OFFCURVE",
"112 341 OFFCURVE",
"169 316 CURVE SMOOTH",
"196 304 OFFCURVE",
"210 258 OFFCURVE",
"210 129 CURVE SMOOTH",
"210 -65 OFFCURVE",
"309 -78 OFFCURVE",
"344 -78 CURVE SMOOTH",
"380 -78 OFFCURVE",
"437 -76 OFFCURVE",
"437 -60 CURVE SMOOTH",
"437 -27 OFFCURVE",
"408 -23 OFFCURVE",
"364 -23 CURVE SMOOTH"
);
}
);
width = 500;
}
);
unicode = 007B;
},
{
color = 5;
glyphname = bracketleft;
lastChange = "2019-12-11 06:40:48 +0000";
layers = (
{
layerId = "47F7128E-F1A6-4572-9BDC-88462FF34A66";
paths = (
{
closed = 1;
nodes = (
"382 -36 LINE SMOOTH",
"361 -36 OFFCURVE",
"349 -24 OFFCURVE",
"349 -3 CURVE SMOOTH",
"349 709 LINE SMOOTH",
"349 730 OFFCURVE",
"361 742 OFFCURVE",
"382 742 CURVE SMOOTH",
"401 742 LINE SMOOTH",
"422 742 OFFCURVE",
"434 753 OFFCURVE",
"434 771 CURVE SMOOTH",
"434 789 OFFCURVE",
"422 800 OFFCURVE",
"401 800 CURVE SMOOTH",
"256 800 LINE SMOOTH",
"235 800 OFFCURVE",
"223 788 OFFCURVE",
"223 767 CURVE SMOOTH",
"223 -61 LINE SMOOTH",
"223 -82 OFFCURVE",
"235 -94 OFFCURVE",
"256 -94 CURVE SMOOTH",
"401 -94 LINE SMOOTH",
"422 -94 OFFCURVE",
"434 -83 OFFCURVE",
"434 -65 CURVE SMOOTH",
"434 -47 OFFCURVE",
"422 -36 OFFCURVE",
"401 -36 CURVE SMOOTH"
);
}
);
width = 500;
}
);
unicode = 005B;
},
{
color = 5;
glyphname = hyphen;
lastChange = "2019-12-11 06:40:48 +0000";
layers = (
{
layerId = "47F7128E-F1A6-4572-9BDC-88462FF34A66";
paths = (
{
closed = 1;
nodes = (
"64 338 OFFCURVE",
"79 328 OFFCURVE",
"98 328 CURVE SMOOTH",
"402 328 LINE SMOOTH",
"421 328 OFFCURVE",
"436 339 OFFCURVE",
"436 353 CURVE SMOOTH",
"436 367 OFFCURVE",
"421 379 OFFCURVE",
"402 379 CURVE SMOOTH",
"98 379 LINE SMOOTH",
"79 379 OFFCURVE",
"64 367 OFFCURVE",
"64 353 CURVE SMOOTH"
);
}
);
width = 500;
}
);
unicode = 002D;
},
{
color = 5;
glyphname = endash;
lastChange = "2019-12-11 06:40:48 +0000";
layers = (
{
layerId = "47F7128E-F1A6-4572-9BDC-88462FF34A66";
paths = (
{
closed = 1;
nodes = (
"0 328 LINE SMOOTH",
"0 316 OFFCURVE",
"9 307 OFFCURVE",
"21 307 CURVE SMOOTH",
"403 307 LINE SMOOTH",
"415 307 OFFCURVE",
"424 316 OFFCURVE",
"424 328 CURVE SMOOTH",
"424 356 LINE SMOOTH",
"424 368 OFFCURVE",
"415 377 OFFCURVE",
"403 377 CURVE SMOOTH",
"21 377 LINE SMOOTH",
"9 377 OFFCURVE",
"0 368 OFFCURVE",
"0 356 CURVE SMOOTH"
);
}
);
width = 424;
}
);
unicode = 2013;
},
{
color = 5;
glyphname = emdash;
lastChange = "2019-12-11 06:40:48 +0000";
layers = (
{
layerId = "47F7128E-F1A6-4572-9BDC-88462FF34A66";
paths = (
{
closed = 1;
nodes = (
"0 328 LINE SMOOTH",
"0 315 OFFCURVE",
"8 307 OFFCURVE",
"21 307 CURVE SMOOTH",
"513 307 LINE SMOOTH",
"526 307 OFFCURVE",
"534 315 OFFCURVE",
"534 328 CURVE SMOOTH",
"534 356 LINE SMOOTH",
"534 369 OFFCURVE",
"526 377 OFFCURVE",
"513 377 CURVE SMOOTH",
"21 377 LINE SMOOTH",
"8 377 OFFCURVE",
"0 369 OFFCURVE",
"0 356 CURVE SMOOTH"
);
}
);
width = 534;
}
);
unicode = 2014;
},
{
color = 5;
glyphname = underscore;
lastChange = "2019-12-11 06:40:48 +0000";
layers = (
{
layerId = "47F7128E-F1A6-4572-9BDC-88462FF34A66";
paths = (
{
closed = 1;
nodes = (
"24 -102 OFFCURVE",
"39 -112 OFFCURVE",
"58 -112 CURVE SMOOTH",
"442 -112 LINE SMOOTH",
"461 -112 OFFCURVE",
"476 -101 OFFCURVE",
"476 -87 CURVE SMOOTH",
"476 -73 OFFCURVE",
"461 -61 OFFCURVE",
"442 -61 CURVE SMOOTH",
"58 -61 LINE SMOOTH",
"39 -61 OFFCURVE",
"24 -73 OFFCURVE",
"24 -87 CURVE SMOOTH"
);
}
);
width = 500;
}
);
unicode = 005F;
},
{
color = 5;
glyphname = guilsinglleft;
lastChange = "2019-12-11 06:40:48 +0000";
layers = (
{
layerId = "47F7128E-F1A6-4572-9BDC-88462FF34A66";
paths = (
{
closed = 1;
nodes = (
"350 299 LINE SMOOTH",
"346 309 OFFCURVE",
"346 318 OFFCURVE",
"351 328 CURVE SMOOTH",
"431 472 LINE SMOOTH",
"439 486 OFFCURVE",
"432 497 OFFCURVE",
"416 497 CURVE SMOOTH",
"338 497 LINE SMOOTH",
"327 497 OFFCURVE",
"318 492 OFFCURVE",
"313 482 CURVE SMOOTH",
"227 328 LINE SMOOTH",
"222 318 OFFCURVE",
"222 309 OFFCURVE",
"226 299 CURVE SMOOTH",
"294 147 LINE SMOOTH",
"299 136 OFFCURVE",
"306 131 OFFCURVE",
"318 131 CURVE SMOOTH",
"398 131 LINE SMOOTH",
"414 131 OFFCURVE",
"420 142 OFFCURVE",
"414 156 CURVE SMOOTH"
);
}
);
width = 500;
}
);
unicode = 2039;
},
{
color = 5;
glyphname = cent;
lastChange = "2019-12-11 06:40:48 +0000";
layers = (
{
components = (
{
alignment = -1;
name = c;
transform = "{1, 0, 0, 1, 0, 82}";
}
);
layerId = "47F7128E-F1A6-4572-9BDC-88462FF34A66";
paths = (
{
closed = 1;
nodes = (
"299 744 LINE SMOOTH",
"299 765 OFFCURVE",
"287 777 OFFCURVE",
"266 777 CURVE SMOOTH",
"238 777 LINE SMOOTH",
"217 777 OFFCURVE",
"205 765 OFFCURVE",
"205 744 CURVE SMOOTH",
"205 -22 LINE SMOOTH",
"205 -43 OFFCURVE",
"217 -55 OFFCURVE",
"238 -55 CURVE SMOOTH",
"266 -55 LINE SMOOTH",
"287 -55 OFFCURVE",
"299 -43 OFFCURVE",
"299 -22 CURVE SMOOTH"
);
}
);
width = 500;
}
);
unicode = 00A2;
},
{
color = 5;
glyphname = currency;
lastChange = "2019-12-11 06:40:48 +0000";
layers = (
{
layerId = "47F7128E-F1A6-4572-9BDC-88462FF34A66";
paths = (
{
closed = 1;
nodes = (
"380 133 OFFCURVE",
"487 224 OFFCURVE",
"487 336 CURVE SMOOTH",
"487 448 OFFCURVE",
"380 539 OFFCURVE",
"250 539 CURVE SMOOTH",
"120 539 OFFCURVE",
"13 448 OFFCURVE",
"13 336 CURVE SMOOTH",
"13 224 OFFCURVE",
"120 133 OFFCURVE",
"250 133 CURVE SMOOTH"
);
},
{
closed = 1;
nodes = (
"189 191 OFFCURVE",
"139 255 OFFCURVE",
"139 336 CURVE SMOOTH",
"139 417 OFFCURVE",
"189 481 OFFCURVE",
"250 481 CURVE SMOOTH",
"311 481 OFFCURVE",
"361 417 OFFCURVE",
"361 336 CURVE SMOOTH",
"361 255 OFFCURVE",
"311 191 OFFCURVE",
"250 191 CURVE SMOOTH"
);
},
{
closed = 1;
nodes = (
"117 601 LINE SMOOTH",
"106 617 OFFCURVE",
"92 622 OFFCURVE",
"74 617 CURVE SMOOTH",
"34 605 LINE SMOOTH",
"11 598 OFFCURVE",
"6 580 OFFCURVE",
"19 561 CURVE SMOOTH",
"81 471 LINE SMOOTH",
"92 455 OFFCURVE",
"106 450 OFFCURVE",
"124 455 CURVE SMOOTH",
"164 467 LINE SMOOTH",
"187 474 OFFCURVE",
"192 492 OFFCURVE",
"179 511 CURVE SMOOTH"
);
},
{
closed = 1;
nodes = (
"192 180 OFFCURVE",
"187 198 OFFCURVE",
"164 205 CURVE SMOOTH",
"124 217 LINE SMOOTH",
"106 222 OFFCURVE",
"92 217 OFFCURVE",
"81 201 CURVE SMOOTH",
"19 111 LINE SMOOTH",
"6 92 OFFCURVE",
"11 74 OFFCURVE",
"34 67 CURVE SMOOTH",
"74 55 LINE SMOOTH",
"92 50 OFFCURVE",
"106 55 OFFCURVE",
"117 71 CURVE SMOOTH",
"179 161 LINE SMOOTH"
);
},
{
closed = 1;
nodes = (
"308 492 OFFCURVE",
"313 474 OFFCURVE",
"336 467 CURVE SMOOTH",
"376 455 LINE SMOOTH",
"394 450 OFFCURVE",
"408 455 OFFCURVE",
"419 471 CURVE SMOOTH",
"481 561 LINE SMOOTH",
"494 580 OFFCURVE",
"489 598 OFFCURVE",
"466 605 CURVE SMOOTH",
"426 617 LINE SMOOTH",
"408 622 OFFCURVE",
"394 617 OFFCURVE",
"383 601 CURVE SMOOTH",
"321 511 LINE SMOOTH"
);
},
{
closed = 1;
nodes = (
"383 71 LINE SMOOTH",
"394 55 OFFCURVE",
"408 50 OFFCURVE",
"426 55 CURVE SMOOTH",
"466 67 LINE SMOOTH",
"489 74 OFFCURVE",
"494 92 OFFCURVE",
"481 111 CURVE SMOOTH",
"419 201 LINE SMOOTH",
"408 217 OFFCURVE",
"394 222 OFFCURVE",
"376 217 CURVE SMOOTH",
"336 205 LINE SMOOTH",
"313 198 OFFCURVE",
"308 180 OFFCURVE",
"321 161 CURVE SMOOTH"
);
}
);
width = 500;
}
);
unicode = 00A4;
},
{
color = 5;
glyphname = dollar;
lastChange = "2019-12-11 06:40:48 +0000";
layers = (
{
components = (
{
name = S;
transform = "{1, 0, 0, 0.9302, 7, 29}";
}
);
layerId = "47F7128E-F1A6-4572-9BDC-88462FF34A66";
paths = (
{
closed = 1;
nodes = (
"299 744 LINE SMOOTH",
"299 765 OFFCURVE",
"287 777 OFFCURVE",
"266 777 CURVE SMOOTH",
"238 777 LINE SMOOTH",
"217 777 OFFCURVE",
"205 765 OFFCURVE",
"205 744 CURVE SMOOTH",
"205 -22 LINE SMOOTH",
"205 -43 OFFCURVE",
"217 -55 OFFCURVE",
"238 -55 CURVE SMOOTH",
"266 -55 LINE SMOOTH",
"287 -55 OFFCURVE",
"299 -43 OFFCURVE",
"299 -22 CURVE SMOOTH"
);
}
);
width = 500;
}
);
unicode = 0024;
},
{
color = 5;
glyphname = euro;
lastChange = "2019-12-11 06:40:48 +0000";
layers = (
{
layerId = "47F7128E-F1A6-4572-9BDC-88462FF34A66";
paths = (
{
closed = 1;
nodes = (
"37 413 OFFCURVE",
"52 401 OFFCURVE",
"71 401 CURVE SMOOTH",
"433 401 LINE SMOOTH",
"452 401 OFFCURVE",
"467 414 OFFCURVE",
"467 430 CURVE SMOOTH",
"467 446 OFFCURVE",
"452 458 OFFCURVE",
"433 458 CURVE SMOOTH",
"71 458 LINE SMOOTH",
"52 458 OFFCURVE",
"37 446 OFFCURVE",
"37 430 CURVE SMOOTH"
);
},
{
closed = 1;
nodes = (
"415 61 OFFCURVE",
"404 61 OFFCURVE",
"375 61 CURVE SMOOTH",
"252 61 OFFCURVE",
"215 244 OFFCURVE",
"215 334 CURVE SMOOTH",
"215 518 OFFCURVE",
"288 702 OFFCURVE",
"362 702 CURVE SMOOTH",
"395 702 OFFCURVE",
"412 701 OFFCURVE",
"425 697 CURVE SMOOTH",
"440 692 OFFCURVE",
"453 691 OFFCURVE",
"465 703 CURVE SMOOTH",
"474 712 LINE SMOOTH",
"490 727 OFFCURVE",
"484 746 OFFCURVE",
"461 751 CURVE SMOOTH",
"434 756 OFFCURVE",
"400 760 OFFCURVE",
"362 760 CURVE SMOOTH",
"206 760 OFFCURVE",
"103 578 OFFCURVE",
"103 334 CURVE SMOOTH",
"103 245 OFFCURVE",
"152 3 OFFCURVE",
"375 3 CURVE SMOOTH",
"410 3 OFFCURVE",
"440 6 OFFCURVE",
"463 11 CURVE SMOOTH",
"486 16 OFFCURVE",
"487 39 OFFCURVE",
"469 55 CURVE SMOOTH",
"464 59 LINE SMOOTH",
"451 71 OFFCURVE",
"440 69 OFFCURVE",
"424 64 CURVE SMOOTH"
);
},
{
closed = 1;
nodes = (
"37 282 OFFCURVE",
"52 270 OFFCURVE",
"71 270 CURVE SMOOTH",
"433 270 LINE SMOOTH",
"452 270 OFFCURVE",
"467 283 OFFCURVE",
"467 299 CURVE SMOOTH",
"467 315 OFFCURVE",
"452 327 OFFCURVE",
"433 327 CURVE SMOOTH",
"71 327 LINE SMOOTH",
"52 327 OFFCURVE",
"37 315 OFFCURVE",
"37 299 CURVE SMOOTH"
);
}
);
width = 500;
}
);
unicode = 20AC;
},
{
color = 5;
glyphname = sterling;
lastChange = "2019-12-11 06:40:48 +0000";
layers = (
{
layerId = "47F7128E-F1A6-4572-9BDC-88462FF34A66";
paths = (
{
closed = 1;
nodes = (
"17 12 OFFCURVE",
"32 0 OFFCURVE",
"51 0 CURVE SMOOTH",
"443 0 LINE SMOOTH",
"462 0 OFFCURVE",
"477 12 OFFCURVE",
"477 27 CURVE SMOOTH",
"477 41 OFFCURVE",
"462 53 OFFCURVE",
"443 53 CURVE SMOOTH",
"51 53 LINE SMOOTH",
"32 53 OFFCURVE",
"17 41 OFFCURVE",
"17 27 CURVE SMOOTH"
);
},
{
closed = 1;
nodes = (
"37 353 OFFCURVE",
"52 341 OFFCURVE",
"71 341 CURVE SMOOTH",
"433 341 LINE SMOOTH",
"452 341 OFFCURVE",
"467 354 OFFCURVE",
"467 370 CURVE SMOOTH",
"467 386 OFFCURVE",
"452 398 OFFCURVE",
"433 398 CURVE SMOOTH",
"71 398 LINE SMOOTH",
"52 398 OFFCURVE",
"37 386 OFFCURVE",
"37 370 CURVE SMOOTH"
);
},
{
closed = 1;
nodes = (
"234 740 OFFCURVE",
"223 648 OFFCURVE",
"223 578 CURVE SMOOTH",
"223 507 OFFCURVE",
"169 156 OFFCURVE",
"68 31 CURVE",
"181 31 LINE",
"277 156 OFFCURVE",
"327 510 OFFCURVE",
"327 620 CURVE SMOOTH",
"327 669 OFFCURVE",
"338 684 OFFCURVE",
"356 684 CURVE SMOOTH",
"366 684 OFFCURVE",
"375 669 OFFCURVE",
"375 659 CURVE SMOOTH",
"375 650 OFFCURVE",
"381 616 OFFCURVE",
"396 616 CURVE SMOOTH",
"411 616 OFFCURVE",
"438 616 OFFCURVE",
"449 616 CURVE SMOOTH",
"461 616 OFFCURVE",
"483 628 OFFCURVE",
"483 658 CURVE SMOOTH",
"483 731 OFFCURVE",
"431 740 OFFCURVE",
"356 740 CURVE"
);
}
);
width = 500;
}
);
unicode = 00A3;
},
{
color = 5;
glyphname = yen;
lastChange = "2019-12-11 06:40:48 +0000";
layers = (
{
components = (
{
name = Y;
}
);
layerId = "47F7128E-F1A6-4572-9BDC-88462FF34A66";
paths = (
{
closed = 1;
nodes = (
"37 313 OFFCURVE",
"52 301 OFFCURVE",
"71 301 CURVE SMOOTH",
"433 301 LINE SMOOTH",
"452 301 OFFCURVE",
"467 314 OFFCURVE",
"467 330 CURVE SMOOTH",
"467 346 OFFCURVE",
"452 358 OFFCURVE",
"433 358 CURVE SMOOTH",
"71 358 LINE SMOOTH",
"52 358 OFFCURVE",
"37 346 OFFCURVE",
"37 330 CURVE SMOOTH"
);
},
{
closed = 1;
nodes = (
"37 182 OFFCURVE",
"52 170 OFFCURVE",
"71 170 CURVE SMOOTH",
"433 170 LINE SMOOTH",
"452 170 OFFCURVE",
"467 183 OFFCURVE",
"467 199 CURVE SMOOTH",
"467 215 OFFCURVE",
"452 227 OFFCURVE",
"433 227 CURVE SMOOTH",
"71 227 LINE SMOOTH",
"52 227 OFFCURVE",
"37 215 OFFCURVE",
"37 199 CURVE SMOOTH"
);
}
);
width = 500;
}
);
unicode = 00A5;
},
{
color = 5;
glyphname = divisionslash;
lastChange = "2019-12-11 06:40:48 +0000";
layers = (
{
layerId = "47F7128E-F1A6-4572-9BDC-88462FF34A66";
paths = (
{
closed = 1;
nodes = (
"424 746 LINE SMOOTH",
"428 760 OFFCURVE",
"421 770 OFFCURVE",
"406 770 CURVE SMOOTH",
"345 770 LINE SMOOTH",
"333 770 OFFCURVE",
"326 764 OFFCURVE",
"322 752 CURVE SMOOTH",
"76 -81 LINE SMOOTH",
"72 -95 OFFCURVE",
"79 -105 OFFCURVE",
"94 -105 CURVE SMOOTH",
"155 -105 LINE SMOOTH",
"167 -105 OFFCURVE",
"174 -99 OFFCURVE",
"178 -87 CURVE SMOOTH"
);
}
);
width = 500;
}
);
unicode = 2215;
},
{
color = 5;
glyphname = plus;
lastChange = "2019-12-11 06:40:48 +0000";
layers = (
{
layerId = "47F7128E-F1A6-4572-9BDC-88462FF34A66";
paths = (
{
closed = 1;
nodes = (
"85 364 LINE SMOOTH",
"72 364 OFFCURVE",
"64 356 OFFCURVE",
"64 343 CURVE SMOOTH",
"64 327 LINE SMOOTH",
"64 314 OFFCURVE",
"72 306 OFFCURVE",
"85 306 CURVE SMOOTH",
"416 306 LINE SMOOTH",
"429 306 OFFCURVE",
"437 314 OFFCURVE",
"437 327 CURVE SMOOTH",
"437 343 LINE SMOOTH",
"437 356 OFFCURVE",
"429 364 OFFCURVE",
"416 364 CURVE SMOOTH"
);
},
{
closed = 1;
nodes = (
"298 543 LINE SMOOTH",
"298 556 OFFCURVE",
"292 564 OFFCURVE",
"282 564 CURVE SMOOTH",
"220 564 LINE SMOOTH",
"210 564 OFFCURVE",
"204 556 OFFCURVE",
"204 543 CURVE SMOOTH",
"204 117 LINE SMOOTH",
"204 104 OFFCURVE",
"210 96 OFFCURVE",
"220 96 CURVE SMOOTH",
"282 96 LINE SMOOTH",
"292 96 OFFCURVE",
"298 104 OFFCURVE",
"298 117 CURVE SMOOTH"
);
}
);
width = 500;
}
);
unicode = 002B;
},
{
color = 5;
glyphname = minus;
lastChange = "2019-12-11 06:40:48 +0000";
layers = (
{
layerId = "47F7128E-F1A6-4572-9BDC-88462FF34A66";
paths = (
{
closed = 1;
nodes = (
"65 364 LINE SMOOTH",
"52 364 OFFCURVE",
"44 356 OFFCURVE",
"44 343 CURVE SMOOTH",
"44 327 LINE SMOOTH",
"44 314 OFFCURVE",
"52 306 OFFCURVE",
"65 306 CURVE SMOOTH",
"416 306 LINE SMOOTH",
"429 306 OFFCURVE",
"437 314 OFFCURVE",
"437 327 CURVE SMOOTH",
"437 343 LINE SMOOTH",
"437 356 OFFCURVE",
"429 364 OFFCURVE",
"416 364 CURVE SMOOTH"
);
}
);
width = 500;
}
);
unicode = 2212;
},
{
color = 5;
glyphname = multiply;
lastChange = "2019-12-11 06:40:48 +0000";
layers = (
{
layerId = "47F7128E-F1A6-4572-9BDC-88462FF34A66";
paths = (
{
closed = 1;
nodes = (
"82 526 LINE SMOOTH",
"64 526 OFFCURVE",
"60 514 OFFCURVE",
"70 500 CURVE SMOOTH",
"341 126 LINE SMOOTH",
"347 118 OFFCURVE",
"356 114 OFFCURVE",
"367 114 CURVE SMOOTH",
"419 114 LINE SMOOTH",
"437 114 OFFCURVE",
"441 126 OFFCURVE",
"431 140 CURVE SMOOTH",
"160 514 LINE SMOOTH",
"154 522 OFFCURVE",
"145 526 OFFCURVE",
"134 526 CURVE SMOOTH"
);
},
{
closed = 1;
nodes = (
"355 526 OFFCURVE",
"346 522 OFFCURVE",
"340 514 CURVE SMOOTH",
"69 140 LINE SMOOTH",
"59 126 OFFCURVE",
"63 114 OFFCURVE",
"81 114 CURVE SMOOTH",
"133 114 LINE SMOOTH",
"144 114 OFFCURVE",
"153 118 OFFCURVE",
"159 126 CURVE SMOOTH",
"430 500 LINE SMOOTH",
"440 514 OFFCURVE",
"436 526 OFFCURVE",
"418 526 CURVE SMOOTH",
"366 526 LINE SMOOTH"
);
}
);
width = 500;
}
);
unicode = 00D7;
},
{
color = 5;
glyphname = divide;
lastChange = "2019-12-11 06:40:48 +0000";
layers = (
{
layerId = "47F7128E-F1A6-4572-9BDC-88462FF34A66";
paths = (
{
closed = 1;
nodes = (
"75 364 LINE SMOOTH",
"62 364 OFFCURVE",
"54 356 OFFCURVE",
"54 343 CURVE SMOOTH",
"54 327 LINE SMOOTH",
"54 314 OFFCURVE",
"62 306 OFFCURVE",
"75 306 CURVE SMOOTH",
"426 306 LINE SMOOTH",
"439 306 OFFCURVE",
"447 314 OFFCURVE",
"447 327 CURVE SMOOTH",
"447 343 LINE SMOOTH",
"447 356 OFFCURVE",
"439 364 OFFCURVE",
"426 364 CURVE SMOOTH"
);
},
{
closed = 1;
nodes = (
"196 458 LINE SMOOTH",
"196 445 OFFCURVE",
"204 437 OFFCURVE",
"217 437 CURVE SMOOTH",
"284 437 LINE SMOOTH",
"297 437 OFFCURVE",
"305 445 OFFCURVE",
"305 458 CURVE SMOOTH",
"305 525 LINE SMOOTH",
"305 538 OFFCURVE",
"297 546 OFFCURVE",
"284 546 CURVE SMOOTH",
"217 546 LINE SMOOTH",
"204 546 OFFCURVE",
"196 538 OFFCURVE",
"196 525 CURVE SMOOTH"
);
},
{
closed = 1;
nodes = (
"196 158 LINE SMOOTH",
"196 145 OFFCURVE",
"204 137 OFFCURVE",
"217 137 CURVE SMOOTH",
"284 137 LINE SMOOTH",
"297 137 OFFCURVE",
"305 145 OFFCURVE",
"305 158 CURVE SMOOTH",
"305 225 LINE SMOOTH",
"305 238 OFFCURVE",
"297 246 OFFCURVE",
"284 246 CURVE SMOOTH",
"217 246 LINE SMOOTH",
"204 246 OFFCURVE",
"196 238 OFFCURVE",
"196 225 CURVE SMOOTH"
);
}
);
width = 500;
}
);
unicode = 00F7;
},
{
color = 5;
glyphname = equal;
lastChange = "2019-12-11 06:40:48 +0000";
layers = (
{
layerId = "47F7128E-F1A6-4572-9BDC-88462FF34A66";
paths = (
{
closed = 1;
nodes = (
"64 398 OFFCURVE",
"79 388 OFFCURVE",
"98 388 CURVE SMOOTH",
"402 388 LINE SMOOTH",
"421 388 OFFCURVE",
"436 399 OFFCURVE",
"436 413 CURVE SMOOTH",
"436 427 OFFCURVE",
"421 439 OFFCURVE",
"402 439 CURVE SMOOTH",
"98 439 LINE SMOOTH",
"79 439 OFFCURVE",
"64 427 OFFCURVE",
"64 413 CURVE SMOOTH"
);
},
{
closed = 1;
nodes = (
"64 248 OFFCURVE",
"79 238 OFFCURVE",
"98 238 CURVE SMOOTH",
"402 238 LINE SMOOTH",
"421 238 OFFCURVE",
"436 249 OFFCURVE",
"436 263 CURVE SMOOTH",
"436 277 OFFCURVE",
"421 289 OFFCURVE",
"402 289 CURVE SMOOTH",
"98 289 LINE SMOOTH",
"79 289 OFFCURVE",
"64 277 OFFCURVE",
"64 263 CURVE SMOOTH"
);
}
);
width = 500;
}
);
unicode = 003D;
},
{
color = 5;
glyphname = greater;
lastChange = "2019-12-11 06:40:48 +0000";
layers = (
{
layerId = "47F7128E-F1A6-4572-9BDC-88462FF34A66";
paths = (
{
closed = 1;
nodes = (
"431 300 LINE SMOOTH",
"451 314 OFFCURVE",
"451 331 OFFCURVE",
"433 346 CURVE SMOOTH",
"137 584 LINE SMOOTH",
"122 596 OFFCURVE",
"107 596 OFFCURVE",
"91 587 CURVE SMOOTH",
"72 576 LINE SMOOTH",
"50 563 OFFCURVE",
"50 546 OFFCURVE",
"69 530 CURVE SMOOTH",
"325 324 LINE",
"75 155 LINE SMOOTH",
"55 141 OFFCURVE",
"55 123 OFFCURVE",
"75 109 CURVE SMOOTH",
"88 100 LINE SMOOTH",
"103 89 OFFCURVE",
"119 90 OFFCURVE",
"134 100 CURVE SMOOTH"
);
}
);
width = 500;
}
);
unicode = 003E;
},
{
color = 5;
glyphname = plusminus;
lastChange = "2019-12-11 06:40:48 +0000";
layers = (
{
layerId = "47F7128E-F1A6-4572-9BDC-88462FF34A66";
paths = (
{
closed = 1;
nodes = (
"85 444 LINE SMOOTH",
"72 444 OFFCURVE",
"64 436 OFFCURVE",
"64 423 CURVE SMOOTH",
"64 407 LINE SMOOTH",
"64 394 OFFCURVE",
"72 386 OFFCURVE",
"85 386 CURVE SMOOTH",
"416 386 LINE SMOOTH",
"429 386 OFFCURVE",
"437 394 OFFCURVE",
"437 407 CURVE SMOOTH",
"437 423 LINE SMOOTH",
"437 436 OFFCURVE",
"429 444 OFFCURVE",
"416 444 CURVE SMOOTH"
);
},
{
closed = 1;
nodes = (
"298 523 LINE SMOOTH",
"298 536 OFFCURVE",
"292 544 OFFCURVE",
"282 544 CURVE SMOOTH",
"220 544 LINE SMOOTH",
"210 544 OFFCURVE",
"204 536 OFFCURVE",
"204 523 CURVE SMOOTH",
"204 297 LINE SMOOTH",
"204 284 OFFCURVE",
"210 276 OFFCURVE",
"220 276 CURVE SMOOTH",
"282 276 LINE SMOOTH",
"292 276 OFFCURVE",
"298 284 OFFCURVE",
"298 297 CURVE SMOOTH"
);
},
{
closed = 1;
nodes = (
"85 234 LINE SMOOTH",
"72 234 OFFCURVE",
"64 226 OFFCURVE",
"64 213 CURVE SMOOTH",
"64 197 LINE SMOOTH",
"64 184 OFFCURVE",
"72 176 OFFCURVE",
"85 176 CURVE SMOOTH",
"416 176 LINE SMOOTH",
"429 176 OFFCURVE",
"437 184 OFFCURVE",
"437 197 CURVE SMOOTH",
"437 213 LINE SMOOTH",
"437 226 OFFCURVE",
"429 234 OFFCURVE",
"416 234 CURVE SMOOTH"
);
}
);
width = 500;
}
);
unicode = 00B1;
},
{
color = 5;
glyphname = asciitilde;
lastChange = "2019-12-11 06:40:48 +0000";
layers = (
{
layerId = "47F7128E-F1A6-4572-9BDC-88462FF34A66";
paths = (
{
closed = 1;
nodes = (
"79 477 OFFCURVE",
"55 393 OFFCURVE",
"55 374 CURVE SMOOTH",
"55 355 OFFCURVE",
"61 345 OFFCURVE",
"70 345 CURVE SMOOTH",
"79 345 OFFCURVE",
"105 345 OFFCURVE",
"116 345 CURVE SMOOTH",
"127 345 OFFCURVE",
"143 359 OFFCURVE",
"143 371 CURVE SMOOTH",
"143 383 OFFCURVE",
"154 426 OFFCURVE",
"173 426 CURVE SMOOTH",
"227 426 OFFCURVE",
"212 323 OFFCURVE",
"317 323 CURVE SMOOTH",
"412 323 OFFCURVE",
"446 395 OFFCURVE",
"446 441 CURVE SMOOTH",
"446 465 OFFCURVE",
"437 473 OFFCURVE",
"430 473 CURVE SMOOTH",
"423 473 OFFCURVE",
"395 473 OFFCURVE",
"385 473 CURVE SMOOTH",
"375 473 OFFCURVE",
"365 466 OFFCURVE",
"365 453 CURVE SMOOTH",
"365 440 OFFCURVE",
"355 374 OFFCURVE",
"326 374 CURVE SMOOTH",
"297 374 OFFCURVE",
"277 477 OFFCURVE",
"177 477 CURVE"
);
}
);
width = 500;
}
);
unicode = 007E;
},
{
color = 5;
glyphname = logicalnot;
lastChange = "2019-12-11 06:40:48 +0000";
layers = (
{
layerId = "47F7128E-F1A6-4572-9BDC-88462FF34A66";
paths = (
{
closed = 1;
nodes = (
"473 264 LINE SMOOTH",
"473 285 OFFCURVE",
"461 297 OFFCURVE",
"440 297 CURVE SMOOTH",
"79 297 LINE SMOOTH",
"58 297 OFFCURVE",
"46 286 OFFCURVE",
"46 268 CURVE SMOOTH",
"46 250 OFFCURVE",
"58 239 OFFCURVE",
"79 239 CURVE SMOOTH",
"347 239 LINE",
"347 95 LINE SMOOTH",
"347 74 OFFCURVE",
"359 62 OFFCURVE",
"380 62 CURVE SMOOTH",
"440 62 LINE SMOOTH",
"461 62 OFFCURVE",
"473 74 OFFCURVE",
"473 95 CURVE SMOOTH"
);
}
);
width = 500;
}
);
unicode = 00AC;
},
{
color = 5;
glyphname = asciicircum;
lastChange = "2019-12-11 06:40:48 +0000";
layers = (
{
layerId = "47F7128E-F1A6-4572-9BDC-88462FF34A66";
paths = (
{
closed = 1;
nodes = (
"425 592 OFFCURVE",
"335 760 OFFCURVE",
"328 777 CURVE SMOOTH",
"321 794 OFFCURVE",
"307 811 OFFCURVE",
"290 811 CURVE SMOOTH",
"235 811 LINE SMOOTH",
"218 811 OFFCURVE",
"204 794 OFFCURVE",
"197 777 CURVE SMOOTH",
"190 760 OFFCURVE",
"100 592 OFFCURVE",
"91 579 CURVE SMOOTH",
"82 566 OFFCURVE",
"75 529 OFFCURVE",
"94 529 CURVE SMOOTH",
"136 529 LINE SMOOTH",
"152 529 OFFCURVE",
"164 545 OFFCURVE",
"174 566 CURVE SMOOTH",
"181 580 OFFCURVE",
"229 664 OFFCURVE",
"263 722 CURVE",
"296 664 OFFCURVE",
"338 589 OFFCURVE",
"351 566 CURVE SMOOTH",
"362 546 OFFCURVE",
"373 529 OFFCURVE",
"389 529 CURVE SMOOTH",
"431 529 LINE SMOOTH",
"450 529 OFFCURVE",
"443 566 OFFCURVE",
"434 579 CURVE SMOOTH"
);
}
);
width = 500;
}
);
unicode = 005E;
},
{
color = 5;
glyphname = micro;
lastChange = "2019-12-11 06:40:48 +0000";
layers = (
{
layerId = "47F7128E-F1A6-4572-9BDC-88462FF34A66";
paths = (
{
closed = 1;
nodes = (
"442 216 OFFCURVE",
"431 325 OFFCURVE",
"425 415 CURVE SMOOTH",
"425 418 OFFCURVE",
"424 422 OFFCURVE",
"424 425 CURVE SMOOTH",
"424 426 LINE SMOOTH",
"424 449 OFFCURVE",
"413 461 OFFCURVE",
"394 461 CURVE SMOOTH",
"339 461 LINE SMOOTH",
"314 461 OFFCURVE",
"309 449 OFFCURVE",
"309 426 CURVE SMOOTH",
"309 229 OFFCURVE",
"285 154 OFFCURVE",
"264 154 CURVE SMOOTH",
"224 154 OFFCURVE",
"207 190 OFFCURVE",
"207 442 CURVE SMOOTH",
"207 466 OFFCURVE",
"196 478 OFFCURVE",
"177 478 CURVE SMOOTH",
"121 478 LINE SMOOTH",
"102 478 OFFCURVE",
"91 469 OFFCURVE",
"89 449 CURVE SMOOTH",
"45 -81 LINE SMOOTH",
"43 -102 OFFCURVE",
"54 -120 OFFCURVE",
"73 -120 CURVE SMOOTH",
"127 -120 LINE SMOOTH",
"147 -120 OFFCURVE",
"157 -110 OFFCURVE",
"159 -89 CURVE SMOOTH",
"180 156 LINE",
"130 195 LINE",
"130 125 OFFCURVE",
"211 96 OFFCURVE",
"264 96 CURVE SMOOTH",
"370 96 OFFCURVE",
"402 157 OFFCURVE",
"402 198 CURVE",
"360 151 LINE",
"360 138 OFFCURVE",
"364 125 OFFCURVE",
"374 112 CURVE SMOOTH",
"386 98 OFFCURVE",
"400 98 OFFCURVE",
"415 108 CURVE SMOOTH",
"439 124 LINE SMOOTH",
"453 133 OFFCURVE",
"457 147 OFFCURVE",
"453 166 CURVE SMOOTH"
);
}
);
width = 500;
}
);
unicode = 00B5;
},
{
color = 5;
glyphname = percent;
lastChange = "2019-12-11 06:40:48 +0000";
layers = (
{
layerId = "47F7128E-F1A6-4572-9BDC-88462FF34A66";
paths = (
{
closed = 1;
nodes = (
"176 330 OFFCURVE",
"224 423 OFFCURVE",
"224 543 CURVE SMOOTH",
"224 663 OFFCURVE",
"176 756 OFFCURVE",
"119 756 CURVE SMOOTH",
"62 756 OFFCURVE",
"15 663 OFFCURVE",
"15 543 CURVE SMOOTH",
"15 423 OFFCURVE",
"62 330 OFFCURVE",
"119 330 CURVE SMOOTH"
);
},
{
closed = 1;
nodes = (
"109 425 OFFCURVE",
"98 481 OFFCURVE",
"98 543 CURVE SMOOTH",
"98 606 OFFCURVE",
"109 662 OFFCURVE",
"119 662 CURVE SMOOTH",
"130 662 OFFCURVE",
"141 606 OFFCURVE",
"141 543 CURVE SMOOTH",
"141 481 OFFCURVE",
"130 425 OFFCURVE",
"119 425 CURVE SMOOTH"
);
},
{
closed = 1;
nodes = (
"410 654 LINE SMOOTH",
"420 677 OFFCURVE",
"410 693 OFFCURVE",
"385 693 CURVE SMOOTH",
"371 693 LINE SMOOTH",
"353 693 OFFCURVE",
"340 685 OFFCURVE",
"333 668 CURVE SMOOTH",
"72 66 LINE SMOOTH",
"62 43 OFFCURVE",
"72 27 OFFCURVE",
"97 27 CURVE SMOOTH",
"111 27 LINE SMOOTH",
"129 27 OFFCURVE",
"142 35 OFFCURVE",
"149 52 CURVE SMOOTH"
);
},
{
closed = 1;
nodes = (
"438 20 OFFCURVE",
"485 113 OFFCURVE",
"485 233 CURVE SMOOTH",
"485 353 OFFCURVE",
"438 446 OFFCURVE",
"381 446 CURVE SMOOTH",
"324 446 OFFCURVE",
"276 353 OFFCURVE",
"276 233 CURVE SMOOTH",
"276 113 OFFCURVE",
"324 20 OFFCURVE",
"381 20 CURVE SMOOTH"
);
},
{
closed = 1;
nodes = (
"370 115 OFFCURVE",
"359 171 OFFCURVE",
"359 233 CURVE SMOOTH",
"359 296 OFFCURVE",
"370 352 OFFCURVE",
"381 352 CURVE SMOOTH",
"391 352 OFFCURVE",
"403 296 OFFCURVE",
"403 233 CURVE SMOOTH",
"403 171 OFFCURVE",
"391 115 OFFCURVE",
"381 115 CURVE SMOOTH"
);
}
);
width = 500;
}
);
unicode = 0025;
},
{
color = 5;
glyphname = at;
lastChange = "2019-12-11 06:40:48 +0000";
layers = (
{
layerId = "47F7128E-F1A6-4572-9BDC-88462FF34A66";
paths = (
{
closed = 1;
nodes = (
"242 41 OFFCURVE",
"365 69 OFFCURVE",
"365 115 CURVE SMOOTH",
"365 133 OFFCURVE",
"361 139 OFFCURVE",
"348 139 CURVE SMOOTH",
"335 139 OFFCURVE",
"310 135 OFFCURVE",
"295 119 CURVE SMOOTH",
"280 103 OFFCURVE",
"240 96 OFFCURVE",
"215 96 CURVE SMOOTH",
"190 96 OFFCURVE",
"111 113 OFFCURVE",
"111 346 CURVE SMOOTH",
"111 580 OFFCURVE",
"178 616 OFFCURVE",
"246 616 CURVE SMOOTH",
"314 616 OFFCURVE",
"371 545 OFFCURVE",
"371 420 CURVE SMOOTH",
"371 297 OFFCURVE",
"356 227 OFFCURVE",
"342 227 CURVE SMOOTH",
"328 227 OFFCURVE",
"324 434 OFFCURVE",
"324 469 CURVE",
"335 477 OFFCURVE",
"347 478 OFFCURVE",
"347 492 CURVE SMOOTH",
"347 507 OFFCURVE",
"316 572 OFFCURVE",
"259 572 CURVE SMOOTH",
"202 572 OFFCURVE",
"126 542 OFFCURVE",
"126 365 CURVE SMOOTH",
"126 189 OFFCURVE",
"147 138 OFFCURVE",
"200 138 CURVE SMOOTH",
"242 138 OFFCURVE",
"263 173 OFFCURVE",
"272 181 CURVE",
"281 173 OFFCURVE",
"305 157 OFFCURVE",
"336 157 CURVE SMOOTH",
"391 157 OFFCURVE",
"459 231 OFFCURVE",
"459 425 CURVE SMOOTH",
"459 601 OFFCURVE",
"337 666 OFFCURVE",
"251 666 CURVE",
"107 666 OFFCURVE",
"26 575 OFFCURVE",
"26 341 CURVE SMOOTH",
"26 107 OFFCURVE",
"104 41 OFFCURVE",
"173 41 CURVE SMOOTH"
);
},
{
closed = 1;
nodes = (
"203 214 OFFCURVE",
"200 285 OFFCURVE",
"200 371 CURVE SMOOTH",
"200 458 OFFCURVE",
"216 530 OFFCURVE",
"237 530 CURVE",
"243 530 OFFCURVE",
"233 407 OFFCURVE",
"233 375 CURVE SMOOTH",
"233 344 OFFCURVE",
"223 214 OFFCURVE",
"213 214 CURVE SMOOTH"
);
}
);
width = 500;
}
);
unicode = 0040;
},
{
color = 5;
glyphname = ampersand;
lastChange = "2019-12-11 06:40:48 +0000";
layers = (
{
layerId = "47F7128E-F1A6-4572-9BDC-88462FF34A66";
paths = (
{
closed = 1;
nodes = (
"463 11 OFFCURVE",
"481 26 OFFCURVE",
"464 52 CURVE SMOOTH",
"430 104 OFFCURVE",
"157 553 OFFCURVE",
"157 645 CURVE SMOOTH",
"157 681 OFFCURVE",
"197 732 OFFCURVE",
"223 732 CURVE SMOOTH",
"268 732 OFFCURVE",
"267 716 OFFCURVE",
"267 678 CURVE SMOOTH",
"267 625 OFFCURVE",
"164 482 OFFCURVE",
"138 447 CURVE SMOOTH",
"68 351 OFFCURVE",
"21 243 OFFCURVE",
"21 168 CURVE SMOOTH",
"21 51 OFFCURVE",
"58 -5 OFFCURVE",
"163 -5 CURVE SMOOTH",
"276 -5 OFFCURVE",
"392 174 OFFCURVE",
"440 353 CURVE SMOOTH",
"446 375 OFFCURVE",
"435 389 OFFCURVE",
"413 391 CURVE SMOOTH",
"356 397 LINE SMOOTH",
"336 399 OFFCURVE",
"324 390 OFFCURVE",
"318 370 CURVE SMOOTH",
"282 247 OFFCURVE",
"203 53 OFFCURVE",
"163 53 CURVE SMOOTH",
"147 53 OFFCURVE",
"117 105 OFFCURVE",
"117 168 CURVE SMOOTH",
"117 237 OFFCURVE",
"215 379 OFFCURVE",
"240 413 CURVE SMOOTH",
"336 543 OFFCURVE",
"393 639 OFFCURVE",
"393 678 CURVE SMOOTH",
"393 737 OFFCURVE",
"315 779 OFFCURVE",
"217 779 CURVE SMOOTH",
"132 779 OFFCURVE",
"61 712 OFFCURVE",
"61 645 CURVE SMOOTH",
"61 510 OFFCURVE",
"207 247 OFFCURVE",
"368 23 CURVE SMOOTH",
"379 8 OFFCURVE",
"406 -1 OFFCURVE",
"425 3 CURVE SMOOTH"
);
}
);
width = 500;
}
);
unicode = 0026;
},
{
color = 5;
glyphname = paragraph;
lastChange = "2019-12-11 06:40:48 +0000";
layers = (
{
layerId = "47F7128E-F1A6-4572-9BDC-88462FF34A66";
paths = (
{
closed = 1;
nodes = (
"116 695 OFFCURVE",
"22 589 OFFCURVE",
"22 461 CURVE SMOOTH",
"22 333 OFFCURVE",
"116 228 OFFCURVE",
"232 227 CURVE",
"232 -56 LINE SMOOTH",
"232 -77 OFFCURVE",
"244 -89 OFFCURVE",
"265 -89 CURVE SMOOTH",
"304 -89 LINE SMOOTH",
"325 -89 OFFCURVE",
"337 -77 OFFCURVE",
"337 -56 CURVE SMOOTH",
"337 645 LINE",
"373 645 LINE",
"373 -56 LINE SMOOTH",
"373 -77 OFFCURVE",
"385 -89 OFFCURVE",
"406 -89 CURVE SMOOTH",
"445 -89 LINE SMOOTH",
"466 -89 OFFCURVE",
"478 -77 OFFCURVE",
"478 -56 CURVE SMOOTH",
"478 662 LINE SMOOTH",
"478 683 OFFCURVE",
"466 695 OFFCURVE",
"445 695 CURVE SMOOTH",
"232 695 LINE SMOOTH"
);
}
);
width = 500;
}
);
unicode = 00B6;
},
{
color = 5;
glyphname = section;
lastChange = "2019-12-11 06:40:48 +0000";
layers = (
{
layerId = "47F7128E-F1A6-4572-9BDC-88462FF34A66";
paths = (
{
closed = 1;
nodes = (
"440 235 OFFCURVE",
"461 279 OFFCURVE",
"461 359 CURVE SMOOTH",
"461 457 OFFCURVE",
"384 496 OFFCURVE",
"281 518 CURVE SMOOTH",
"221 531 OFFCURVE",
"164 567 OFFCURVE",
"164 628 CURVE SMOOTH",
"164 688 OFFCURVE",
"217 730 OFFCURVE",
"255 730 CURVE SMOOTH",
"293 730 OFFCURVE",
"312 717 OFFCURVE",
"324 708 CURVE SMOOTH",
"336 699 OFFCURVE",
"350 688 OFFCURVE",
"367 686 CURVE SMOOTH",
"384 684 OFFCURVE",
"415 680 OFFCURVE",
"430 679 CURVE SMOOTH",
"445 678 OFFCURVE",
"453 688 OFFCURVE",
"453 696 CURVE SMOOTH",
"453 704 OFFCURVE",
"360 773 OFFCURVE",
"252 773 CURVE SMOOTH",
"85 773 OFFCURVE",
"56 675 OFFCURVE",
"56 625 CURVE SMOOTH",
"56 565 OFFCURVE",
"69 524 OFFCURVE",
"157 494 CURVE",
"65 468 OFFCURVE",
"46 397 OFFCURVE",
"46 357 CURVE SMOOTH",
"46 259 OFFCURVE",
"157 227 OFFCURVE",
"267 199 CURVE SMOOTH",
"323 185 OFFCURVE",
"346 131 OFFCURVE",
"346 87 CURVE SMOOTH",
"346 41 OFFCURVE",
"332 -30 OFFCURVE",
"264 -30 CURVE SMOOTH",
"196 -30 OFFCURVE",
"150 16 OFFCURVE",
"150 95 CURVE SMOOTH",
"150 119 OFFCURVE",
"138 120 OFFCURVE",
"117 117 CURVE SMOOTH",
"96 114 OFFCURVE",
"69 109 OFFCURVE",
"57 108 CURVE SMOOTH",
"45 107 OFFCURVE",
"40 100 OFFCURVE",
"40 85 CURVE SMOOTH",
"40 -10 OFFCURVE",
"110 -69 OFFCURVE",
"257 -69 CURVE SMOOTH",
"404 -69 OFFCURVE",
"451 -29 OFFCURVE",
"451 91 CURVE SMOOTH",
"451 166 OFFCURVE",
"430 194 OFFCURVE",
"383 214 CURVE"
);
},
{
closed = 1;
nodes = (
"205 250 OFFCURVE",
"160 289 OFFCURVE",
"160 363 CURVE SMOOTH",
"160 418 OFFCURVE",
"195 462 OFFCURVE",
"245 462 CURVE SMOOTH",
"311 462 OFFCURVE",
"356 428 OFFCURVE",
"356 355 CURVE SMOOTH",
"356 294 OFFCURVE",
"346 250 OFFCURVE",
"271 250 CURVE SMOOTH"
);
}
);
width = 500;
}
);
unicode = 00A7;
},
{
color = 5;
glyphname = copyright;
lastChange = "2019-12-11 06:40:48 +0000";
layers = (
{
components = (
{
alignment = -1;
name = c;
transform = "{0.62079, 0, 0, 0.59953, 89, 218}";
}
);
layerId = "47F7128E-F1A6-4572-9BDC-88462FF34A66";
paths = (
{
closed = 1;
nodes = (
"382 117 OFFCURVE",
"487 227 OFFCURVE",
"487 366 CURVE SMOOTH",
"487 505 OFFCURVE",
"382 615 OFFCURVE",
"249 615 CURVE SMOOTH",
"115 615 OFFCURVE",
"11 505 OFFCURVE",
"11 366 CURVE SMOOTH",
"11 227 OFFCURVE",
"115 117 OFFCURVE",
"249 117 CURVE SMOOTH"
);
},
{
closed = 1;
nodes = (
"177 160 OFFCURVE",
"90 255 OFFCURVE",
"90 366 CURVE SMOOTH",
"90 478 OFFCURVE",
"176 572 OFFCURVE",
"249 572 CURVE SMOOTH",
"322 572 OFFCURVE",
"409 478 OFFCURVE",
"409 366 CURVE SMOOTH",
"409 255 OFFCURVE",
"321 160 OFFCURVE",
"249 160 CURVE SMOOTH"
);
}
);
width = 500;
}
);
unicode = 00A9;
},
{
color = 5;
glyphname = registered;
lastChange = "2019-12-11 06:40:48 +0000";
layers = (
{
layerId = "47F7128E-F1A6-4572-9BDC-88462FF34A66";
paths = (
{
closed = 1;
nodes = (
"382 117 OFFCURVE",
"487 227 OFFCURVE",
"487 366 CURVE SMOOTH",
"487 505 OFFCURVE",
"382 615 OFFCURVE",
"249 615 CURVE SMOOTH",
"115 615 OFFCURVE",
"11 505 OFFCURVE",
"11 366 CURVE SMOOTH",
"11 227 OFFCURVE",
"115 117 OFFCURVE",
"249 117 CURVE SMOOTH"
);
},
{
closed = 1;
nodes = (
"177 160 OFFCURVE",
"90 255 OFFCURVE",
"90 366 CURVE SMOOTH",
"90 478 OFFCURVE",
"176 572 OFFCURVE",
"249 572 CURVE SMOOTH",
"322 572 OFFCURVE",
"409 478 OFFCURVE",
"409 366 CURVE SMOOTH",
"409 255 OFFCURVE",
"321 160 OFFCURVE",
"249 160 CURVE SMOOTH"
);
},
{
closed = 1;
nodes = (
"195 476 LINE",
"202 476 OFFCURVE",
"212 476 OFFCURVE",
"239 476 CURVE SMOOTH",
"276 476 OFFCURVE",
"308 473 OFFCURVE",
"308 440 CURVE SMOOTH",
"308 401 OFFCURVE",
"283 400 OFFCURVE",
"237 400 CURVE SMOOTH",
"191 400 LINE",
"191 365 LINE",
"206 365 OFFCURVE",
"213.535 364.582 OFFCURVE",
"237.469 364.582 CURVE SMOOTH",
"293.93 364.582 OFFCURVE",
"381.075 366.74 OFFCURVE",
"381.075 441.2 CURVE SMOOTH",
"381.075 499.473 OFFCURVE",
"324.615 510.264 OFFCURVE",
"238.697 510.264 CURVE SMOOTH",
"190.828 510.264 LINE",
"166.894 510.264 LINE SMOOTH",
"155.233 510.264 OFFCURVE",
"146.028 505.228 OFFCURVE",
"146.028 499.113 CURVE SMOOTH",
"146.028 255.23 LINE SMOOTH",
"146.028 248.396 OFFCURVE",
"155.233 243 OFFCURVE",
"166.894 243 CURVE SMOOTH",
"190.828 243 LINE SMOOTH",
"202.488 243 OFFCURVE",
"211.694 248.396 OFFCURVE",
"211.694 255.23 CURVE SMOOTH",
"211.694 500.192 LINE"
);
},
{
closed = 1;
nodes = (
"239 369 OFFCURVE",
"223.354 368.539 OFFCURVE",
"213.535 368.539 CURVE SMOOTH",
"204.329 368.539 OFFCURVE",
"197.579 357.747 OFFCURVE",
"203.716 351.632 CURVE SMOOTH",
"209.853 345.517 OFFCURVE",
"293.316 262.424 OFFCURVE",
"304.976 251.273 CURVE SMOOTH",
"311.113 245.518 OFFCURVE",
"315.409 243 OFFCURVE",
"324.615 243 CURVE SMOOTH",
"334.434 243 OFFCURVE",
"351.004 243 OFFCURVE",
"358.368 243 CURVE SMOOTH",
"365.733 243 OFFCURVE",
"366.96 253.072 OFFCURVE",
"357.755 262.424 CURVE SMOOTH",
"348.549 271.777 OFFCURVE",
"274.291 352.711 OFFCURVE",
"269.382 359.186 CURVE SMOOTH",
"264.472 365.661 OFFCURVE",
"261 369 OFFCURVE",
"250 369 CURVE"
);
}
);
width = 500;
}
);
unicode = 00AE;
},
{
color = 5;
glyphname = degree;
lastChange = "2019-12-11 06:40:48 +0000";
layers = (
{
layerId = "47F7128E-F1A6-4572-9BDC-88462FF34A66";
paths = (
{
closed = 1;
nodes = (
"275 492 OFFCURVE",
"344 549 OFFCURVE",
"344 628 CURVE SMOOTH",
"344 706 OFFCURVE",
"275 763 OFFCURVE",
"190 763 CURVE SMOOTH",
"105 763 OFFCURVE",
"36 706 OFFCURVE",
"36 628 CURVE SMOOTH",
"36 549 OFFCURVE",
"104 492 OFFCURVE",
"190 492 CURVE SMOOTH"
);
},
{
closed = 1;
nodes = (
"161 542 OFFCURVE",
"129 583 OFFCURVE",
"129 628 CURVE SMOOTH",
"129 673 OFFCURVE",
"161 713 OFFCURVE",
"190 713 CURVE SMOOTH",
"217 713 OFFCURVE",
"251 673 OFFCURVE",
"251 628 CURVE SMOOTH",
"251 583 OFFCURVE",
"217 542 OFFCURVE",
"190 542 CURVE SMOOTH"
);
}
);
width = 500;
}
);
unicode = 00B0;
},
{
color = 5;
glyphname = bar;
lastChange = "2019-12-11 06:40:48 +0000";
layers = (
{
layerId = "47F7128E-F1A6-4572-9BDC-88462FF34A66";
paths = (
{
closed = 1;
nodes = (
"307 786 LINE SMOOTH",
"307 807 OFFCURVE",
"295 819 OFFCURVE",
"274 819 CURVE SMOOTH",
"224 819 LINE SMOOTH",
"203 819 OFFCURVE",
"191 807 OFFCURVE",
"191 786 CURVE SMOOTH",
"191 -70 LINE SMOOTH",
"191 -91 OFFCURVE",
"203 -103 OFFCURVE",
"224 -103 CURVE SMOOTH",
"274 -103 LINE SMOOTH",
"295 -103 OFFCURVE",
"307 -91 OFFCURVE",
"307 -70 CURVE SMOOTH"
);
}
);
width = 500;
}
);
unicode = 007C;
},
{
color = 5;
glyphname = brokenbar;
lastChange = "2019-12-11 06:40:48 +0000";
layers = (
{
layerId = "47F7128E-F1A6-4572-9BDC-88462FF34A66";
paths = (
{
closed = 1;
nodes = (
"307 786 LINE SMOOTH",
"307 807 OFFCURVE",
"295 819 OFFCURVE",
"274 819 CURVE SMOOTH",
"224 819 LINE SMOOTH",
"203 819 OFFCURVE",
"191 807 OFFCURVE",
"191 786 CURVE SMOOTH",
"191 420 LINE SMOOTH",
"191 399 OFFCURVE",
"203 387 OFFCURVE",
"224 387 CURVE SMOOTH",
"274 387 LINE SMOOTH",
"295 387 OFFCURVE",
"307 399 OFFCURVE",
"307 420 CURVE SMOOTH"
);
},
{
closed = 1;
nodes = (
"307 296 LINE SMOOTH",
"307 317 OFFCURVE",
"295 329 OFFCURVE",
"274 329 CURVE SMOOTH",
"224 329 LINE SMOOTH",
"203 329 OFFCURVE",
"191 317 OFFCURVE",
"191 296 CURVE SMOOTH",
"191 -70 LINE SMOOTH",
"191 -91 OFFCURVE",
"203 -103 OFFCURVE",
"224 -103 CURVE SMOOTH",
"274 -103 LINE SMOOTH",
"295 -103 OFFCURVE",
"307 -91 OFFCURVE",
"307 -70 CURVE SMOOTH"
);
}
);
width = 500;
}
);
unicode = 00A6;
},
{
color = 4;
glyphname = dotaccentcomb;
lastChange = "2019-12-11 06:51:46 +0000";
layers = (
{
layerId = "47F7128E-F1A6-4572-9BDC-88462FF34A66";
paths = (
{
closed = 1;
nodes = (
"190 846 LINE SMOOTH",
"190 827 OFFCURVE",
"205 812 OFFCURVE",
"224 812 CURVE SMOOTH",
"277 812 LINE SMOOTH",
"296 812 OFFCURVE",
"311 827 OFFCURVE",
"311 846 CURVE SMOOTH",
"311 880 LINE SMOOTH",
"311 899 OFFCURVE",
"296 914 OFFCURVE",
"277 914 CURVE SMOOTH",
"224 914 LINE SMOOTH",
"205 914 OFFCURVE",
"190 899 OFFCURVE",
"190 880 CURVE SMOOTH"
);
}
);
width = 500;
}
);
unicode = 0307;
},
{
color = 4;
glyphname = gravecomb;
lastChange = "2019-12-11 06:51:46 +0000";
layers = (
{
layerId = "47F7128E-F1A6-4572-9BDC-88462FF34A66";
paths = (
{
closed = 1;
nodes = (
"195 984 OFFCURVE",
"166 984 OFFCURVE",
"151 984 CURVE SMOOTH",
"136 984 OFFCURVE",
"128 967 OFFCURVE",
"141 952 CURVE SMOOTH",
"154 937 OFFCURVE",
"215 856 OFFCURVE",
"224 846 CURVE SMOOTH",
"233 836 OFFCURVE",
"248 829 OFFCURVE",
"258 829 CURVE SMOOTH",
"268 829 OFFCURVE",
"302 829 OFFCURVE",
"314 829 CURVE SMOOTH",
"326 829 OFFCURVE",
"340 846 OFFCURVE",
"323 867 CURVE SMOOTH",
"306 888 OFFCURVE",
"248 958 OFFCURVE",
"237 970 CURVE SMOOTH",
"226 982 OFFCURVE",
"222 984 OFFCURVE",
"213 984 CURVE"
);
}
);
width = 500;
}
);
unicode = 0300;
},
{
color = 4;
glyphname = acutecomb;
lastChange = "2019-12-11 06:51:46 +0000";
layers = (
{
layerId = "47F7128E-F1A6-4572-9BDC-88462FF34A66";
paths = (
{
closed = 1;
nodes = (
"330 1003 OFFCURVE",
"302 1003 OFFCURVE",
"283 1003 CURVE SMOOTH",
"264 1003 OFFCURVE",
"255 989 OFFCURVE",
"246 973 CURVE",
"238 957 OFFCURVE",
"194 874 OFFCURVE",
"185 859 CURVE SMOOTH",
"176 844 OFFCURVE",
"173 822 OFFCURVE",
"190 822 CURVE SMOOTH",
"207 822 OFFCURVE",
"239 822 OFFCURVE",
"251 822 CURVE SMOOTH",
"263 822 OFFCURVE",
"281 845 OFFCURVE",
"289 859 CURVE SMOOTH",
"297 873 OFFCURVE",
"358 962 OFFCURVE",
"364 972 CURVE SMOOTH",
"370 982 OFFCURVE",
"373 1003 OFFCURVE",
"352 1003 CURVE"
);
}
);
width = 500;
}
);
unicode = 0301;
},
{
color = 4;
glyphname = circumflexcomb;
lastChange = "2019-12-11 06:51:46 +0000";
layers = (
{
layerId = "47F7128E-F1A6-4572-9BDC-88462FF34A66";
paths = (
{
closed = 1;
nodes = (
"383 864 OFFCURVE",
"326 922 OFFCURVE",
"316 935 CURVE SMOOTH",
"305 949 OFFCURVE",
"291 952 OFFCURVE",
"273 952 CURVE SMOOTH",
"259 952 OFFCURVE",
"246 952 OFFCURVE",
"234 952 CURVE SMOOTH",
"218 952 OFFCURVE",
"204 950 OFFCURVE",
"191 935 CURVE SMOOTH",
"180 923 OFFCURVE",
"124 864 OFFCURVE",
"113 853 CURVE SMOOTH",
"101 841 OFFCURVE",
"101 817 OFFCURVE",
"118 817 CURVE SMOOTH",
"173 817 LINE SMOOTH",
"186 817 OFFCURVE",
"193 817 OFFCURVE",
"206 830 CURVE SMOOTH",
"213 837 OFFCURVE",
"234 861 OFFCURVE",
"253 885 CURVE",
"273 861 OFFCURVE",
"294 836 OFFCURVE",
"301 830 CURVE SMOOTH",
"315 818 OFFCURVE",
"320 817 OFFCURVE",
"334 817 CURVE SMOOTH",
"389 817 LINE SMOOTH",
"406 817 OFFCURVE",
"406 841 OFFCURVE",
"394 853 CURVE SMOOTH"
);
}
);
width = 500;
}
);
unicode = 0302;
},
{
color = 4;
glyphname = caroncomb;
lastChange = "2019-12-11 06:51:46 +0000";
layers = (
{
layerId = "47F7128E-F1A6-4572-9BDC-88462FF34A66";
paths = (
{
closed = 1;
nodes = (
"406 928 OFFCURVE",
"406 952 OFFCURVE",
"389 952 CURVE SMOOTH",
"334 952 LINE SMOOTH",
"320 952 OFFCURVE",
"315 951 OFFCURVE",
"301 939 CURVE SMOOTH",
"294 933 OFFCURVE",
"273 908 OFFCURVE",
"253 884 CURVE",
"234 908 OFFCURVE",
"213 932 OFFCURVE",
"206 939 CURVE SMOOTH",
"193 952 OFFCURVE",
"186 952 OFFCURVE",
"173 952 CURVE SMOOTH",
"118 952 LINE SMOOTH",
"101 952 OFFCURVE",
"101 928 OFFCURVE",
"113 916 CURVE SMOOTH",
"124 905 OFFCURVE",
"180 846 OFFCURVE",
"191 834 CURVE SMOOTH",
"204 819 OFFCURVE",
"218 817 OFFCURVE",
"234 817 CURVE SMOOTH",
"246 817 OFFCURVE",
"259 817 OFFCURVE",
"273 817 CURVE SMOOTH",
"291 817 OFFCURVE",
"305 820 OFFCURVE",
"316 834 CURVE SMOOTH",
"326 847 OFFCURVE",
"383 905 OFFCURVE",
"394 916 CURVE SMOOTH"
);
}
);
width = 500;
}
);
unicode = 030C;
},
{
color = 4;
glyphname = ringcomb;
lastChange = "2019-12-11 06:51:46 +0000";
layers = (
{
layerId = "47F7128E-F1A6-4572-9BDC-88462FF34A66";
paths = (
{
closed = 1;
nodes = (
"294 1047 OFFCURVE",
"382 1002 OFFCURVE",
"382 915 CURVE SMOOTH",
"382 828 OFFCURVE",
"329 802 OFFCURVE",
"247 802 CURVE SMOOTH",
"165 802 OFFCURVE",
"118 859 OFFCURVE",
"118 920 CURVE SMOOTH",
"118 981 OFFCURVE",
"170 1047 OFFCURVE",
"255 1047 CURVE"
);
},
{
closed = 1;
nodes = (
"243 976 OFFCURVE",
"219 955 OFFCURVE",
"219 923 CURVE SMOOTH",
"219 891 OFFCURVE",
"227 864 OFFCURVE",
"249 864 CURVE SMOOTH",
"271 864 OFFCURVE",
"281 902 OFFCURVE",
"281 930 CURVE SMOOTH",
"281 958 OFFCURVE",
"281 976 OFFCURVE",
"257 976 CURVE"
);
}
);
width = 500;
}
);
unicode = 030A;
},
{
color = 4;
glyphname = tildecomb;
lastChange = "2019-12-11 06:51:46 +0000";
layers = (
{
layerId = "47F7128E-F1A6-4572-9BDC-88462FF34A66";
paths = (
{
closed = 1;
nodes = (
"123 915 OFFCURVE",
"28 862 OFFCURVE",
"28 834 CURVE SMOOTH",
"28 806 OFFCURVE",
"38 798 OFFCURVE",
"54 798 CURVE SMOOTH",
"70 798 OFFCURVE",
"125 798 OFFCURVE",
"141 798 CURVE SMOOTH",
"157 798 OFFCURVE",
"181 844 OFFCURVE",
"209 844 CURVE SMOOTH",
"225 844 OFFCURVE",
"233 832 OFFCURVE",
"256 822 CURVE SMOOTH",
"272 815 OFFCURVE",
"297 809 OFFCURVE",
"338 809 CURVE SMOOTH",
"436 809 OFFCURVE",
"492 861 OFFCURVE",
"492 876 CURVE SMOOTH",
"492 891 OFFCURVE",
"488 905 OFFCURVE",
"469 905 CURVE SMOOTH",
"450 905 OFFCURVE",
"390 913 OFFCURVE",
"380 905 CURVE SMOOTH",
"344 877 LINE",
"321 884 OFFCURVE",
"305 893 OFFCURVE",
"286 901 CURVE SMOOTH",
"267 909 OFFCURVE",
"244 915 OFFCURVE",
"208 915 CURVE"
);
}
);
width = 500;
}
);
unicode = 0303;
},
{
color = 4;
glyphname = cedillacomb;
lastChange = "2019-12-11 06:51:46 +0000";
layers = (
{
layerId = "47F7128E-F1A6-4572-9BDC-88462FF34A66";
paths = (
{
closed = 1;
nodes = (
"247 -11 OFFCURVE",
"215 -11 OFFCURVE",
"200 -11 CURVE SMOOTH",
"185 -11 OFFCURVE",
"162 -58 OFFCURVE",
"162 -97 CURVE SMOOTH",
"162 -131 OFFCURVE",
"294 -128 OFFCURVE",
"294 -169 CURVE SMOOTH",
"294 -210 OFFCURVE",
"269 -215 OFFCURVE",
"242 -215 CURVE SMOOTH",
"226 -215 OFFCURVE",
"215 -210 OFFCURVE",
"203 -194 CURVE SMOOTH",
"199 -189 OFFCURVE",
"190 -180 OFFCURVE",
"180 -180 CURVE SMOOTH",
"170 -180 OFFCURVE",
"131 -180 OFFCURVE",
"122 -180 CURVE SMOOTH",
"113 -180 OFFCURVE",
"106 -188 OFFCURVE",
"106 -202 CURVE SMOOTH",
"106 -216 OFFCURVE",
"110 -267 OFFCURVE",
"253 -267 CURVE SMOOTH",
"384 -267 OFFCURVE",
"416 -205 OFFCURVE",
"416 -186 CURVE SMOOTH",
"416 -167 OFFCURVE",
"390 -101 OFFCURVE",
"320 -101 CURVE SMOOTH",
"298 -101 OFFCURVE",
"284 -86 OFFCURVE",
"284 -67 CURVE SMOOTH",
"284 -42 OFFCURVE",
"280 -11 OFFCURVE",
"260 -11 CURVE"
);
}
);
width = 500;
},
{
associatedMasterId = "47F7128E-F1A6-4572-9BDC-88462FF34A66";
layerId = "0FC321E3-8E74-4E77-B21D-8D28DF0A7D51";
name = "Nov 14 19, 08:00";
paths = (
{
closed = 1;
nodes = (
"188 -263 OFFCURVE",
"195 -262 OFFCURVE",
"202 -261 CURVE SMOOTH",
"203 -261 OFFCURVE",
"205 -261 OFFCURVE",
"206 -262 CURVE",
"206 -261 LINE",
"210 -263 OFFCURVE",
"213 -263 OFFCURVE",
"217 -263 CURVE SMOOTH",
"225 -263 OFFCURVE",
"234 -259 OFFCURVE",
"244 -260 CURVE",
"250 -262 OFFCURVE",
"255 -263 OFFCURVE",
"261 -263 CURVE SMOOTH",
"278 -263 OFFCURVE",
"296 -256 OFFCURVE",
"313 -259 CURVE",
"314 -255 OFFCURVE",
"310 -254 OFFCURVE",
"316 -253 CURVE",
"345 -246 OFFCURVE",
"370 -235 OFFCURVE",
"398 -220 CURVE",
"412 -206 OFFCURVE",
"417 -192 OFFCURVE",
"417 -179 CURVE SMOOTH",
"417 -143 OFFCURVE",
"370 -114 OFFCURVE",
"335 -104 CURVE",
"335 -108 LINE",
"334 -107 OFFCURVE",
"334 -106 OFFCURVE",
"335 -104 CURVE",
"307 -103 OFFCURVE",
"284 -84 OFFCURVE",
"284 -63 CURVE SMOOTH",
"284 -54 OFFCURVE",
"288 -44 OFFCURVE",
"299 -36 CURVE",
"339 -22 OFFCURVE",
"381 -18 OFFCURVE",
"418 8 CURVE",
"439 25 OFFCURVE",
"462 69 OFFCURVE",
"462 101 CURVE SMOOTH",
"462 122 OFFCURVE",
"453 137 OFFCURVE",
"428 137 CURVE SMOOTH",
"423 137 OFFCURVE",
"417 136 OFFCURVE",
"410 134 CURVE",
"367 130 OFFCURVE",
"341 110 OFFCURVE",
"337 72 CURVE",
"329 37 OFFCURVE",
"310 24 OFFCURVE",
"289 24 CURVE SMOOTH",
"269 24 OFFCURVE",
"246 36 OFFCURVE",
"228 51 CURVE",
"186 92 OFFCURVE",
"166 152 OFFCURVE",
"151 208 CURVE",
"144 234 OFFCURVE",
"141 269 OFFCURVE",
"141 310 CURVE SMOOTH",
"141 468 OFFCURVE",
"190 698 OFFCURVE",
"256 698 CURVE SMOOTH",
"280 698 OFFCURVE",
"307 666 OFFCURVE",
"334 587 CURVE",
"340 563 OFFCURVE",
"339 526 OFFCURVE",
"365 515 CURVE",
"386 512 OFFCURVE",
"406 507 OFFCURVE",
"424 507 CURVE SMOOTH",
"436 507 OFFCURVE",
"446 509 OFFCURVE",
"454 516 CURVE",
"463 523 OFFCURVE",
"467 533 OFFCURVE",
"467 546 CURVE SMOOTH",
"467 612 OFFCURVE",
"367 739 OFFCURVE",
"345 751 CURVE",
"322 768 OFFCURVE",
"291 776 OFFCURVE",
"260 776 CURVE SMOOTH",
"207 776 OFFCURVE",
"153 755 OFFCURVE",
"128 721 CURVE",
"65 650 OFFCURVE",
"27 489 OFFCURVE",
"27 333 CURVE SMOOTH",
"27 163 OFFCURVE",
"72 -1 OFFCURVE",
"182 -37 CURVE",
"169 -64 OFFCURVE",
"163 -83 OFFCURVE",
"163 -95 CURVE SMOOTH",
"163 -138 OFFCURVE",
"225 -119 OFFCURVE",
"276 -142 CURVE",
"289 -151 OFFCURVE",
"294 -161 OFFCURVE",
"294 -169 CURVE SMOOTH",
"294 -192 OFFCURVE",
"254 -210 OFFCURVE",
"234 -214 CURVE",
"222 -213 OFFCURVE",
"213 -195 OFFCURVE",
"201 -192 CURVE",
"201 -193 LINE",
"193 -192 OFFCURVE",
"187 -188 OFFCURVE",
"178 -188 CURVE SMOOTH",
"177 -188 OFFCURVE",
"176 -188 OFFCURVE",
"175 -189 CURVE",
"175 -188 OFFCURVE",
"175 -187 OFFCURVE",
"176 -187 CURVE",
"174 -187 OFFCURVE",
"173 -187 OFFCURVE",
"173 -189 CURVE",
"159 -185 OFFCURVE",
"147 -183 OFFCURVE",
"138 -183 CURVE SMOOTH",
"116 -183 OFFCURVE",
"107 -192 OFFCURVE",
"107 -204 CURVE SMOOTH",
"107 -228 OFFCURVE",
"140 -262 OFFCURVE",
"181 -266 CURVE"
);
}
);
width = 600;
}
);
unicode = 0327;
},
{
color = 5;
glyphname = macron;
lastChange = "2019-12-11 06:40:48 +0000";
layers = (
{
layerId = "47F7128E-F1A6-4572-9BDC-88462FF34A66";
paths = (
{
closed = 1;
nodes = (
"52 787 OFFCURVE",
"67 775 OFFCURVE",
"86 775 CURVE SMOOTH",
"413 775 LINE SMOOTH",
"432 775 OFFCURVE",
"447 787 OFFCURVE",
"447 803 CURVE SMOOTH",
"447 819 OFFCURVE",
"432 831 OFFCURVE",
"413 831 CURVE SMOOTH",
"86 831 LINE SMOOTH",
"67 831 OFFCURVE",
"52 819 OFFCURVE",
"52 803 CURVE SMOOTH"
);
}
);
width = 500;
}
);
unicode = 00AF;
},
